<?xml version="1.0" standalone="no"?>
<!DOCTYPE svg PUBLIC "-//W3C//DTD SVG 1.1//EN" "http://www.w3.org/Graphics/SVG/1.1/DTD/svg11.dtd" >
<svg xmlns="http://www.w3.org/2000/svg" xmlns:xlink="http://www.w3.org/1999/xlink" version="1.1">
<metadata>
Created by FontForge 20170910 at Sat Nov 15 00:01:01 2003
 By Jimmy Wärting
Albemarle v. 1.0 - Copyright 2001, David F. Nalle - Scriptorium fonts.  www.fontcraft.com
</metadata>
<defs>
<font id="Albemarle" horiz-adv-x="236" >
  <font-face 
    font-family="Albemarle"
    font-weight="400"
    font-stretch="normal"
    units-per-em="1000"
    panose-1="0 0 4 0 0 0 0 0 0 0"
    ascent="800"
    descent="-200"
    x-height="452"
    cap-height="700"
    bbox="-756 -270 3882 868"
    underline-thickness="20"
    underline-position="-143"
    unicode-range="U+0020-201D"
  />
<missing-glyph horiz-adv-x="500" 
d="M63 0v806h375v-806h-375zM125 63h250v681h-250v-681z" />
    <glyph glyph-name=".notdef" horiz-adv-x="500" 
d="M63 0v806h375v-806h-375zM125 63h250v681h-250v-681z" />
    <glyph glyph-name=".null" horiz-adv-x="0" 
 />
    <glyph glyph-name="nonmarkingreturn" 
 />
    <glyph glyph-name="space" unicode=" " 
 />
    <glyph glyph-name="exclam" unicode="!" horiz-adv-x="204" 
d="M152 604q0 -37 -9 -95q-13 -79 -15 -95q-10 -93 -11 -234h-15q0 166 -21 315q-13 93 -13 109q0 56 42 56t42 -56zM152 40q0 -19 -12.5 -34t-30.5 -15q-19 0 -31.5 15.5t-12.5 34.5q0 20 12 36t32 16q19 0 31 -16.5t12 -36.5z" />
    <glyph glyph-name="quotedbl" unicode="&#x22;" horiz-adv-x="258" 
d="M245 556q0 -83 -94 -155l-5 8q54 64 54 95q0 8 -24.5 32.5t-24.5 48.5q0 20 11.5 35.5t30.5 15.5q27 0 41 -28q11 -22 11 -52zM138 556q0 -83 -95 -155l-4 8q54 64 54 95q0 8 -25 32.5t-25 48.5q0 20 12 35.5t31 15.5q27 0 41 -28q11 -22 11 -52z" />
    <glyph glyph-name="numbersign" unicode="#" horiz-adv-x="451" 
d="M440 400h-106l-21 -144h100v-43h-106l-29 -213h-47l29 213h-112l-30 -213h-48l30 213h-107v43h113l20 144h-103v42h109l29 202h47l-28 -202h113l28 202h47l-28 -202h100v-42zM287 400h-113l-20 -144h112z" />
    <glyph glyph-name="dollar" unicode="$" horiz-adv-x="349" 
d="M337 303q0 -106 -122 -136l-4 -45h-18l4 41q-14 -2 -29 -3l-4 -40h-17l3 40q-18 1 -56.5 14.5t-54.5 13.5q-8 0 -31 -16l-6 6q13 49 45 146q7 -8 11 -7v-14q0 -118 94 -120l18 194q-85 51 -85 116q0 107 109 138l5 52h17l-4 -48q14 2 29 2l4 48h18l-4 -49q6 -1 19 -8
t20 -7q10 0 19 11l9 2q6 -73 6 -121v-36l-8 4q-21 112 -68 130l-16 -180q97 -51 97 -128zM239 616h-9q-8 1 -20 -2l-15 -159q10 -6 28 -15zM192 607q-56 -26 -56 -74q0 -34 43 -66zM271 273q0 46 -39 71l-14 -151q21 7 37 32t16 48zM214 353l-27 14l-17 -184q15 2 29 5z" />
    <glyph glyph-name="percent" unicode="%" horiz-adv-x="525" 
d="M247 483q0 -62 -32 -110q-36 -56 -95 -56q-58 0 -95 54q-33 48 -33 109t33 109q37 55 95 55t94 -53q33 -47 33 -108zM456 634l-356 -634h-50l356 634h50zM517 156q0 -62 -31 -110q-35 -55 -94 -55t-96 53q-33 47 -33 109t33 110q37 54 96 54q57 0 93 -54q32 -47 32 -107z
M184 478q0 142 -64 142t-64 -137q0 -142 66 -142q34 0 50 53q12 39 12 84zM453 151q0 142 -62 142q-64 0 -64 -137q0 -58 8 -88q14 -53 58 -53q60 0 60 136z" />
    <glyph glyph-name="ampersand" unicode="&#x26;" horiz-adv-x="431" 
d="M413 274q-23 -36 -70 -82q2 -13 2 -31q0 -168 -180 -168q-67 0 -108 29q-48 33 -48 97q0 51 34 83q37 28 74 57q-9 14 -35.5 31.5t-34.5 27.5q-16 20 -16 55q0 57 46 104.5t103 47.5q50 0 89 -31q42 -34 42 -82q0 -53 -59 -102q-32 -27 -111 -71q-64 -36 -70 -54
q-4 -12 -4 -32q0 -52 28 -91q31 -43 81 -43q99 0 99 96q0 18 -4 42l-59 -18l-17 16q34 15 122 57q46 23 79 74zM256 403q0 34 -30.5 66t-64.5 32q-26 0 -49.5 -21.5t-23.5 -47.5q0 -47 31 -82.5t78 -44.5q59 39 59 98z" />
    <glyph glyph-name="quotesingle" unicode="'" horiz-adv-x="133" 
d="M124 556q0 -83 -94 -155l-5 8q55 64 55 95q0 8 -25 32.5t-25 48.5q0 20 11.5 35.5t30.5 15.5q27 0 41 -28q11 -22 11 -52z" />
    <glyph glyph-name="parenleft" unicode="(" horiz-adv-x="224" 
d="M251 -126l-13 -17q-110 68 -172 174.5t-62 234.5q0 267 235 414l12 -17q-168 -112 -168 -403q0 -268 168 -386z" />
    <glyph glyph-name="parenright" unicode=")" horiz-adv-x="225" 
d="M237 266q0 -129 -61.5 -234.5t-173.5 -174.5l-14 17q169 118 169 386q0 289 -169 403l14 17q235 -148 235 -414z" />
    <glyph glyph-name="asterisk" unicode="*" horiz-adv-x="451" 
d="M387 523q0 -28 -62 -41q-19 -4 -83 -13l53 -54q36 -37 36 -59t-18 -22q-26 0 -55 49q-6 9 -35 71q-31 -57 -39 -70q-31 -50 -53 -50q-19 0 -19 20q0 25 36 61l54 54q-24 3 -85 13.5t-61 40.5q0 18 29 18t126 -51q-15 82 -15 109q0 45 26 45t26 -45q0 -31 -16 -109
q97 51 127 51q28 0 28 -18z" />
    <glyph glyph-name="plus" unicode="+" horiz-adv-x="451" 
d="M418 219h-181v-183h-44v183h-179v42h179v183h44v-183h181v-42z" />
    <glyph glyph-name="comma" unicode="," horiz-adv-x="193" 
d="M149 20q0 -85 -94 -158l-5 7q55 63 55 98q0 9 -25 33.5t-25 49.5q0 20 11.5 36t30.5 16q52 0 52 -82z" />
    <glyph glyph-name="hyphen" unicode="-" horiz-adv-x="228" 
d="M215 151l-33 17l-169 -17v65l32 -11l170 11v-65z" />
    <glyph glyph-name="hyphen" unicode="&#x2010;" horiz-adv-x="228" 
d="M215 151l-33 17l-169 -17v65l32 -11l170 11v-65z" />
    <glyph glyph-name="period" unicode="." horiz-adv-x="193" 
d="M142 44q0 -20 -12.5 -36.5t-31.5 -16.5t-31 17t-12 37q0 21 11.5 39t31.5 18q21 0 32.5 -18t11.5 -40z" />
    <glyph glyph-name="slash" unicode="/" horiz-adv-x="476" 
d="M440 681l-369 -769h-54l372 769h51z" />
    <glyph glyph-name="zero" unicode="0" horiz-adv-x="524" 
d="M365 12l-5 -2q-31 -17 -42 -19q-2 -1 -49 -7q-90 0 -156 67q-61 61 -81 153q-16 73 -16 106q0 121 58 226q70 127 184 127q3 0 14 -1h20q58 0 132 -73q52 -51 78 -145q21 -75 17 -141q-5 -94 -49 -179q-20 -39 -48 -63zM308 615q-23 4 -44 4q-186 0 -179 -344
q4 -184 95 -227q53 -25 88 -23q107 7 148 101q29 65 29 189q0 276 -137 300z" />
    <glyph glyph-name="one" unicode="1" horiz-adv-x="353" 
d="M3882 806q-24 -10 -44 -10zM339 2q-6 -5 -15 -4l-79 6h-113l-51 -6q-3 0 -8.5 -1t-8.5 -1q-9 0 -17.5 6t-5.5 15q2 5 9 6q4 1 12 0q7 -1 10 -1q86 0 88 86q1 43 5 156q4 118 4 158q0 49 -9 102q-13 76 -36 76q-8 0 -61 -17q-6 0 -11 8v13q11 15 81 38q66 22 91 22
q15 0 20 -25q1 -75 -2 -182l-2 -71q-2 -71 -2 -267q0 -27 4 -55q2 -16 19 -26q26 -16 34 -16q4 0 12.5 2t12.5 2q9 0 19 -13v-11z" />
    <glyph glyph-name="two" unicode="2" horiz-adv-x="514" 
d="M493 127q-8 -17 -21 -49l-13 -49q-10 -30 -23 -45q-12 1 -23 15q-20 1 -52 4l-32 3q-79 0 -209 -8q-36 -2 -36 17q0 13 31 51q24 39 53 80q94 131 103 157q41 88 41 162q0 63 -34 104q-37 45 -98 45q-48 0 -88 -32q-43 -35 -43 -81q0 -28 14 -37q21 -13 23 -17
q-5 -7 -16 -7q-47 0 -47 71q0 33 34 81q51 72 159 72q79 0 128 -52t49 -131q0 -70 -31 -128q-20 -38 -79 -111q-68 -84 -106 -147q8 -26 55 -24q37 1 131.5 7t100.5 49q1 6 10 15q13 -3 19 -15z" />
    <glyph glyph-name="three" unicode="3" horiz-adv-x="445" 
d="M445 222q0 -125 -106 -185q-71 -40 -163 -40q-27 0 -55 3q-13 2 -46 16q-41 18 -41 35q0 10 12 28t21 18q6 0 11 -6q7 -67 90 -67q44 0 92 20q53 22 75 55q29 45 30 80v72q1 52 -38 87t-91 35q-2 0 -11 -1h-11q-5 0 -14.5 -2.5t-14.5 -2.5q-4 5 -4 8q0 8 26 18
q77 30 77 121q0 47 -30 77t-77 34q-32 3 -67 -17q-39 -21 -39 -52q0 -17 16 -29q0 -8 -3 -15l-2 -1q-3 -1 -6 -1q-12 0 -21 12.5t-9 25.5q0 57 52 91q46 30 106 30q61 0 101 -34q42 -37 42 -97q0 -77 -69 -131q63 -20 71 -23q36 -16 60 -43q36 -56 36 -119z" />
    <glyph glyph-name="four" unicode="4" horiz-adv-x="509" 
d="M498 211q-9 -22 -46 -35q-31 -11 -60 -11q0 -8 -2.5 -24t-2.5 -24q0 -79 48 -85q24 -3 46 -6l1 -18q-8 -8 -17 -8q-19 0 -50 6q-37 6 -50 7l-97 -9q-4 0 -12.5 -2t-12.5 -2q-15 0 -27 12q0 3 1.5 8.5t1.5 8.5q6 3 12 1l9 -3q56 9 72 48q8 20 8 79q0 7 -5 14
q-87 30 -180 30q-58 0 -111 -26q-11 4 -11 15q12 19 57 80q23 33 85 122q24 33 88 129q65 101 97 142q4 5 15 5q14 0 39 -2q23 -2 41 2q16 0 47 -10q0 -11 -10 -23q-32 10 -35 10q-14 0 -27 -25q-21 -40 -21 -200v-211q-1 -10 14 -10q17 0 46.5 8t39.5 17q1 -1 7 -4
q3 -3 2 -6zM348 543q0 5 1 14.5t1 14.5q-1 8 -6 11q-141 -195 -245 -370q82 20 122 12l104 -22h18q0 57 2.5 170t2.5 170z" />
    <glyph glyph-name="five" unicode="5" horiz-adv-x="461" 
d="M444 263q-9 -147 -91 -208q-73 -55 -225 -55q-24 0 -56 16q-37 18 -37 39q0 9 8 22.5t16 18.5q8 -1 11 -14q4 -17 6 -20q34 -40 88 -40q16 0 67 9q73 13 109 95q28 63 28 140q0 42 -15 79q-17 44 -48.5 62.5t-73.5 18.5q-39 0 -73 -16q-11 -7 -32 -19q-8 3 -8 11
q-6 62 -6 114q0 61 8 107q23 20 88 23l94 4q58 5 92 19q19 8 19 36q4 7 9 7q14 0 14 -26q0 -28 -17 -87q-3 -3 -24.5 -10t-27.5 -8q-16 -2 -97 -2q-58 0 -95 -9q-21 -5 -26 -38q-1 -7 -1 -46q0 -8 -2 -25t-2 -25q5 -3 17.5 4t13.5 7l68 11q89 0 146 -52q61 -55 55 -143z" />
    <glyph glyph-name="six" unicode="6" horiz-adv-x="477" 
d="M277 -2q-105 0 -178 97q-64 86 -73 197q-8 104 52 221q70 136 188 160q40 8 55 12q9 0 17 -3l4 4l8 -32q-5 -9 -8 -15q-34 5 -49 5q-28 0 -69 -19q-120 -56 -120 -241q0 -40 4 -105q5 -81 56 -177q22 -42 75 -67q31 -15 78 0q38 12 55 74q10 37 10 66q0 73 -32 118
q-37 53 -107 53q-28 0 -38 -17q-6 -9 -9 -41q-2 -15 -7 -20q-10 -1 -18 8t-8 19q0 46 39 73q34 24 82 23q71 -1 120.5 -49.5t49.5 -119.5q0 -89 -43 -152q-49 -72 -134 -72z" />
    <glyph glyph-name="seven" unicode="7" horiz-adv-x="461" 
d="M51 602l36 76l12 2l16 -16q66 -3 278 -8q2 0 7 2t8 2q28 3 35 3q3 0 6 -2l3 -2q-41 -98 -100 -263q-91 -255 -91 -327q0 -23 16.5 -39t16.5 -22q0 -5 -7 -12l-61 6q-4 0 -10.5 -1t-10.5 -1q-34 0 -34 24q0 16 24 70l26 58q3 11 86 224q67 172 67 205q0 12 -41 13
q-17 0 -51 1q-63 3 -88 3q-42 0 -67 -6q-50 -12 -84 -95q-6 1 -17 14z" />
    <glyph glyph-name="eight" unicode="8" horiz-adv-x="477" 
d="M461 203q-21 -215 -250 -203q-74 4 -134 64.5t-60 134.5q0 98 96 164q3 2 23 9q15 5 16 12q-86 48 -86 128q0 38 22.5 74.5t56.5 51.5q11 5 53 23q37 4 49 4q22 0 82 -24q38 -15 56 -58q16 -37 12 -81q-8 -85 -77 -120q7 -8 33.5 -19t34.5 -18q32 -29 41 -39
q38 -43 32 -103zM351 529q0 50 -30 78.5t-80 28.5q-48 0 -78.5 -27t-30.5 -75q0 -51 48 -87q4 -4 17 -12q45 -26 59 -26h22q36 0 57 44q16 35 16 76zM402 199q0 53 -61 93q-6 4 -105 53q-10 5 -24 5q-9 0 -44 -7q-4 -2 -13 -4q-48 -6 -70 -61q-17 -41 -17 -98q0 -27 16 -68
q12 -31 54 -58t76 -27h66q21 0 69 30q36 23 47 63q6 22 6 79z" />
    <glyph glyph-name="nine" unicode="9" horiz-adv-x="445" 
d="M148 352q43 -26 65 -26q32 0 71 40q17 -10 17 -15q0 -20 -28 -43q-23 -19 -47 -28q-8 -2 -39 -2q-75 0 -123.5 54t-48.5 129q0 88 55.5 141t143.5 53q107 0 168 -90q50 -74 50 -175q0 -66 -36 -155.5t-82 -134.5q-16 -16 -57 -56q-44 -42 -54 -44q-6 -1 -17 5q-2 1 -7 6
q7 12 29 30q32 26 35 28q94 92 108 255q2 23 2 43q0 153 -82 216q-43 33 -91 33q-69 0 -95 -50q-11 -20 -15 -68q-9 -93 78 -146z" />
    <glyph glyph-name="colon" unicode=":" horiz-adv-x="193" 
d="M142 324q0 -19 -12.5 -34.5t-31.5 -15.5t-31 16t-12 35q0 20 12 36.5t31 16.5q20 0 32 -16.5t12 -37.5zM142 40q0 -19 -12.5 -34t-31.5 -15t-31 15.5t-12 34.5q0 21 11.5 37t31.5 16t32 -16.5t12 -37.5z" />
    <glyph glyph-name="semicolon" unicode=";" horiz-adv-x="193" 
d="M144 324q0 -19 -13 -34t-31 -15q-19 0 -31 15.5t-12 34.5q0 21 11.5 37t31.5 16q19 0 31.5 -17t12.5 -37zM149 20q0 -82 -94 -154l-5 8q55 63 55 94q0 9 -25 33t-25 49q0 20 11.5 35.5t30.5 15.5q27 0 41 -28q11 -22 11 -53z" />
    <glyph glyph-name="less" unicode="&#x3c;" horiz-adv-x="451" 
d="M413 38l-393 182v39l393 182v-37l-358 -164l358 -164v-38z" />
    <glyph glyph-name="equal" unicode="=" horiz-adv-x="343" 
d="M321 289l-295 -32v44l295 32v-44zM321 161l-295 -32v43l295 32v-43z" />
    <glyph glyph-name="greater" unicode="&#x3e;" horiz-adv-x="451" 
d="M413 220l-393 -182v38l357 164l-357 164v37l393 -182v-39z" />
    <glyph glyph-name="question" unicode="?" horiz-adv-x="331" 
d="M326 490q0 -81 -57 -126q-43 -34 -132 -53l66 -176h-83v17q0 130 -51 186v6l8 17q16 -14 38 -14q57 0 97 55q37 50 37 109q0 51 -21 87q-25 45 -72 45q-61 0 -95 -77q-16 -12 -29 -14q-28 10 -28 32q0 80 147 80q34 0 81.5 -22.5t67.5 -49.5q26 -34 26 -102zM200 42
q0 -20 -13 -36t-33 -16q-19 0 -31.5 16.5t-12.5 36.5q0 21 12 37.5t32 16.5t33 -17t13 -38z" />
    <glyph glyph-name="at" unicode="@" horiz-adv-x="625" 
d="M460 135q-55 0 -99 57q-35 -52 -80 -46t-72 45q-25 35 -25 82q0 36 18 71q21 42 53 46q23 3 30 3q34 0 63 -29v32h55v-153q0 -64 52 -64q40 0 65 36q23 32 23 73q0 95 -70.5 165t-165.5 70q-50 0 -118 -31q-52 -24 -87 -92q-33 -63 -33 -125q0 -128 105 -208
q62 -47 82 -50l-2 -13q-97 17 -163 79q-73 67 -73 161t30 167q37 91 112 120q92 36 157 36q119 0 193.5 -81.5t74.5 -201.5q0 -56 -34 -101q-37 -48 -91 -48zM285 368q-42 0 -42 -93q0 -105 41 -105q68 0 68 103q0 95 -67 95z" />
    <glyph glyph-name="A" unicode="A" horiz-adv-x="693" 
d="M684 19q0 -3 -7.5 -12t-10.5 -9q-4 0 -12.5 3t-12.5 3l-81 10l-96 -14q-4 -1 -29 10q0 21 14 21q3 0 9 -2t9 -2q51 0 44 49q-6 38 -10 50q-11 30 -35 30l-167 2q-82 1 -122 -17q-7 -3 -19.5 -40t-12.5 -49q0 -25 23 -25q3 0 10.5 2t11.5 2q11 0 19 -12v-12q-10 -7 -42 -7
q-43 0 -46 8l-53 -4q-22 -8 -39 -8q-11 0 -20 18q3 16 21 16q26 1 35 6q27 16 56 74q2 4 40 89q29 63 98 231q121 314 132 314q12 0 25 -51q4 -20 18 -72q56 -191 115 -413q15 -57 32 -107q25 -74 67 -71l19 -2q10 -2 17 -9zM473 211q0 7 -49 175l-56 191q-3 10 -12 9
l-160 -385q28 -10 39 -10h208q30 0 30 20z" />
    <glyph glyph-name="B" unicode="B" horiz-adv-x="640" 
d="M634 203q0 -111 -101 -166q-76 -41 -181 -41q-15 0 -30 1l-31 2l-108 12l-125 -12q-11 0 -33 4q0 1 -2 3.5t-2 5.5q0 18 21 18q3 0 9.5 -1.5t9.5 -1.5q62 0 62 77q0 6 -1 220l-1 214q0 78 -4 92q-12 46 -60 46q-4 0 -11 -1t-11 -1q-5 0 -16 12q-6 21 52 21l141 -15
q85 14 145 14q28 0 59 -15q76 -37 101 -77q21 -34 21 -69q0 -45 -27.5 -88t-67.5 -66q73 -12 129 -63q62 -55 62 -125zM454 527q0 48 -3 57q-14 44 -51 69t-84 25h-15h-22q-31 1 -54.5 -23.5t-23.5 -55.5v-184q0 -10 34 -16q28 -5 42 -5h71q46 0 77 45q29 41 29 88zM545 210
q2 56 -39.5 100t-97.5 48q-131 9 -169 7q-43 -2 -43 -39v-235q0 -21 21 -40.5t42 -20.5q65 -4 86 -4q99 0 147.5 43t52.5 141z" />
    <glyph glyph-name="C" unicode="C" horiz-adv-x="672" 
d="M663 571l-41 -107q-2 -6 -14 -18t-17 -12q-9 0 -17 12l13 22q12 21 12 35q0 144 -186 182h-55q-148 0 -216 -192q-27 -76 -27 -160q0 -211 161 -287q63 -30 130 -30q33 0 48 8q57 9 105 55.5t51 102.5l4 17q18 4 33 -32q12 -29 12 -46q0 -10 -51 -48q-112 -83 -222 -83
q-61 0 -127 25q-107 40 -172.5 136.5t-65.5 210.5q0 116 85 223q90 111 203 117q31 10 54 9q7 0 89 -10q43 0 124 -45q87 -48 87 -85z" />
    <glyph glyph-name="D" unicode="D" horiz-adv-x="731" 
d="M720 402q6 -244 -165 -352q-87 -55 -199 -60q-22 -1 -100 9q-36 6 -72 11q-43 7 -72 6q-7 0 -44 -6l-58 -9q-9 0 -19 9q2 18 22 20h32q39 14 50 47q4 13 5 68q0 20 4 35q-3 59 0 175q3 120 3 175q0 -17 -2.5 24t-2.5 46q0 70 -76 70q-2 0 -9 -2.5t-11 -2.5q-19 0 -19 18
q0 15 26 18h28l82 -16q19 0 28 -2q79 21 157 21q178 0 310 -102q34 -27 67.5 -92t34.5 -108zM642 360q4 84 -34 164q-19 40 -61 79t-81 50q-92 25 -126 25q-91 0 -119.5 -30t-31.5 -122l-13 -364q-2 -55 17 -93q24 -48 74 -50q5 0 59 -4q28 -2 47 -2q64 0 133 43
q124 78 136 304z" />
    <glyph glyph-name="E" unicode="E" horiz-adv-x="655" 
d="M640 155q-10 -12 -37 -83l-5 -37q-3 -20 -12 -32q-18 0 -48 -3q-167 3 -208 2q-34 -1 -79 6q-58 9 -77 10l-102 -18q-51 0 -51 20q0 6 9 11t16 5t21.5 -3.5t21.5 -3.5q16 0 32 33q14 28 14 37q0 500 -6 524q-17 65 -70 61l-26 -2q-9 -1 -20 7q-2 1 -5 5q0 -2 3 10
q8 11 30 11l165 -16l373 16q-2 0 15 -3q6 -4 13 -17q-2 -21 -1 -41q0 -15 5.5 -45t5.5 -27q0 -16 -7 -31q-11 -1 -19 10q4 45 -41 69q-40 14 -79 29q-44 10 -164 23q-16 -2 -57 -10.5t-41 -33.5v-175q0 -40 8 -47t50 -7h82q28 0 42 21q0 4 2 10q1 5 0 9q-1 5 -7 11
q-1 6 10 19q23 2 29 -31l4 -53q25 -77 25 -86q0 -6 -4 -16q-1 0 -4.5 -1t-5.5 -1q-3 0 -8.5 2.5t-6.5 2.5q-4 2 -5 25q-1 28 -24.5 43t-53.5 16l-90 2q-45 1 -46 -21q-4 -56 -9 -169q-3 -128 41 -150q16 -8 32 -8t58 -1q36 -1 64 0q38 1 58 5q94 18 149 101q4 5 13 29
q4 11 18 12q14 -20 10 -25z" />
    <glyph glyph-name="F" unicode="F" horiz-adv-x="617" 
d="M608 602q0 -38 -8 -46q-4 0 -19 -3q-7 7 -7 14q0 4 2 7q-12 50 -47 69q-38 11 -75 23l-96 18q-22 -1 -77 -5q-61 -7 -61 -53v-210q2 -16 20 -16h120q9 0 23.5 12.5t14.5 21.5q0 5 -4.5 16.5t-4.5 16.5q0 13 15 13q2 0 5 -1q14 -9 17 -22q0 -28 6 -62q2 -11 22 -54
q13 -28 15 -36q0 -6 -6.5 -13.5t-12.5 -7.5q-7 0 -18 12q-1 15 -6 33q-22 34 -43 37q-51 7 -120 7q-32 0 -38 -15q-3 -31 -7 -110q-2 -40 -7 -143q-1 -21 4 -43q9 -35 34 -35q3 0 10.5 3t10.5 3q19 0 19 -20q0 -6 -7 -13h-45q-9 3 -29 10q-14 3 -30 8q-10 -5 -41 -13
q-20 -5 -62 -5q-4 0 -20 8q-2 3 -6 16q8 7 14 7q3 0 9.5 -2t9.5 -2q21 0 30 11q30 38 30 104l1 401q0 18 -6 61q-7 51 -15 54q-13 10 -38 22l-52 6q-23 -3 -23 12q0 13 19 14l70 2q38 -10 58 -10h13q28 -1 31 -1h45q24 0 122 3q33 1 106 3q22 2 85 5l26 1q24 -105 24 -113z
" />
    <glyph glyph-name="G" unicode="G" horiz-adv-x="697" 
d="M700 346q0 -1 -1.5 -5.5t-1.5 -6.5q-5 -2 -19 0q-6 1 -16 2q-21 0 -33 -18q-5 -7 -6 -45q-1 -29 0 -72l1 -49q2 -74 -82 -123q-67 -39 -136 -39q-27 0 -72 7q-49 7 -69 16q-49 21 -60 27q-41 21 -53 35q-62 41 -103 125q-40 81 -40 158q0 212 171 305q109 59 232 55
q29 -1 85 -14.5t49 -13.5q118 -70 118 -95q0 -9 -23 -70l-30 -80q-9 -5 -15 -5q-16 0 -16 12q2 3 13 25q5 16 5 43q0 113 -119 147q-4 1 -29.5 10.5t-28.5 9.5q-9 0 -27.5 2t-27.5 2q-76 0 -144 -45q-31 -21 -57 -58q-3 -4 -42 -70q-37 -132 -35 -192q4 -101 57 -182
q58 -88 152 -109q84 -19 109 -19q80 0 114 52q27 42 27 126q0 69 -5 89q-14 57 -69 57q-6 0 -18.5 -2t-18.5 -2q-4 0 -16 9q3 15 18 19q24 6 25 7l116 -18l63 14q30 -6 31 -6q19 -5 27 -15z" />
    <glyph glyph-name="H" unicode="H" horiz-adv-x="697" 
d="M689 22q0 -2 -1 -5.5t-1 -4.5q-28 -10 -26 -10q-49 0 -82 11l-71 -13h-41q-8 0 -18 14q-1 5 5 10t11 5t14 -1t14 -1q42 0 41 110l-1 199q0 32 -15 44q-14 9 -47 9l-206 -2q-39 0 -46 -3q-24 -9 -24 -46v-264q0 -47 40 -47q3 0 11.5 3t11.5 3q10 0 17 -7q0 -7 -1 -12
l-1 -5q-25 -10 -37 -9l-123 7q-4 0 -15 -3.5t-16 -3.5q-4 0 -11.5 1t-11 1t-17 5t-14.5 7v12q6 7 20 7q3 0 9.5 -1t9.5 -1q25 0 33 12q3 3 15 36l2 524q0 5 -9 40t-10 36q-5 3 -31 3q-3 0 -10 -3.5t-10 -3.5q-26 8 -23 24q13 14 31 14q9 0 28.5 -3.5t29.5 -3.5l126 4
q11 0 36 -9l2 -5q1 -5 1 -12q-8 -7 -17 -7q-4 0 -11.5 1.5t-11.5 1.5q-20 0 -30 -26q-2 -7 -11 -44q0 -100 3 -162q5 -8 12 -22q142 -2 287 -2q14 0 24 10t10 24q0 109 -2 140q-3 49 -14 62q-15 19 -63 20q-6 1 -15 10q5 23 17 23l27 1l100 -10q51 -5 59 9q46 -4 46 -21
q0 -14 -21 -14q-4 0 -12 2t-12 2q-15 0 -26 -26q-8 -19 -8 -33l1 -487q0 -46 2 -59q7 -44 35 -44q3 0 9.5 2.5t9.5 2.5q8 0 23 -16z" />
    <glyph glyph-name="I" unicode="I" horiz-adv-x="310" 
d="M280 690q1 -6 -5 -13.5t-12 -7.5q-5 0 -14.5 2t-14.5 2q-23 0 -25 -23q-7 -89 -7 -113l3 -387q-1 -9 -1 -25q0 -96 40 -96q3 0 8 1t8 1q19 0 19 -10v-16l-22 -6l-92 10q-13 1 -35 -2q-27 -3 -36 -3q-3 0 -9 -2t-9 -2q-10 0 -24 6l-1 14q9 9 21 9q2 0 6 -1t6 -1
q32 0 42 54q5 78 5 264q0 -14 -9 274q-7 52 -38 52q-3 0 -10 -1t-10 -1q-16 0 -18 12q-1 6 6 12.5t13 6.5l114 -11q7 0 23.5 5.5t23.5 5.5q40 0 54 -10z" />
    <glyph glyph-name="J" unicode="J" horiz-adv-x="553" 
d="M530 677q-10 -12 -19 -11q-30 3 -36 3q-19 -2 -26 -20q-1 -12 -5 -37v-161q0 -127 -4 -173q-19 -225 -145 -268q-47 -16 -85 -16q-98 0 -173 109q-17 25 -17 34q0 10 13 17l21 10q23 27 66 72q6 6 22 6q9 0 18 -7v-13q-43 -23 -54 -44q-8 -15 -8 -51q0 -46 33 -78t79 -32
h12q37 0 72 23t49.5 56t18.5 139q9 246 9 345q0 82 -15 90q-10 5 -42 5q7 0 -22 -4q-8 7 -8 15q0 19 25 18l97 -3q10 0 36 -2q23 -2 36 -2q5 0 15.5 2.5t15.5 2.5q4 0 17 -14q8 -11 8 -13v0q-2 0 -4 2z" />
    <glyph glyph-name="K" unicode="K" horiz-adv-x="644" 
d="M627 680q-10 -10 -16 -9l-43 9q-41 -4 -61.5 -16.5t-128.5 -122.5q-69 -70 -71 -101q-1 -12 20 -53q10 -19 35 -70q3 -8 12 -30q1 -2 41 -91q26 -58 48 -85q15 -22 29 -44q21 -27 40 -31q4 -1 22 -7q15 -5 20 -5q3 0 10 3.5t10 3.5q4 -2 24 -11q2 -9 -14 -22h-4
q-20 0 -58 -5l-54 11q-12 -6 -18 -6h-20q-7 0 -9 1q-5 2 -11 8q-53 102 -117 245q-16 36 -60 111q-8 10 -21 10q3 0 -17 -5q-44 -49 -39 -190l4 -95q0 -59 26 -59q3 0 10.5 2.5t10.5 2.5t6 -1q8 -6 11 -23q-12 -7 -28 -7q-31 5 -85 11q-32 3 -46 1q-9 -4 -28 -10
q-23 -4 -28 0q-3 2 -8 10l-1 5l-2 9q7 7 16 7q2 0 6.5 -1t6.5 -1q16 0 40 9q10 12 12 23q14 91 16 523q0 41 -6 58q-4 11 -18 32q-5 4 -34 10q-6 0 -16 -1q-9 -1 -10 5q-5 18 18 24q2 1 22 -6q19 0 44 -4l44 -7q6 2 42 2q7 0 22 3.5t22 3.5t17 -9v-15q-1 0 -7 -4.5t-9 -4.5
t-8.5 1t-8.5 1q-30 0 -40 -37v-236q13 -10 14 -11l134 137q121 124 121 138q0 18 -22 18q-10 0 -15 -2q-7 7 -12 17q5 4 5 9q11 4 20 4q10 0 16 -5q63 -7 51 -7q5 0 16.5 2.5t16.5 2.5q26 1 69 1q8 0 24 -11v-13z" />
    <glyph glyph-name="L" unicode="L" horiz-adv-x="593" 
d="M597 158q0 11 -3 11q-6 0 -26 -63q-30 -91 -28 -106q-3 -3 -10 -4q-4 0 -11.5 1t-11.5 1q-19 0 -38 -1q-12 -1 -37 0l-112 3q-39 0 -150 1l-81 1l-39 -3q-8 -1 -17 8q-5 4 -6 18q7 7 13 7q5 0 17 -3.5t17 -3.5q7 0 26 20q10 10 16 59l2 465q0 74 -24 98q-28 10 -53 8
q-9 -1 -13 10q-3 8 4.5 15t16.5 7q20 -2 15 -2q8 0 27.5 -4.5t25.5 -4.5l115 9q19 1 34 -5q4 -1 14 -13q0 -2 -1 -6q-5 -9 -14 -9q-3 0 -8 2t-8 2q-33 0 -48 -17q-6 -43 -7 -138q0 -50 -2 -227q-1 -131 2 -225q3 -8 7 -24q15 -22 68 -23q20 0 72 -1q56 -2 131 36
q30 15 89 106q3 7 6.5 16t8.5 9q21 0 21 -30z" />
    <glyph glyph-name="M" unicode="M" horiz-adv-x="852" 
d="M824 12q-15 -12 -27 -12q-5 0 -56 9q-8 1 -40 7l-82 -12q-4 3 -21 7q-9 2 -9 12q0 4 5 10.5t8 6.5q4 0 11 -1t11 -1h17q14 4 26 54l-1 502q-11 18 -14 18q-4 0 -7 -7q-40 -99 -211 -478q-3 -7 -3 -25q-1 -8 -5 -13q-8 0 -12 5q-29 78 -119 268q-94 199 -127 245
q-3 -4 -3 -8l-11 -411q-3 -115 13 -137q13 -17 38 -15l23 2l13 -7q1 -1 6 -12q-7 -15 -16 -15l-107 3q-11 0 -33 -3.5t-32 -3.5q-32 0 -32 21q0 13 18 15q4 0 25 2q44 10 49 32q7 34 9 96l8 262q3 91 -4 168q1 4 2 38q1 29 -30 48q-3 1 -7 1q-3 0 -11.5 -2t-12.5 -1
q-6 0 -36 12l-1 14q12 9 25 9q6 0 20.5 -3.5t22.5 -2.5q12 0 35 5.5t35 5.5q13 0 19 -6q22 -22 168 -339q18 -40 72 -155h12q27 43 100 217l26 61q41 98 90 210q3 7 14 7l86 -9q5 0 16 2.5t16 2.5q11 0 19 -12q1 -1 4 -5q-3 -6 -12 -19q-27 9 -33 9q-9 0 -20 -10t-11 -19
q0 -401 5 -578q8 -39 31 -42q-6 1 25 1q-3 0 14 -4q2 -1 9 -8v-12z" />
    <glyph glyph-name="N" unicode="N" horiz-adv-x="600" 
d="M597 702q-1 -3 -7 -6h-43q-10 0 -19 -16.5t-9 -27.5l3 -484q0 -15 5 -111q0 -5 4 -15.5t4 -14.5l7 -25q-11 -7 -18 -7q-11 0 -46 55q-8 15 -40 70t-120 218q-20 42 -61 125q-39 79 -67 122q-9 14 -23 12q-3 -77 -6 -200l-7 -313q0 -14 6 -31q8 -21 19 -21q39 0 50 -14
q1 -18 -21 -19l-67 5l-82 -1q-13 0 -24 9q0 4 1 8l1 4q32 4 53 10q24 21 29 60q0 95 8 239q14 229 14 239q2 51 -4 71q-8 26 -48 44q-13 0 -44 5q-1 3 -5 14q9 9 24 12l77 -10h53q37 -49 65 -103l152 -290q56 -107 80 -129q4 1 7 28l-4 357q0 27 -8 91q-3 25 -33 32l-45 6
q0 16 8 18q14 4 52 4q6 0 18.5 -3t18.5 -3q7 0 20 3t20 3q49 1 52 -20z" />
    <glyph glyph-name="O" unicode="O" horiz-adv-x="757" 
d="M749 335q-7 -99 -66 -187q-63 -96 -152 -123q-63 -26 -78 -26l-66 -7q-116 0 -210 62q-99 66 -130 174q-24 82 -24 115q0 132 68 228q70 101 195 135q52 14 67 16q9 1 70 1q80 0 188 -79q75 -55 113 -156q30 -81 25 -153zM665 349q0 132 -43 217q-55 108 -173 124
q-37 5 -67 5q-291 0 -281 -391q6 -209 149 -260q81 -29 137 -26q152 8 218 96q60 78 60 235z" />
    <glyph glyph-name="P" unicode="P" horiz-adv-x="517" 
d="M520 524q0 -114 -120 -155q-38 -13 -107 -13h-109q-1 -99 -4 -215q1 -17 7 -60q8 -50 46 -50q4 0 11.5 1t11.5 1q4 -2 16 -11q4 -16 -14 -22l-103 18l-96 -9q-2 0 -11 -4.5t-12 -4.5q-7 0 -13.5 7t-6.5 14q0 15 13 15q2 0 7 -1.5t7 -1.5q40 0 55 21q11 15 16 60l-5 389
q1 33 0 117q-2 80 -61 80q-6 0 -16.5 -3.5t-16.5 -3.5q-19 0 -19 15q0 6 9.5 12t16.5 6t19 -3t18 -3l99 -6l137 6q225 10 225 -196zM449 530q0 85 -58 129q-54 42 -140 38q-57 -2 -61 -18q0 -14 -3 -32l-4 -24v-225q4 -4 4 -9l69 -9q193 4 193 150z" />
    <glyph glyph-name="Q" unicode="Q" horiz-adv-x="760" 
d="M745 393q0 -135 -47 -216.5t-164 -153.5q11 -17 62 -17q10 0 14 2q32 16 42 23q22 15 32 36q3 8 12 27h19q8 -7 8 -13q0 -17 -33 -53q-16 -17 -46 -53l-16 -24q-13 -16 -20 -16q-11 0 -28 20q-13 12 -44 36q-13 8 -38 18q-20 0 -59.5 -8.5t-59.5 -8.5q-54 0 -100 21
q-111 51 -180 126q-83 91 -83 198q0 271 210 358q77 32 128 32q39 0 74 -5q105 -15 211 -100q37 -29 71.5 -105t34.5 -124zM660 329q0 257 -125 329q-75 43 -160 43q-164 0 -227 -139q-13 -29 -48 -155q0 -87 6 -124q8 -48 35 -115q8 -20 37 -52q34 -38 59 -44l82 24
q38 3 79 -11q12 -4 74 -32q38 -17 32 -17q22 8 51.5 32t41.5 45q24 42 43.5 106.5t19.5 109.5zM460 29q-17 11 -51 31q-15 7 -45 11q-15 2 -27 2t-20 -2q-43 -11 -41 -27q64 -25 65 -26q8 -2 52 -2q55 0 67 13z" />
    <glyph glyph-name="R" unicode="R" horiz-adv-x="775" 
d="M764 26q0 -27 -46 -30l-82 14q-10 0 -18 -2q-4 0 -15 -4.5t-15 -4.5q-5 0 -15 2t-15 2q-19 18 -95 144l-98 164q-12 20 -33 40q-28 5 -46 4q-58 -3 -86 -3q0 -8 -5 -118q-3 -68 -2 -119q2 -86 46 -85q4 0 12.5 3.5t12.5 3.5q6 0 17 -11q230 -10 315 -16l-6 -6
q-90 1 -306 8q-10 -12 -28 -13q-3 2 -11 2l-93 9l-102 -10q-3 0 -16 3q-4 5 -12 13q6 19 16 20l27 -4q43 8 52 53q2 21 4 74l5 318l-8 141q-2 28 -11 53q-7 13 -25 13h-42q-3 0 -4.5 -2t-4.5 -2q-5 0 -12 7.5t-7 12.5q0 17 19 18l139 -8l202 10q9 0 27 -4q59 -15 97 -62.5
t39 -107.5q0 -40 -16 -79q-17 -42 -47 -65q-3 -3 -21 -14q-12 -7 -16 -17l26 -66q1 -3 37 -62q21 -35 77 -123t133 -88q13 3 46 12q10 -9 10 -18zM466 541q-1 77 -63 119q-54 37 -135 35q-6 0 -35 -4q-19 -17 -29 -22l-5 -251q-1 -43 44 -43h38q60 -1 52 -1q56 0 97 56
q37 52 36 111z" />
    <glyph glyph-name="S" unicode="S" horiz-adv-x="521" 
d="M493 146l-47 -73q-30 -39 -64 -56q-57 -28 -124 -28q-56 0 -116 16l-109 29q-6 8 -6 18q0 7 2 28q2 17 1 27q-6 22 -9 59q-2 19 5 43q9 32 24 32q3 -1 9 -2q0 -5 1 -30l1 -48q0 -23 25.5 -58.5t46.5 -45.5q41 -28 76 -36q24 -6 81 -5q46 0 94.5 57t46.5 103
q-3 84 -58 132q-37 33 -129.5 74.5t-130.5 75.5q-13 12 -25.5 39.5t-12.5 45.5q-2 83 56.5 137.5t141.5 50.5q38 -2 114 -33q97 -40 98 -79q0 -13 -33.5 -73.5t-45.5 -71.5q-4 -2 -13 -3q-3 1 -16 7q2 10 23 42q11 23 11 50q-1 60 -42 96.5t-102 36.5q-76 0 -104 -55
q-19 -38 -19 -70q1 -63 110 -121q34 -18 121 -64q64 -34 92 -76q30 -45 30 -115q0 -26 -4 -56z" />
    <glyph glyph-name="T" unicode="T" horiz-adv-x="684" 
d="M661 571q0 -18 -5 -30h-19q-5 43 -47 88.5t-84 48.5l-64 4q-37 0 -38 -16q-8 -112 -7 -281l2 -281q1 -74 47 -75q3 0 8.5 2t8.5 2q7 0 21 -14v-14q-15 -5 -28 -5l-96 16q-6 -3 -22 -3l-81 -9q-19 0 -24 8q0 12 2 19h25q37 0 48 40q2 8 5 59q6 107 6 263v262q0 21 -17 26
q-7 2 -26 2q-67 -1 -101 -14q-45 -18 -89 -73q-20 -25 -21 -53q-3 -4 -16 -7q-10 6 -10 21q0 11 19 74q24 80 50 87q2 1 9.5 -2t9.5 -3q79 -6 143 -7q37 -1 145 0l143 1l12 4q9 3 34 3q22 0 25 -10q32 -122 32 -133z" />
    <glyph glyph-name="U" unicode="U" horiz-adv-x="722" 
d="M723 77q-9 -33 -87 -53q-41 -26 -47 -26q-28 0 -33 40q-4 30 -4 52v87q0 41 -8 79q-9 -27 -38 -82q-63 -89 -91 -116q-60 -58 -131 -58q-136 0 -136 210q0 10 1 30.5t1 30.5v312q0 97 -74 97q-5 0 -14.5 -3t-13.5 -3q-18 0 -18 14q0 5 9 19l29 2q14 1 45.5 -5t45.5 -6
q45 0 61 5q15 -8 14 -19q-4 -73 -4 -441q0 -26 -1 -79q-1 -72 28 -107q19 -23 40 -23q4 0 12.5 -2.5t12.5 -2.5q22 0 56 24q31 21 47 43q129 170 129 461q0 93 -26 120q-11 6 -30 6q-3 0 -10.5 -2.5t-10.5 -2.5q-20 0 -20 18q0 8 16 18l88 -14q11 1 44 8q28 6 44 6
q32 0 32 -20q0 -5 -5.5 -10.5t-10.5 -5.5q-4 0 -13.5 2.5t-13.5 2.5q-14 0 -31 -6q-20 -7 -20 -93v-405q0 -112 55 -114q14 4 38 7q23 20 25 20q4 0 18 -15z" />
    <glyph glyph-name="V" unicode="V" horiz-adv-x="665" 
d="M640 679q0 -4 -8.5 -11.5t-12.5 -7.5q-3 0 -10 2.5t-10 2.5q-40 0 -64 -46q-12 -23 -31 -89q-21 -81 -65 -242q-18 -62 -67 -244q-10 -39 -15 -43q-15 1 -25 29q-4 13 -15 45q-71 188 -134 379q-12 41 -46 145q-26 78 -65 79q-4 0 -11.5 -1t-11.5 -1q-13 0 -24 7v19
q4 7 23 7q2 0 20 -3t19 -2q9 0 56 -8l86 7q25 2 34 -26q-6 -8 -15 -8q-4 0 -13 3.5t-13 3.5q-19 0 -19 -20l73 -228q76 -232 93 -263q7 -1 11 10q37 139 114 417q-1 2 -1 11q0 11 1 29q-3 12 -15 19q-18 10 -20 12q-11 -8 -21 -5q-23 8 -17 33q27 9 33 9q2 -1 23 -8
q17 -1 48 -7l73 11l22 -2q20 -4 20 -15z" />
    <glyph glyph-name="W" unicode="W" horiz-adv-x="895" 
d="M893 681q-6 -7 -16 -7q-2 0 -7 1t-7 1q-54 0 -89 -82q-19 -44 -36 -114l-29 -117q-30 -101 -108 -366q-15 -3 -21 13q-49 225 -114 513q-3 14 -13 13l-116 -542l-8 3q-8 3 -11 3q-23 51 -48 154l-38 158q-22 92 -46 183q-33 127 -57 156q-12 14 -40 14q-4 0 -12.5 -1.5
t-12.5 -1.5q-5 0 -8 1q-1 7 -5 21q5 12 14 12l104 -5q4 0 12 -2t12 -2l88 13q9 -1 19 -2q13 -4 15 -21q-7 -8 -16 -8q-3 0 -10.5 2.5t-10.5 2.5q-40 0 -40 -31q0 -34 48 -222q46 -179 62 -223q3 0 4 2l117 551q4 19 18 37q8 6 16 6q11 0 14 -10v-12q-16 0 -17 -23
q-2 -38 51 -267q48 -207 71 -284q8 0 10 4q24 76 60 206q52 188 52 221q0 15 -7 30q-9 19 -22 19q-6 0 -18.5 -3.5t-18.5 -3.5q-20 0 -20 17q0 15 20 15l116 -12q3 0 10 1.5t10 1.5q7 7 13 8q22 3 43 3q3 0 9 -3q9 -6 14 -21z" />
    <glyph glyph-name="X" unicode="X" horiz-adv-x="717" 
d="M681 18q-1 -17 -31 -17l-57 7q-7 0 -21 -1t-20.5 -1t-73.5 -12q-12 0 -30 6q-12 9 -11 20q8 8 15 8q6 0 17.5 -2.5t17.5 -2.5q26 0 26 18q0 3 -3 8l-82 129q-57 90 -90 125q-29 -42 -83.5 -127t-56.5 -113q-1 -9 10.5 -20t20.5 -11q4 0 11.5 1t11.5 1q7 0 14 -5t6 -11
q-1 -21 -24 -19l-120 9l-70 -12l-12 6q-10 5 -9 13q0 5 6 15h14q14 -1 27 -1q23 0 40.5 7t96.5 134q47 75 98 155q-53 90 -113 190q-89 148 -111 163q-4 3 -19 3q-4 0 -12.5 -2.5t-12.5 -2.5q-16 0 -15 17t31 17l57 -7q7 0 22 1t22 1q4 0 71 11q12 0 30 -5l8 -8q4 -4 3 -13
q-8 -7 -15 -7q-6 0 -17.5 2.5t-17.5 2.5q-24 0 -24 -19q0 -42 158 -279h10l86 135q56 89 59 123q1 9 -10.5 20t-20.5 11q-4 0 -11.5 -1.5t-11.5 -1.5q-7 0 -14 5.5t-6 11.5q1 21 24 19l120 -9l70 11q6 -3 13 -5q9 -5 8 -14q0 -4 -5 -14h-42q-26 0 -39 -5q-21 -8 -107 -146
q-77 -124 -95 -163q33 -54 117 -180q94 -141 113 -154q4 -3 19 -3q4 0 12.5 2t12.5 2q16 0 15 -16z" />
    <glyph glyph-name="Y" unicode="Y" horiz-adv-x="662" 
d="M677 700q0 -4 -5 -14h-41q-27 0 -39 -5q-38 -15 -89 -157l-42 -117q-17 -40 -50 -119q-23 -59 -23 -127v-90q0 -36 45 -36q4 0 10.5 1t10.5 1q19 0 17 -15q-2 -8 -20.5 -15t-29.5 -7q-10 4 -34 10h-60q-17 -5 -48 -10q-6 -1 -22 -1q-24 0 -24 17q0 19 24 19q3 0 7.5 -2.5
t6.5 -2.5q18 0 31.5 15.5t12.5 33.5l-7 133q-1 11 -2 15q-56 123 -158 362q-3 4 -23 54q-10 25 -32 40q-4 3 -19 3q-4 0 -12 -2.5t-12 -2.5q-17 0 -17 17t30 17l58 -7q7 0 21.5 1t21.5 1q4 0 70 11q12 0 31 -5q13 -13 12 -21q-7 -7 -14 -7q-6 0 -18 2.5t-18 2.5
q-20 0 -21 -26q-1 -43 73 -205q66 -144 87 -172h10q29 64 65 140q9 18 41 106q38 103 38 117q0 8 -13 19.5t-21 11.5q-4 0 -11.5 -1.5t-11.5 -1.5q-7 0 -14 5.5t-7 11.5q0 21 23 19l120 -9l69 11q7 -3 14 -5q9 -5 9 -14z" />
    <glyph glyph-name="Z" unicode="Z" horiz-adv-x="618" 
d="M613 690q-18 -8 -41 -20q-37 -32 -60 -71q-44 -74 -111 -170q-28 -40 -75 -118q-50 -82 -75 -119q-84 -123 -84 -127q0 -7 6 -11l221 -21q12 -1 67 10q63 47 83 89q7 22 15 45q22 -3 22 -28q0 -24 -41 -131q-9 -24 -27 -23l-385 12q-13 0 -38.5 -4.5t-37.5 -4.5
q-5 0 -14.5 -2.5t-13.5 -2.5q-5 0 -12 7.5t-7 12.5q0 11 34 21q41 21 142 185q26 42 132 225l73 101q50 69 57 113q-13 10 -42 16l-159 6q-15 1 -67 -10q-20 -15 -46 -42q-31 -31 -37 -48l-16 -44q-22 3 -22 28q0 24 41 131q9 23 28 23l405 -10l58 3q3 0 8.5 -1.5t8.5 -1.5
q8 -4 10 -18z" />
    <glyph glyph-name="bracketleft" unicode="[" horiz-adv-x="187" 
d="M29 -109v736h115v-56h-61v-622h61v-58h-115z" />
    <glyph glyph-name="backslash" unicode="\" horiz-adv-x="413" 
d="M282 8l-262 608h66l262 -608h-66z" />
    <glyph glyph-name="bracketright" unicode="]" horiz-adv-x="187" 
d="M29 -109v58h60v622h-60v56h115v-736h-115z" />
    <glyph glyph-name="asciicircum" unicode="^" horiz-adv-x="383" 
d="M199 619l-115 -48l115 124l114 -124z" />
    <glyph glyph-name="underscore" unicode="_" horiz-adv-x="359" 
d="M-2 -170v61h382v-61h-382z" />
    <glyph glyph-name="grave" unicode="`" horiz-adv-x="345" 
d="M111 684q18 0 70 -70l69 -92q-6 6 -94 63q-71 46 -71 69q0 11 8 20.5t18 9.5z" />
    <glyph glyph-name="a" unicode="a" horiz-adv-x="465" 
d="M464 94q3 -23 -25.5 -58.5t-51.5 -35.5h-18q-42 0 -62 63l-18 81q-72 -143 -164 -143q-62 0 -96 56q-29 47 -29 112q0 83 45 153t121 109q33 17 96 17q30 0 83 -34q10 25 20.5 35t34.5 10q16 0 21 -10q-19 -18 -33 -37q-25 -34 -25 -118v-106q0 -26 12 -65q17 -55 41 -55
q11 0 25 13.5t23 12.5zM326 375q0 50 -70 50q-84 0 -132 -81q-38 -64 -38 -138q0 -42 12 -83q19 -65 63 -65q62 0 112 105q16 33 34.5 106t18.5 106z" />
    <glyph glyph-name="b" unicode="b" horiz-adv-x="474" 
d="M466 221q0 -61 -42 -135q-49 -87 -119 -87q-68 0 -130 73q-16 -77 -92 -77q-17 0 -50 9v13q60 13 63 83q5 116 0 390q-1 32 -8 104q-10 94 -41 94q-11 0 -17 -4q-9 -6 -12 -7q-1 0 -5 2.5t-5 2.5v14q3 6 33 21q5 -1 14 1t12 2q8 0 26.5 -6t26.5 -6q3 0 10.5 3.5t10.5 3.5
q32 0 28 -93q-2 -51 0 -115l4 -105q51 42 74 50q20 7 64 7q37 0 76 -35q79 -72 79 -203zM402 281q0 57 -24 100q-29 53 -82 53q-56 0 -91.5 -46t-33.5 -103l2 -65q6 -41 11 -83q13 -53 62 -68q4 0 12 -1t12 -1q66 0 104 87q28 64 28 127z" />
    <glyph glyph-name="c" unicode="c" horiz-adv-x="427" 
d="M409 341q0 -26 -21 -51.5t-46 -25.5q-22 0 -33 12q28 28 28 66q0 90 -108 90q-63 0 -101 -55q-34 -49 -34 -115q0 -22 5 -39q8 -49 37 -93q33 -52 75 -63q37 -10 59 -10q57 0 90 56h12q7 -6 5 -12q-37 -102 -152 -102q-83 0 -145 61.5t-62 144.5q0 112 61 181
q64 73 174 73q48 0 97 -29q59 -35 59 -89z" />
    <glyph glyph-name="d" unicode="d" horiz-adv-x="474" 
d="M476 25q0 -14 -31 -23q-24 -7 -43 -7q-26 0 -43 26q-16 23 -16 50q2 19 -1 53q-68 -85 -88 -102q-33 -27 -86 -25q-74 2 -116 59q-38 51 -38 128q0 99 65 179q70 85 167 83q25 -1 54.5 -16t43.5 -35l1 156q-1 19 -7.5 71.5t-40.5 52.5q-16 0 -33 -16q-4 2 -13 7
q6 35 59 35q13 0 67 -9q7 -1 22 9q20 -7 22 -9q8 -6 8 -20l-9 -94q-9 -91 1 -491q1 -57 31 -57q-4 0 17 5q7 -5 7 -10zM345 244q5 60 -12 106q-26 71 -97 71q-74 0 -113 -81q-29 -61 -29 -130q0 -63 26 -106q31 -52 91 -52q57 0 97 70q32 56 37 122z" />
    <glyph glyph-name="e" unicode="e" horiz-adv-x="405" 
d="M397 320q0 -39 -30 -84t-67 -55q-51 -14 -81 -14q-23 0 -50 7q-7 1 -15 11q0 5 10 15q30 -9 55 -9q98 0 98 114q0 56 -28 91.5t-83 35.5q-23 0 -53.5 -24t-36.5 -46q-16 -61 -16 -76q0 -6 6 -74q0 -35 24 -77.5t54 -61.5q74 -35 105 -35q36 0 67 32l18 -4q5 -14 -37 -48
q-41 -22 -85 -22q-32 0 -95 17q-57 29 -97 84q-43 59 -43 120q0 101 66 172.5t166 71.5q63 0 105.5 -39t42.5 -102z" />
    <glyph glyph-name="f" unicode="f" horiz-adv-x="291" 
d="M374 662l-20 -15q-6 8 -22 24q-31 23 -85 16q-37 -5 -56 -54q-14 -36 -14 -82v-86q7 -8 23 -15q3 -1 19.5 1t19.5 2q24 0 24 -17v-15q-10 -4 -13 -4q-5 0 -14.5 2t-14.5 2q-18 0 -33 -8q-9 -144 -11 -297q4 -33 7 -44q7 -23 24 -36t35 -10l26 8q8 -6 8 -14q0 -11 -18 -17
l-22 -4l-63 11l-57 -10q-20 4 -20 39q0 14 3 40.5t3 40.5v282q0 12 -10.5 20t-22.5 8q-4 0 -13 -2.5t-13 -2.5q-14 0 -14 13q0 7 12 18q20 0 59 2l13 97q21 156 154 162q69 3 106 -55z" />
    <glyph glyph-name="g" unicode="g" horiz-adv-x="524" 
d="M538 408l-20 -1q-15 17 -23 12q-5 -3 -18 -5q-8 -1 -17 -13q-8 -28 -10 -57q-1 -15 0 -53l1 -42l2 -143q2 -170 -107 -297l-50 -38q-21 -13 -60 -13q8 0 -16 3q-3 5 -7 14q25 6 84 32q54 52 65 122q4 34 16 123l-2 87q-2 2 -5 1q-41 -67 -43 -69q-53 -71 -152 -71
q-71 0 -107 42t-36 114q0 116 71 204q77 95 190 91q25 -1 76 -29q8 14 20 21q5 1 19 1q6 -1 45 -6l44 6q11 -3 23 -6q17 -6 17 -19v-11zM374 300q0 127 -103 127q-55 0 -105 -67q-25 -34 -42 -88.5t-17 -98.5q0 -49 22 -85q26 -42 72 -42h14q82 0 126 102q33 76 33 152z" />
    <glyph glyph-name="h" unicode="h" horiz-adv-x="569" 
d="M565 72q-10 -22 -60 -49.5t-74 -24.5t-32 7q-18 20 -17 55l3 192q-10 60 -14 73q-11 42 -34 65q-10 10 -36 10q-24 0 -61 -60q-33 -54 -43 -88q-27 -96 -31 -153q-2 -26 0 -48l2 -24q1 -11 -12 -27h-57q-10 0 -30 -4.5t-30 -4.5q-5 5 -5 11q0 5 26.5 17.5t26.5 25.5
l2 546q-11 87 -43 87q-14 0 -30 -16q-4 1 -13 7q8 30 58 30q12 0 23 -2q10 -2 28.5 1.5t25.5 3.5q20 0 28 -14q5 -11 3 -27q-3 -23 -3 -27q0 -321 4 -380q8 22 30 77q47 113 148 113q77 0 102 -102q11 -45 11 -132q0 -98 -1 -90q4 -73 24 -73q11 0 17 2l54 38q14 -5 10 -15z
" />
    <glyph glyph-name="i" unicode="i" horiz-adv-x="244" 
d="M166 648q0 -51 -52 -51q-20 0 -33 14t-13 34t14 36t34 16q17 0 33.5 -16t16.5 -33zM253 97q0 -7 -18.5 -31t-26 -30.5t-24.5 -20.5q-28 -21 -74 -21q-43 0 -41 28q4 58 6 252q2 154 -36 154q6 0 -28 -9q-5 6 -5 10q0 11 13.5 17.5t24.5 3.5l63 -8q18 4 28 4q31 0 29 -57
q0 -8 -7 -134q-7 -132 -7 -178q0 -6 8.5 -15t14.5 -9q8 0 24 4q7 5 36 53q19 -11 20 -13z" />
    <glyph glyph-name="j" unicode="j" horiz-adv-x="210" 
d="M179 660q0 -20 -16.5 -36.5t-36.5 -16.5q-19 0 -35 13t-16 32q0 22 13.5 38.5t35.5 16.5q20 0 37.5 -14t17.5 -33zM184 439l-7 -413q-2 -99 -54 -177q-60 -89 -155 -89q-22 0 -22 19q0 10 10 15q17 -12 23 -12q23 0 52.5 21.5t38.5 42.5q38 95 38 176q0 347 -14 385
q-3 7 -14 16t-19 9q-1 0 -13.5 -5.5t-21.5 -4.5l-2 17q23 17 39 17q3 0 12 -3.5t12 -3.5q11 0 32.5 4.5t32.5 4.5q9 0 32 -19z" />
    <glyph glyph-name="k" unicode="k" horiz-adv-x="549" 
d="M550 109q0 -46 -31.5 -77.5t-77.5 -33.5q-60 -2 -98 46q-24 30 -54 106q-19 47 -23 55q-10 18 -30 28q-41 -13 -49 -54q1 -57 1 -169q-11 -12 -22 -12q-4 0 -15.5 4.5t-16.5 4.5q-10 0 -30 -4.5t-30 -4.5q-5 0 -14.5 2.5t-14.5 2.5q-6 5 -14 16q-1 8 10 15q25 -7 27 -7
q19 0 38 28q2 34 7 102l-7 504q0 16 -13.5 25t-29.5 6q-4 -5 -20 -14l-10 10q14 23 15 25q7 8 17 8q5 0 16 -2q54 -10 60 -10t19 3t19 3q4 -5 4 -33q1 -111 6 -426q2 -3 13 -3l167 166q-1 3 -5 10.5t-4 9.5q0 19 29 19q4 0 13 -2.5t13 -2.5q7 0 19.5 2.5t19.5 2.5
q5 0 21 -10.5t18 -14.5q0 -8 -6 -14l-35 10l-9 -4q-23 -10 -50 -22q-15 -9 -44 -40q-45 -48 -45 -66q54 -68 75 -141l39 -81q4 -8 25 -21.5t29 -13.5q31 0 49 35q8 16 19 36q3 1 7 0z" />
    <glyph glyph-name="l" unicode="l" horiz-adv-x="244" 
d="M251 19q-4 -8 -25.5 -15.5t-32.5 -7.5t-36 6q-28 7 -39 8q-3 0 -12.5 -5t-11.5 -5q-5 0 -14 10q2 21 2 49q2 133 -3 290l-8 236q-2 51 -5 64q-10 38 -42 38q-2 0 -7 -3.5t-8 -3.5h-11q-5 5 -5 11q0 13 18 20q12 2 23 5l60 -12l41 5q27 0 25 -66q-4 -130 0 -513
q9 -66 10 -67q11 -38 45 -38q-3 0 24 9q6 -3 12 -15z" />
    <glyph glyph-name="m" unicode="m" horiz-adv-x="844" 
d="M851 79q-19 -28 -61 -54t-73 -26q-64 0 -64 113q0 13 1 30q1 16 0 19q-5 131 -5 208q0 44 -47 44q-55 1 -99 -121q-40 -110 -40 -208q0 -21 12 -39t32 -18q6 0 25 -1l3 -14q-1 0 -8.5 -5t-10.5 -5q-14 0 -43 5l-23 4q-33 0 -46 -9q-21 9 -21 22q0 2 1 6t1 5v54
q0 28 1.5 84t1.5 84q0 156 -36 156q-38 0 -87 -113q-46 -106 -46 -159v-66q0 -52 31 -52q2 0 5 1t5 1q9 0 17 -8q-2 -15 -34 -21q-30 15 -58 15q-17 0 -76 -13q-22 -5 -33 13q1 6 6 16l24 -4q27 0 31 31q3 24 3 40l-2 203l-7 66q-4 42 -49 64q-50 0 -78 -77q-15 4 -12 18
q8 42 39 66.5t74 24.5q85 0 107 -81q6 -53 13 -106q9 2 25 51q19 59 43 86q39 45 105 44q38 0 60 -62q17 -47 16 -95q4 1 13 15q17 53 55 93q42 44 93 49q102 10 102 -200v-19q-1 -29 -1 -24v-46q0 -10 1 -27v-19q7 -67 41 -65q21 1 49 40q5 0 15.5 -5.5t8.5 -8.5z" />
    <glyph glyph-name="n" unicode="n" horiz-adv-x="564" 
d="M560 84q0 -16 -35 -46q-29 -25 -40 -28q-33 -10 -48 -10q-64 0 -64 116v51q0 -29 2.5 43t2.5 91q1 63 0 65q-4 45 -31 45q-51 0 -99 -124q-41 -106 -40 -167q1 -14 2 -49q1 -42 35 -46q8 4 14 4q9 0 16 -7q-1 -16 -41 -22l-45 9q-35 0 -51 -3q-31 -6 -39 -6q-3 0 -11 2.5
t-11 2.5q-6 5 -6 10t8 12q3 0 7.5 -1t7.5 -1q28 0 35 70q1 10 1 79v105q0 65 -4 92q-11 73 -50 73q-34 0 -54 -32q-13 -27 -26 -53q-12 5 -12 16q0 7 8 22q10 19 11 24q7 25 39 41q28 14 57 14q54 0 82 -39q25 -34 25 -90l8 -76q17 54 47 104q54 91 118 91q60 0 75 -115
q4 -33 5 -168q0 -48 5 -79q2 -34 14.5 -37.5t21.5 -3.5q10 0 14 4q8 7 33 32q13 -6 13 -15z" />
    <glyph glyph-name="o" unicode="o" horiz-adv-x="486" 
d="M268 -3q-106 0 -177 67q-74 68 -73 173q1 96 62 163.5t156 71.5q97 5 168.5 -61t71.5 -163q0 -89 -59 -167q-63 -84 -149 -84zM234 445q-70 -1 -102 -84q-23 -59 -23 -144q0 -200 159 -200q76 0 105 102q19 66 15 161q-16 89 -37 119q-34 48 -117 46z" />
    <glyph glyph-name="p" unicode="p" horiz-adv-x="478" 
d="M467 240q1 -86 -52 -160q-58 -81 -141 -84q-38 -1 -122 33v-157q0 -32 9 -58q12 -36 38 -36q2 0 10 4.5t12 4.5q9 0 13 -19q-6 -6 -21 -14q-10 -3 -19 -3q-8 0 -22.5 3.5t-22.5 3.5t-22.5 -3.5t-22.5 -3.5q-28 0 -28 48q0 31 -1 40q4 72 4 161q0 29 -3 185q-2 105 -1 187
q-3 5 -7 5q-22 0 -46 -41q-3 -4 -5 -9q-6 -1 -16 -5q-10 10 -10 14q0 18 39 47q13 10 42 29q1 23 6 74l72 4l2 -52l78 4q88 5 162 -55t75 -147zM387 237q0 33 -17 89q-21 70 -122 86q-44 7 -54 7q-25 0 -43 -11l-1 -266q0 -56 16 -80q21 -31 74 -31q17 0 68 32q79 79 79 174
z" />
    <glyph glyph-name="q" unicode="q" horiz-adv-x="479" 
d="M484 -232q-7 -6 -21 -14q-10 -3 -19 -3q-8 0 -23 3.5t-23 3.5q-7 0 -22 -3.5t-22 -3.5q-16 0 -23 10q-6 15 -6 84q0 -1 3 111l2 75l-2 -1q-72 -36 -123 -34q-82 3 -140 85q-54 75 -53 160q1 90 74 149q69 57 160 53q25 -1 64 -2q2 0 20 -4q2 22 5 49l72 4l1 -80
q76 -50 76 -73q0 -5 -9 -14q-7 1 -17 5q-20 46 -51 50l-7 -236l2 -270q0 -28 7 -52q12 -42 39 -42q3 0 11 4.5t12 4.5q9 0 13 -19zM330 143q0 113 -6 266q-18 11 -42 11q-13 0 -54 -7q-63 -11 -99.5 -60.5t-36.5 -115.5q0 -59 43 -128q48 -77 105 -77q44 0 90 111z" />
    <glyph glyph-name="r" unicode="r" horiz-adv-x="471" 
d="M475 441q0 -34 -38 -73q-12 -12 -38 -13q33 2 -41 2l-23 10q-20 9 -39 8q-13 -1 -30 -2q-15 -4 -21.5 -18.5t-16.5 -44.5q-3 -14 -3 -35q0 -6 -5 -98q-3 -57 -3 -98q0 -56 34 -56q11 0 17 4q13 -5 13 -11q0 -14 -31 -23l-51 12l-50 -7q-16 9 -18 16v9l14 250q3 55 -4 95
q-13 69 -54 63q-43 -6 -63 -52q-3 0 -19 -5q-3 3 -3 11q0 18 17 35l25 25q32 21 69 21q26 0 47 -12q49 -28 57 -82q12 7 25 27t21 26q17 13 58 19l91 -27q17 -1 33 15q10 12 20 23q10 -7 10 -14z" />
    <glyph glyph-name="s" unicode="s" horiz-adv-x="413" 
d="M406 162q0 -61 -44.5 -109.5t-104.5 -54.5q-30 -3 -47 -3q-29 0 -109 27q-32 11 -62 40q-34 33 -34 63q0 21 21.5 42t42.5 21q3 0 14 -6q-6 -12 -14 -49q-4 -55 49 -86q44 -26 102 -26t92.5 30t34.5 87t-74 85q-39 13 -139 49q-75 28 -75 78q0 49 35 80q31 28 82 36
q6 1 24 1q58 0 104 -15q63 -21 75 -64q2 -9 -17 -34q-6 -52 -26 -52q-3 1 -18 8q12 22 12 44q0 40 -42 66q-36 23 -79 23q-31 0 -52 -14q-25 -16 -25 -45q-1 -36 70 -59q116 -37 132 -46q72 -39 72 -117z" />
    <glyph glyph-name="t" unicode="t" horiz-adv-x="408" 
d="M395 172q-23 -71 -73 -118q-56 -54 -125 -54q-40 0 -70 30.5t-30 70.5q0 10 3 18q-1 60 6 279q-1 7 -9 21l-82 -39q-6 11 -6 14q0 15 44 38q19 10 52 26v210q0 41 -23 41q-16 0 -19 -12l-20 4q-3 17 16 28q16 9 34 9q7 0 21.5 -2t21.5 -2q5 0 17 3.5t17 3.5q19 0 20 -34
q0 6 -1 -39l-4 -178l132 65q22 -10 16 -17q-8 -9 -74 -39q-62 -28 -74 -49l-2 -106v-120q0 -47 -1 -78q-1 -30 12 -61q18 -43 51 -44t78 54t47 91q5 1 11 6q17 -10 14 -20z" />
    <glyph glyph-name="u" unicode="u" horiz-adv-x="639" 
d="M634 114q-11 -31 -59 -74.5t-78 -44.5q-67 -1 -67 94q0 13 2 47l-11 13q-13 -22 -49 -77q-50 -72 -121 -72q-111 0 -111 163q0 25 3 74t3 74q0 112 -63 112q-18 0 -39 -27q-12 -20 -25 -40q-14 -1 -14 11q0 26 28 53.5t55 32.5q17 3 27 3q40 0 76 -26q40 -46 40 -110
q0 -13 -1.5 -37.5t-1.5 -37.5t-1.5 -40t-1.5 -40q0 -105 66 -105q44 0 91 85q38 69 39 92q10 22 21 80q10 55 10 83v51q4 10 15 10q7 0 66 -8q6 -6 4 -52l-16 -292q-1 -18 4 -26q5 -11 24 -11q34 0 67 55q11 -5 18 -13z" />
    <glyph glyph-name="v" unicode="v" horiz-adv-x="483" 
d="M475 276q0 -62 -52 -178q-74 -97 -147 -97h-25q-48 0 -98 30q-54 31 -67 74q-25 52 -25 108q0 35 21 100t21 90q0 30 -31 30q-9 0 -23 -11t-25 -13q-3 5 -3 11q0 17 22.5 29.5t38.5 9.5l58 -11l84 8q21 -9 23 -25q-40 -24 -57 -62l-32 -70q-11 -43 -11 -89q0 -75 30 -120
q35 -53 106 -53q77 0 123 98q36 76 36 147q0 44 -17 81q-21 48 -60 48q-17 0 -34 -19t-18 -19q-7 0 -18 10q1 33 20.5 53.5t52.5 20.5q35 0 64.5 -31t33.5 -66q2 -16 7 -29q2 -5 2 -55z" />
    <glyph glyph-name="w" unicode="w" horiz-adv-x="757" 
d="M559 -1q-49 -2 -80 15q-13 7 -62 47q-4 -2 -52 -39q-19 -16 -29.5 -19t-36.5 -3q-107 0 -162 68q-50 62 -50 172q0 39 13 102q9 45 9 57q-1 25 -24 25q-13 0 -24 -9.5t-12 -22.5q-2 0 -5 -1.5t-7 -1.5q-8 0 -13 7q-4 23 12 38.5t40 16.5l107 -8q25 15 51 15q9 1 21 -12
q0 -2 3 -5q1 -8 -5 -12q-51 -31 -69 -96q-12 -44 -11 -120q1 -60 30 -116q37 -71 99 -69q78 19 116 112q28 68 25 145q-2 63 -37 108q-18 23 -40 22q-12 0 -31 -11q-24 -14 -30 -16q-15 13 -10 23q21 46 62 46q20 0 44 -11q74 -53 74 -175q0 -25 -10 -127q8 -47 38 -78
q33 -35 78 -33q62 2 101 93q32 74 30 133q-2 62 -24 106q-29 58 -83 56q-14 -1 -32 -12q-14 -9 -29 -19q-12 8 -12 15q-1 29 31 45q22 11 45 12q19 1 56 -22q45 -20 68 -80q18 -47 16 -87q-6 -104 -49 -180q-52 -91 -140 -94z" />
    <glyph glyph-name="x" unicode="x" horiz-adv-x="547" 
d="M412 -5q-14 0 -38 12t-33 23q-12 19 -36 76l-38 90q-95 -131 -95 -152q1 -23 40 -24q5 -10 3 -16q-3 -6 -14 -6l-49 2l-48 -2q-25 -7 -70 -18q-7 7 -7 15q0 9 24 15q5 1 9 4q54 50 183 221q-83 187 -121 187q-14 0 -27 -17q-5 -6 -5 -20v-18q-3 -3 -14 -7q-13 7 -13 22
q-1 36 36 58q31 19 69 20q35 1 58 -26q34 -40 74 -122q65 90 66 98q0 11 -8 16l-3 2q-4 2 -6 4l-24 -1q-14 10 -14 17t19 8q28 1 76 -2q15 -1 65 7q6 1 15 -4.5t9 -10.5q0 -2 -2 -2q-33 -12 -80 -63q-31 -34 -98 -122q37 -70 69 -134q19 -37 43 -74q16 -18 31 -18
q14 0 27 17q5 6 6 20q-1 7 -1 19q3 3 14 7q13 -8 13 -23q0 -36 -36 -58q-31 -20 -69 -20z" />
    <glyph glyph-name="y" unicode="y" horiz-adv-x="575" 
d="M543 82q-4 -73 -59 -147q-60 -82 -129 -75l-3 14q11 0 33 5q46 20 71 88q20 54 20 116q0 15 -2 29q-70 -111 -123 -111q-48 0 -123 179q-40 96 -67 149q-16 32 -42 73q-16 19 -31 19q-14 0 -27 -17q-3 -3 -6 -38q-3 -3 -14 -7q-12 8 -12 22q0 34 37 57q32 20 68 20
q34 0 57 -27q42 -48 84 -146q22 -51 68 -159q10 -23 35 -38q5 -3 14 -3q3 0 7 3l2 2q2 1 3 1q42 6 62 97q13 59 13 133q0 -9 -8 95q-9 14 -19 14q-3 0 -26 -14q-5 4 -5 8q0 19 40 29q4 1 13 3l46 -7q15 5 22 5q8 0 12 -6l3 -3q1 -2 2 -3q0 -93 -16 -360z" />
    <glyph glyph-name="z" unicode="z" horiz-adv-x="563" 
d="M549 98q0 -33 -32 -64.5t-66 -38t-54 -6.5q-15 0 -41 4q-30 4 -41 5l-135 8l-75 -2q-25 -7 -68 -18q-8 8 -8 17t14 13q18 5 19 6q50 45 96 104l87 114q116 152 117 163q1 10 -15 20q-45 9 -83 9q-21 0 -36 -3q-70 -14 -82 -19q-57 -24 -50 -88q1 -8 2 -23q-3 0 -8 -1.5
t-8 -1.5q-20 0 -20 39l4 24q4 24 4 34q0 5 -2 14t-2 14q0 20 20 30h170q52 0 72 -1q59 -3 73 -3q40 0 72 5q5 1 11 -3.5t6 -9.5q0 -2 -2 -4q-24 -22 -150 -185q-137 -177 -137 -200q0 -20 39 -22l145 -9q35 -2 67 23t32 59q-1 9 -5 28q-9 23 -29 33q-21 11 -42 -1
q-4 -2 -11 -12l-7 -11l-8 4q-8 4 -8 7q0 28 42 40q25 7 51 7q40 0 61 -28.5t21 -69.5z" />
    <glyph glyph-name="braceleft" unicode="{" horiz-adv-x="245" 
d="M147 583q-12 -56 -17 -176q-4 -107 -37 -132q32 -24 36 -132q5 -125 16 -179q10 -48 107 -48q-35 -23 -55 -23q-82 0 -118 119q-23 76 -23 181q0 21 -17 44l-32 36q18 18 37 40q15 17 15 41q0 105 23 181q36 119 117 119q21 0 56 -23q-97 0 -108 -48z" />
    <glyph glyph-name="bar" unicode="|" horiz-adv-x="413" 
d="M282 7l-264 610h69l262 -610h-67z" />
    <glyph glyph-name="braceright" unicode="}" horiz-adv-x="233" 
d="M168 191q0 -104 -23 -180q-36 -119 -117 -119q-20 0 -56 23q99 0 109.5 52t15.5 171q4 108 37 133q-32 24 -36 132q-5 125 -16 179q-10 48 -107 48q36 23 55 23q82 0 118 -119q23 -76 23 -182q0 -19 18 -43q15 -18 31 -37q-21 -22 -36.5 -40.5t-15.5 -40.5z" />
    <glyph glyph-name="asciitilde" unicode="~" horiz-adv-x="425" 
d="M314 571q-30 0 -88 22t-84 22q-22 0 -56 -28q15 48 28 66q22 30 61 30q22 0 66 -16l66 -24q16 -6 33 -6q23 0 57 36q-15 -66 -35 -84t-48 -18z" />
    <glyph glyph-name="section" unicode="&#xa7;" horiz-adv-x="404" 
d="M270 104q4 -23 4 -39q0 -61 -35.5 -97.5t-96.5 -36.5q-10 -2 -17 -2q-39 0 -77 28q-41 31 -34 69q7 41 36 41q24 0 34 -24q4 -10 8 -45q4 -40 35 -40q37 0 61 19.5t24 55.5q0 24 -12 54q-54 42 -108 83q-62 58 -62 113q0 57 24 94q28 44 82 44h7q-4 15 -4 34q0 58 27 96
q30 42 86 42q38 0 73 -23q38 -27 38 -63q0 -19 -10 -36t-28 -17q-23 0 -33 23q-5 9 -5 23q0 9 3 35q0 21 -25 21h-16q-54 0 -54 -62q0 -44 38 -77q70 -49 74 -52q47 -37 56 -65q14 -41 14 -83q0 -110 -107 -113zM248 335q-62 52 -106 52q-61 0 -61 -62q0 -65 75 -128
q62 -52 106 -52q61 0 61 62q0 65 -75 128z" />
    <glyph glyph-name="Agrave" unicode="&#xc0;" horiz-adv-x="693" 
d="M475 700q-6 6 -94 63q-71 46 -71 69q0 11 8 20.5t18 9.5q18 0 70 -70zM684 19q0 -3 -7.5 -12t-10.5 -9q-4 0 -12.5 3t-12.5 3l-81 10l-96 -14q-4 -1 -29 10q0 21 14 21q3 0 9 -2t9 -2q51 0 44 49q-6 38 -10 50q-11 30 -35 30l-167 2q-82 1 -122 -17q-7 -3 -19.5 -40
t-12.5 -49q0 -25 23 -25q3 0 10.5 2t11.5 2q11 0 19 -12v-12q-10 -7 -42 -7q-43 0 -46 8l-53 -4q-22 -8 -39 -8q-11 0 -20 18q3 16 21 16q26 1 35 6q27 16 56 74q2 4 40 89q29 63 98 231q121 314 132 314q12 0 25 -51q4 -20 18 -72q56 -191 115 -413q15 -57 32 -107
q25 -74 67 -71l19 -2q10 -2 17 -9zM473 211q0 7 -49 175l-56 191q-3 10 -12 9l-160 -385q28 -10 39 -10h208q30 0 30 20z" />
    <glyph glyph-name="Adieresis" unicode="&#xc4;" horiz-adv-x="693" 
d="M684 19q0 -3 -7.5 -12t-10.5 -9q-4 0 -12.5 3t-12.5 3l-81 10l-96 -14q-4 -1 -29 10q0 21 14 21q3 0 9 -2t9 -2q51 0 44 49q-6 38 -10 50q-11 30 -35 30l-167 2q-82 1 -122 -17q-7 -3 -19.5 -40t-12.5 -49q0 -25 23 -25q3 0 10.5 2t11.5 2q11 0 19 -12v-12q-10 -7 -42 -7
q-43 0 -46 8l-53 -4q-22 -8 -39 -8q-11 0 -20 18q3 16 21 16q26 1 35 6q27 16 56 74q2 4 40 89q29 63 98 231q121 314 132 314q12 0 25 -51q4 -20 18 -72q56 -191 115 -413q15 -57 32 -107q25 -74 67 -71l19 -2q10 -2 17 -9zM473 211q0 7 -49 175l-56 191q-3 10 -12 9
l-160 -385q28 -10 39 -10h208q30 0 30 20zM536 734q0 -19 -13 -34t-31 -15q-19 0 -31 15.5t-12 34.5q0 21 11.5 37t31.5 16q19 0 31.5 -17t12.5 -37zM324 735q0 -19 -13 -34t-31 -15q-19 0 -31 15.5t-12 34.5q0 21 11.5 37t31.5 16q19 0 31.5 -17t12.5 -37z" />
    <glyph glyph-name="Aring" unicode="&#xc5;" horiz-adv-x="693" 
d="M684 19q0 -3 -7.5 -12t-10.5 -9q-4 0 -12.5 3t-12.5 3l-81 10l-96 -14q-4 -1 -29 10q0 21 14 21q3 0 9 -2t9 -2q51 0 44 49q-6 38 -10 50q-11 30 -35 30l-167 2q-82 1 -122 -17q-7 -3 -19.5 -40t-12.5 -49q0 -25 23 -25q3 0 10.5 2t11.5 2q11 0 19 -12v-12q-10 -7 -42 -7
q-43 0 -46 8l-53 -4q-22 -8 -39 -8q-11 0 -20 18q3 16 21 16q26 1 35 6q27 16 56 74q2 4 40 89q29 63 98 231q78 201 102 259q-30 22 -30 62q0 29 17.5 51.5t46.5 22.5t47.5 -23t18.5 -52q0 -50 -42 -68q4 -18 15 -61q56 -191 115 -413q15 -57 32 -107q25 -74 67 -71l19 -2
q10 -2 17 -9zM440 750q0 21 -13 38t-33 17t-32 -16.5t-12 -37.5q0 -27 19 -44l22 -7l22 3q27 14 27 47zM473 211q0 7 -49 175l-56 191q-3 10 -12 9l-160 -385q28 -10 39 -10h208q30 0 30 20z" />
    <glyph glyph-name="AE" unicode="&#xc6;" horiz-adv-x="870" 
d="M911 151q-7 -12 -17 -82l3 -37q2 -20 -4 -32q-18 0 -47 -3q-108 2 -126 1q-33 -1 -81 6q-61 9 -79 10l-98 -18q-51 0 -56 20q-1 6 7 11t15 5t22 -3.5t22 -3.5q14 0 24 30q9 27 6 40q-118 498 -130 522q-32 64 -84 60l-26 -2q-9 0 -21 7q-3 1 -7 5q1 -2 1 10q6 11 28 11
l169 -16l369 17q-2 0 16 -3q7 -4 17 -17q3 -21 9 -41l28 -72q2 -8 2 -16q0 -7 -2 -14q-11 -2 -21 9q-7 45 -58 69q-43 14 -86 29q-46 10 -169 23q-16 -3 -55 -11t-33 -33l41 -175q10 -39 19.5 -46t51.5 -7h82q28 0 37 21q-1 4 0 10q-1 10 -12 20q-2 6 6 19q22 2 36 -31
l16 -53q44 -77 46 -86q1 -6 0 -16q-2 0 -5 -1t-5 -1q-3 0 -9 2.5t-7.5 3t-11.5 27.5t-35.5 41t-55.5 15l-91 2q-23 0 -33 -5t-8 -16q10 -56 31 -169q27 -128 76 -149q19 -8 35.5 -8t57.5 -1q36 -1 64 0q-20 2 -26 6q90 18 125 100q3 6 6 29q2 11 15 12q19 -20 16 -25z
M684 19q0 -3 -7.5 -12t-10.5 -9q-4 0 -12.5 3t-12.5 3l-81 10l-96 -14q-4 -1 -29 10q0 21 14 21q3 0 9 -2t9 -2q51 0 44 49q-6 38 -10 50q-11 30 -35 30l-167 2q-82 1 -122 -17q-7 -3 -19.5 -40t-12.5 -49q0 -25 23 -25q3 0 10.5 2t11.5 2q11 0 19 -12v-12q-10 -7 -42 -7
q-43 0 -46 8l-53 -4q-22 -8 -39 -8q-11 0 -20 18q3 16 21 16q26 1 35 6q27 16 56 74q2 4 40 89q29 63 98 231q121 314 132 314q12 0 25 -51q4 -20 18 -72q56 -191 115 -413q15 -57 32 -107q25 -74 67 -71l19 -2q10 -2 17 -9zM473 211q0 7 -49 175l-56 191q-3 10 -12 9
l-160 -385q28 -10 39 -10h208q30 0 30 20z" />
    <glyph glyph-name="Eacute" unicode="&#xc9;" horiz-adv-x="655" 
d="M-481 838q0 -23 -71 -69q-88 -57 -94 -63q5 7 69 92q52 70 70 70q10 0 18 -9.5t8 -20.5zM-124 155q-10 -12 -37 -83l-5 -37q-3 -20 -12 -32q-18 0 -48 -3q-167 3 -208 2q-34 -1 -79 6q-58 9 -77 10l-102 -18q-51 0 -51 20q0 6 9 11t16 5t21.5 -3.5t21.5 -3.5q16 0 32 33
q14 28 14 37q0 500 -6 524q-17 65 -70 61l-26 -2q-9 -1 -20 7q-2 1 -5 5q0 -2 3 10q8 11 30 11l165 -16l373 16q-2 0 15 -3q6 -4 13 -17q-2 -21 -1 -41q0 -15 5.5 -45t5.5 -27q0 -16 -7 -31q-11 -1 -19 10q4 45 -41 69q-40 14 -79 29q-44 10 -164 23q-16 -2 -57 -10.5
t-41 -33.5v-175q0 -40 8 -47t50 -7h82q28 0 42 21q0 4 2 10q1 5 0 9q-1 5 -7 11q-1 6 10 19q23 2 29 -31l4 -53q25 -77 25 -86q0 -6 -4 -16q-1 0 -4.5 -1t-5.5 -1q-3 0 -8.5 2.5t-6.5 2.5q-4 2 -5 25q-1 28 -24.5 43t-53.5 16l-90 2q-45 1 -46 -21q-4 -56 -9 -169
q-3 -128 41 -150q16 -8 32 -8t58 -1q36 -1 64 0q38 1 58 5q94 18 149 101q4 5 13 29q4 11 18 12q14 -20 10 -25z" />
    <glyph glyph-name="Odieresis" unicode="&#xd6;" horiz-adv-x="757" 
d="M749 335q-7 -99 -66 -187q-63 -96 -152 -123q-63 -26 -78 -26l-66 -7q-116 0 -210 62q-99 66 -130 174q-24 82 -24 115q0 132 68 228q70 101 195 135q52 14 67 16q9 1 70 1q80 0 188 -79q75 -55 113 -156q30 -81 25 -153zM665 349q0 132 -43 217q-55 108 -173 124
q-37 5 -67 5q-291 0 -281 -391q6 -209 149 -260q81 -29 137 -26q152 8 218 96q60 78 60 235zM640 734q0 -19 -13 -34t-31 -15q-19 0 -31 15.5t-12 34.5q0 21 11.5 37t31.5 16q19 0 31.5 -17t12.5 -37zM242 742q0 -19 -13 -34t-31 -15q-19 0 -31 15.5t-12 34.5q0 21 11.5 37
t31.5 16q19 0 31.5 -17t12.5 -37z" />
    <glyph glyph-name="Oslash" unicode="&#xd8;" horiz-adv-x="757" 
d="M749 335q-7 -99 -66 -187q-63 -96 -152 -123q-63 -26 -78 -26l-66 -7q-87 0 -162 36l-25 -51h-54l36 74l-5 4q-98 64 -130 173q-24 82 -24 115q0 132 68 228q70 101 195 135q52 14 67 16q9 1 70 1q36 0 77 -16l18 39h51l-27 -58q33 -17 69 -44q75 -55 113 -156
q30 -81 25 -153zM665 349q0 242 -135 315l-295 -614q82 -36 152 -32q152 8 218 96q60 78 60 235zM487 682q-44 13 -105 13q-291 0 -281 -391q4 -163 92 -230z" />
    <glyph glyph-name="Udieresis" unicode="&#xdc;" horiz-adv-x="722" 
d="M723 77q-9 -33 -87 -53q-41 -26 -47 -26q-28 0 -33 40q-4 30 -4 52v87q0 41 -8 79q-9 -27 -38 -82q-63 -89 -91 -116q-60 -58 -131 -58q-136 0 -136 210q0 10 1 30.5t1 30.5v312q0 97 -74 97q-5 0 -14.5 -3t-13.5 -3q-18 0 -18 14q0 5 9 19l29 2q14 1 45.5 -5t45.5 -6
q45 0 61 5q15 -8 14 -19q-4 -73 -4 -441q0 -26 -1 -79q-1 -72 28 -107q19 -23 40 -23q4 0 12.5 -2.5t12.5 -2.5q22 0 56 24q31 21 47 43q129 170 129 461q0 93 -26 120q-11 6 -30 6q-3 0 -10.5 -2.5t-10.5 -2.5q-20 0 -20 18q0 8 16 18l88 -14q11 1 44 8q28 6 44 6
q32 0 32 -20q0 -5 -5.5 -10.5t-10.5 -5.5q-4 0 -13.5 2.5t-13.5 2.5q-14 0 -31 -6q-20 -7 -20 -93v-405q0 -112 55 -114q14 4 38 7q23 20 25 20q4 0 18 -15zM329 730q0 -19 -13 -34t-31 -15q-19 0 -31 15.5t-12 34.5q0 21 11.5 37t31.5 16q19 0 31.5 -17t12.5 -37zM448 732
q0 -19 -13 -34t-31 -15q-19 0 -31 15.5t-12 34.5q0 21 11.5 37t31.5 16q19 0 31.5 -17t12.5 -37z" />
    <glyph glyph-name="germandbls" unicode="&#xdf;" horiz-adv-x="413" 
d="M252 -19q-4 -1 -16 -1q-34 0 -72 17q-45 21 -45 51q0 4 1 9q12 31 39 31q40 0 47 -53q3 -24 31 -24q79 0 79 45q0 31 -40 67l-66 50q-94 72 -94 96q0 5 49 42q53 40 64 55q29 42 29 84q0 36 -21 68q-23 36 -57 36q-27 0 -50 -49q-20 -43 -20 -137v-638h-76v620
q0 97 29 167q40 96 124 96q55 0 87 -54q27 -46 27 -105q0 -57 -25 -100q-28 -46 -79 -64q9 -21 89 -77t88 -74q13 -28 13 -56q0 -94 -135 -102z" />
    <glyph glyph-name="agrave" unicode="&#xe0;" horiz-adv-x="465" 
d="M289 521q-6 6 -94 63q-71 46 -71 69q0 11 8 20.5t18 9.5q18 0 70 -70zM464 94q3 -23 -25.5 -58.5t-51.5 -35.5h-18q-42 0 -62 63l-18 81q-72 -143 -164 -143q-62 0 -96 56q-29 47 -29 112q0 83 45 153t121 109q33 17 96 17q30 0 83 -34q10 25 20.5 35t34.5 10
q16 0 21 -10q-19 -18 -33 -37q-25 -34 -25 -118v-106q0 -26 12 -65q17 -55 41 -55q11 0 25 13.5t23 12.5zM326 375q0 50 -70 50q-84 0 -132 -81q-38 -64 -38 -138q0 -42 12 -83q19 -65 63 -65q62 0 112 105q16 33 34.5 106t18.5 106z" />
    <glyph glyph-name="adieresis" unicode="&#xe4;" horiz-adv-x="465" 
d="M464 94q3 -23 -25.5 -58.5t-51.5 -35.5h-18q-42 0 -62 63l-18 81q-72 -143 -164 -143q-62 0 -96 56q-29 47 -29 112q0 83 45 153t121 109q33 17 96 17q30 0 83 -34q10 25 20.5 35t34.5 10q16 0 21 -10q-19 -18 -33 -37q-25 -34 -25 -118v-106q0 -26 12 -65q17 -55 41 -55
q11 0 25 13.5t23 12.5zM326 375q0 50 -70 50q-84 0 -132 -81q-38 -64 -38 -138q0 -42 12 -83q19 -65 63 -65q62 0 112 105q16 33 34.5 106t18.5 106zM185 607q0 -19 -13 -34t-31 -15q-19 0 -31 15.5t-12 34.5q0 21 11.5 37t31.5 16q19 0 31.5 -17t12.5 -37zM340 609
q0 -19 -13 -34t-31 -15q-19 0 -31 15.5t-12 34.5q0 21 11.5 37t31.5 16q19 0 31.5 -17t12.5 -37z" />
    <glyph glyph-name="aring" unicode="&#xe5;" horiz-adv-x="465" 
d="M326 605q0 -29 -19 -50.5t-47 -21.5t-46 22.5t-18 50.5q0 29 17.5 51.5t46.5 22.5t47.5 -23t18.5 -52zM464 94q3 -23 -25.5 -58.5t-51.5 -35.5h-18q-42 0 -62 63l-18 81q-72 -143 -164 -143q-62 0 -96 56q-29 47 -29 112q0 83 45 153t121 109q33 17 96 17q30 0 83 -34
q10 25 20.5 35t34.5 10q16 0 21 -10q-19 -18 -33 -37q-25 -34 -25 -118v-106q0 -26 12 -65q17 -55 41 -55q11 0 25 13.5t23 12.5zM305 605q0 21 -13 38t-33 17t-32 -16.5t-12 -37.5q0 -20 12.5 -36.5t31.5 -16.5q20 0 33 16t13 36zM326 375q0 50 -70 50q-84 0 -132 -81
q-38 -64 -38 -138q0 -42 12 -83q19 -65 63 -65q62 0 112 105q16 33 34.5 106t18.5 106z" />
    <glyph glyph-name="ae" unicode="&#xe6;" horiz-adv-x="681" 
d="M326 375q0 50 -70 50q-84 0 -132 -81q-38 -64 -38 -138q0 -42 12 -83q19 -65 63 -65q62 0 112 105q16 33 34.5 106t18.5 106zM468 65q74 -35 105 -35q36 0 67 32l18 -4q5 -14 -37 -48q-41 -22 -85 -22q-32 0 -95 17q-16 10 -39 25q-6 -5 -8 -17.5t-7 -12.5h-18
q-42 0 -62 63l-18 81q-72 -143 -164 -143q-62 0 -96 56q-29 47 -29 112q0 83 45 153t121 109q33 17 96 17q30 0 83 -34q10 25 20.5 35t34.5 10q16 0 21 -10q-34 -32 -44 -57q64 61 156 61q63 0 105.5 -39t42.5 -102q0 -39 -30 -84t-67 -55q-51 -14 -81 -14q-23 0 -50 7
q-7 1 -15 11q0 5 10 15q30 -9 55 -9q98 0 98 114q0 56 -28 91.5t-83 35.5q-23 0 -53.5 -24t-36.5 -46q-16 -61 -16 -76q0 -6 6 -74q0 -35 24 -77q14 -25 30 -42q11 -9 24 -20z" />
    <glyph glyph-name="eacute" unicode="&#xe9;" horiz-adv-x="405" 
d="M241 624q0 -83 -94 -155l-5 8q55 64 55 95q0 8 -25 32.5t-25 48.5q0 20 11.5 35.5t30.5 15.5q27 0 41 -28q11 -22 11 -52zM397 320q0 -39 -30 -84t-67 -55q-51 -14 -81 -14q-23 0 -50 7q-7 1 -15 11q0 5 10 15q30 -9 55 -9q98 0 98 114q0 56 -28 91.5t-83 35.5
q-23 0 -53.5 -24t-36.5 -46q-16 -61 -16 -76q0 -6 6 -74q0 -35 24 -77.5t54 -61.5q74 -35 105 -35q36 0 67 32l18 -4q5 -14 -37 -48q-41 -22 -85 -22q-32 0 -95 17q-57 29 -97 84q-43 59 -43 120q0 101 66 172.5t166 71.5q63 0 105.5 -39t42.5 -102z" />
    <glyph glyph-name="odieresis" unicode="&#xf6;" horiz-adv-x="486" 
d="M268 -3q-106 0 -177 67q-74 68 -73 173q1 96 62 163.5t156 71.5q97 5 168.5 -61t71.5 -163q0 -89 -59 -167q-63 -84 -149 -84zM234 445q-70 -1 -102 -84q-23 -59 -23 -144q0 -200 159 -200q76 0 105 102q19 66 15 161q-16 89 -37 119q-34 48 -117 46zM205 603
q0 -19 -13 -34t-31 -15q-19 0 -31 15.5t-12 34.5q0 21 11.5 37t31.5 16q19 0 31.5 -17t12.5 -37zM360 605q0 -19 -13 -34t-31 -15q-19 0 -31 15.5t-12 34.5q0 21 11.5 37t31.5 16q19 0 31.5 -17t12.5 -37z" />
    <glyph glyph-name="oslash" unicode="&#xf8;" horiz-adv-x="486" 
d="M476 248q0 -89 -59 -167q-63 -84 -149 -84q-63 0 -114 24l-23 -48h-54l35 73q-95 71 -94 191q1 96 62 163.5t156 71.5q42 2 78 -9l23 47h51l-31 -65q25 -14 48 -34q71 -67 71 -163zM388 280q-8 45 -15 69q-13 43 -32 62l-174 -363q38 -31 101 -31q76 0 105 102
q19 66 15 161zM301 436q-28 10 -67 9q-70 -1 -102 -84q-23 -59 -23 -144q0 -79 25 -127z" />
    <glyph glyph-name="udieresis" unicode="&#xfc;" horiz-adv-x="639" 
d="M634 114q-11 -31 -59 -74.5t-78 -44.5q-67 -1 -67 94q0 13 2 47l-11 13q-13 -22 -49 -77q-50 -72 -121 -72q-111 0 -111 163q0 25 3 74t3 74q0 112 -63 112q-18 0 -39 -27q-12 -20 -25 -40q-14 -1 -14 11q0 26 28 53.5t55 32.5q17 3 27 3q40 0 76 -26q40 -46 40 -110
q0 -13 -1.5 -37.5t-1.5 -37.5t-1.5 -40t-1.5 -40q0 -105 66 -105q44 0 91 85q38 69 39 92q10 22 21 80q10 55 10 83v51q4 10 15 10q7 0 66 -8q6 -6 4 -52l-16 -292q-1 -18 4 -26q5 -11 24 -11q34 0 67 55q11 -5 18 -13zM285 599q0 -19 -13 -34t-31 -15q-19 0 -31 15.5
t-12 34.5q0 21 11.5 37t31.5 16q19 0 31.5 -17t12.5 -37zM440 601q0 -19 -13 -34t-31 -15q-19 0 -31 15.5t-12 34.5q0 21 11.5 37t31.5 16q19 0 31.5 -17t12.5 -37z" />
    <glyph glyph-name="quoteleft" unicode="&#x2018;" horiz-adv-x="133" 
d="M124 556q0 -83 -94 -155l-5 8q55 64 55 95q0 8 -25 32.5t-25 48.5q0 20 11.5 35.5t30.5 15.5q27 0 41 -28q11 -22 11 -52z" />
    <glyph glyph-name="quoteright" unicode="&#x2019;" horiz-adv-x="133" 
d="M124 556q0 -83 -94 -155l-5 8q55 64 55 95q0 8 -25 32.5t-25 48.5q0 20 11.5 35.5t30.5 15.5q27 0 41 -28q11 -22 11 -52z" />
    <glyph glyph-name="quotedblleft" unicode="&#x201c;" horiz-adv-x="258" 
d="M245 556q0 -83 -94 -155l-5 8q54 64 54 95q0 8 -24.5 32.5t-24.5 48.5q0 20 11.5 35.5t30.5 15.5q27 0 41 -28q11 -22 11 -52zM138 556q0 -83 -95 -155l-4 8q54 64 54 95q0 8 -25 32.5t-25 48.5q0 20 12 35.5t31 15.5q27 0 41 -28q11 -22 11 -52z" />
    <glyph glyph-name="quotedblright" unicode="&#x201d;" horiz-adv-x="258" 
d="M245 556q0 -83 -94 -155l-5 8q54 64 54 95q0 8 -24.5 32.5t-24.5 48.5q0 20 11.5 35.5t30.5 15.5q27 0 41 -28q11 -22 11 -52zM138 556q0 -83 -95 -155l-4 8q54 64 54 95q0 8 -25 32.5t-25 48.5q0 20 12 35.5t31 15.5q27 0 41 -28q11 -22 11 -52z" />
    <glyph glyph-name="glyph120" 
 />
    <glyph glyph-name="glyph121" 
 />
    <glyph glyph-name="glyph110" 
 />
    <glyph glyph-name="glyph111" 
 />
    </font>
</defs>
</svg>
