<?xml version="1.0" standalone="no"?>
<!DOCTYPE svg PUBLIC "-//W3C//DTD SVG 1.1//EN" "http://www.w3.org/Graphics/SVG/1.1/DTD/svg11.dtd" >
<svg xmlns="http://www.w3.org/2000/svg" xmlns:xlink="http://www.w3.org/1999/xlink" version="1.1">
<metadata>
Created by FontForge 20161013 at Wed Oct 17 20:48:07 2001
 By ,,,
Albemarle Swash v. 1.0 - Copyright 2001, David F. Nalle - Scriptorium fonts.  www.fontcraft.com
</metadata>
<defs>
<font id="AlbemarleSwash" horiz-adv-x="451" >
  <font-face 
    font-family="Albemarle Swash"
    font-weight="400"
    font-stretch="normal"
    units-per-em="1000"
    panose-1="0 0 4 0 0 0 0 0 0 0"
    ascent="800"
    descent="-200"
    x-height="452"
    cap-height="700"
    bbox="-2942 -854 5526 2289"
    underline-thickness="20"
    underline-position="-163"
    unicode-range="U+0020-201D"
  />
<missing-glyph horiz-adv-x="500" 
d="M63 0v800h375v-800h-375zM125 63h250v675h-250v-675z" />
    <glyph glyph-name=".notdef" horiz-adv-x="500" 
d="M63 0v800h375v-800h-375zM125 63h250v675h-250v-675z" />
    <glyph glyph-name=".null" horiz-adv-x="0" 
 />
    <glyph glyph-name="nonmarkingreturn" horiz-adv-x="236" 
 />
    <glyph glyph-name="space" unicode=" " horiz-adv-x="236" 
 />
    <glyph glyph-name="exclam" unicode="!" horiz-adv-x="204" 
d="M152 604q0 -37 -10 -95q-13 -82 -14 -95q-10 -85 -11 -234h-15q0 167 -21 315q-13 94 -13 109q0 56 42 56t42 -56zM152 40q0 -19 -12.5 -34t-30.5 -15q-19 0 -31.5 15.5t-12.5 34.5q0 20 12 36t32 16q19 0 31 -16.5t12 -36.5z" />
    <glyph glyph-name="quotedbl" unicode="&#x22;" horiz-adv-x="258" 
d="M245 556q0 -83 -94 -155l-5 8q54 64 54 95q0 14 -24.5 33t-24.5 48q0 20 11.5 35.5t30.5 15.5q27 0 41 -28q11 -22 11 -52zM138 556q0 -83 -95 -155l-4 8q54 64 54 95q0 14 -25 33t-25 48q0 20 12 35.5t31 15.5q27 0 41 -28q11 -22 11 -52z" />
    <glyph glyph-name="numbersign" unicode="#" 
d="M440 400h-106l-21 -144h100v-43h-106l-29 -213h-47l29 213h-112l-30 -213h-48l30 213h-107v43h113l20 144h-103v42h109l29 202h47l-28 -202h113l28 202h47l-28 -202h100v-42zM287 400h-113l-20 -144h112z" />
    <glyph glyph-name="dollar" unicode="$" horiz-adv-x="349" 
d="M337 303q0 -106 -122 -136l-4 -45h-18l4 41q-14 -2 -29 -3l-4 -40h-17l3 40q-21 1 -59.5 14.5t-51.5 13.5q-8 0 -31 -16l-6 6q13 49 45 146q7 -8 11 -7q0 1 0 -14q0 -118 94 -120l18 194q-85 51 -85 116q0 107 109 138l5 52h17l-4 -48q14 2 29 2l4 48h18l-4 -49
q6 -1 19 -8t20 -7q10 0 19 11l9 2q7 -85 6 -121v-36l-8 4q-21 112 -68 130l-16 -180q97 -51 97 -128zM239 616h-9q-8 1 -20 -2l-15 -159q10 -6 28 -15zM192 607q-56 -26 -56 -74q0 -34 43 -66zM271 273q0 46 -39 71l-14 -151q21 7 37 32t16 48zM214 353l-27 14l-17 -184
q15 2 29 5z" />
    <glyph glyph-name="percent" unicode="%" horiz-adv-x="525" 
d="M247 483q0 -61 -32 -110q-37 -56 -95 -56q-57 0 -94 54q-34 49 -34 109q0 61 33 109q37 55 95 55t94 -53q33 -47 33 -108zM456 634l-356 -634h-50l356 634h50zM517 156q0 -60 -31 -109q-37 -56 -94 -56q-58 0 -96 53q-33 48 -33 109t33 109q38 55 96 55q56 0 93 -54
q32 -48 32 -107zM184 478q0 142 -64 142t-64 -137q0 -142 66 -142q34 0 50 53q12 38 12 84zM453 151q0 142 -62 142q-64 0 -64 -137q0 -60 8 -88q14 -53 58 -53q34 0 50 53q10 36 10 83z" />
    <glyph glyph-name="ampersand" unicode="&#x26;" horiz-adv-x="431" 
d="M413 274q-23 -36 -70 -82q2 -13 2 -31q0 -168 -180 -168q-67 0 -108 29q-48 33 -48 97q0 51 34 83q37 28 74 57q-11 16 -35 32q-27 17 -35 27q-16 20 -16 55q0 56 47 104t102 48q49 0 90 -33t41 -80q0 -54 -59 -102q-29 -25 -111 -71q-64 -36 -70 -54q-4 -13 -4 -32
q0 -51 28 -91q32 -43 81 -43q99 0 99 96q0 18 -4 42l-59 -18l-17 16l112 52q57 31 89 79zM256 403q0 33 -31 65.5t-64 32.5q-26 0 -49.5 -21.5t-23.5 -47.5q0 -47 31 -82.5t78 -44.5q59 39 59 98z" />
    <glyph glyph-name="quotesingle" unicode="'" horiz-adv-x="133" 
d="M124 556q0 -83 -94 -155l-5 8q55 64 55 95q0 14 -25 33t-25 48q0 20 11.5 35.5t30.5 15.5q28 0 41 -28q11 -22 11 -52z" />
    <glyph glyph-name="parenleft" unicode="(" horiz-adv-x="224" 
d="M251 -126l-13 -17q-110 68 -172 174.5t-62 234.5q0 267 235 414l12 -17q-168 -112 -168 -403q0 -268 168 -386z" />
    <glyph glyph-name="parenright" unicode=")" horiz-adv-x="225" 
d="M237 266q0 -129 -61.5 -234.5t-173.5 -174.5l-14 17q169 118 169 386q0 289 -169 403l14 17q235 -148 235 -414z" />
    <glyph glyph-name="asterisk" unicode="*" 
d="M387 523q0 -27 -62 -41q-41 -7 -83 -13q52 -53 53 -54q36 -40 36 -59q0 -22 -18 -22q-25 0 -55 49q-7 13 -35 71q-35 -64 -39 -70q-31 -50 -53 -50q-19 0 -19 20q0 22 36 61l54 54q-42 6 -85 13q-61 14 -61 41q0 18 29 18t126 -51q-15 82 -15 109q0 45 26 45t26 -45
q0 -31 -16 -109q32 16 63 31q45 20 64 20q28 0 28 -18z" />
    <glyph glyph-name="plus" unicode="+" 
d="M418 219h-181v-183h-44v183h-179v42h179v183h44v-183h181v-42z" />
    <glyph glyph-name="comma" unicode="," horiz-adv-x="193" 
d="M149 20q0 -85 -94 -158l-5 7q55 63 55 98q0 15 -25 34t-25 49q0 20 11.5 36t30.5 16q27 0 41 -28q11 -23 11 -54z" />
    <glyph glyph-name="hyphen" unicode="-" horiz-adv-x="228" 
d="M215 151l-33 17l-169 -17v65l32 -11l170 11v-65z" />
    <glyph glyph-name="hyphen" unicode="&#x2010;" horiz-adv-x="228" 
d="M215 151l-33 17l-169 -17v65l32 -11l170 11v-65z" />
    <glyph glyph-name="period" unicode="." horiz-adv-x="193" 
d="M142 44q0 -20 -12.5 -36.5t-31.5 -16.5t-31 17t-12 37q0 21 11.5 39t31.5 18t32 -18t12 -40z" />
    <glyph glyph-name="slash" unicode="/" horiz-adv-x="476" 
d="M440 681l-369 -769h-54l372 769h51z" />
    <glyph glyph-name="zero" unicode="0" horiz-adv-x="524" 
d="M519 303q-5 -93 -49 -179t-102 -110q-2 -1 -3 -2l-5 -2q-28 -16 -42 -19q-2 -1 -49 -7q-81 0 -148 60t-89 160q-16 74 -16 106q0 121 58 226q70 127 184 127q3 0 14 -1h20q58 0 132 -73q52 -51 78 -145q21 -76 17 -141zM445 315q0 113 -26 188q-35 99 -111 112
q-23 4 -44 4q-51 0 -88 -28q-96 -73 -91 -316q4 -184 95 -227q52 -25 88 -23q88 6 130 68q47 70 47 222z" />
    <glyph glyph-name="one" unicode="1" horiz-adv-x="353" 
d="M3838 796q20 0 44 10zM339 2q-5 -4 -15 -4l-79 6h-113l-51 -6q-3 0 -8.5 -1t-8.5 -1q-9 0 -16 5q-10 6 -7 16q2 5 9 6q4 1 12 0l10 -1q86 0 88 86q1 32 5 156q4 97 4 158q0 47 -9 102q-13 76 -36 76q-8 0 -61 -17q-6 0 -11 8v13q9 12 76.5 36t95.5 24q15 0 20 -25
q1 -74 -2 -182l-2 -71q-2 -72 -2 -267q0 -25 4 -55q3 -16 19 -26q27 -16 34 -16q2 0 12.5 2t12.5 2q9 0 19 -13v-11z" />
    <glyph glyph-name="two" unicode="2" horiz-adv-x="514" 
d="M493 127q-8 -17 -21 -49q-7 -26 -14 -51q-10 -29 -22 -43q-10 1 -14.5 5.5t-8.5 9.5q-20 1 -52 4l-32 3q-88 0 -209 -8q-36 -2 -36 17q0 10 13 28q9 12 18 23q21 35 53 80q94 130 103 157q41 88 41 162q0 63 -34 104q-36 45 -98 45q-47 0 -89 -34t-42 -79q0 -28 14 -37
q21 -13 23 -17q-5 -7 -16 -7q-47 0 -47 71q0 33 34 81q51 72 159 72q79 0 128 -53t49 -130q0 -70 -31 -128q-19 -36 -79 -111q-67 -84 -106 -147q8 -27 55 -24q65 3 131 6q96 11 101 50q1 6 10 15q13 -3 19 -15z" />
    <glyph glyph-name="three" unicode="3" horiz-adv-x="445" 
d="M445 222q0 -81 -51 -140q-54 -63 -152 -79q-59 -10 -121 -3q-13 2 -46 16q-41 19 -41 35q0 10 12 28t21 18q6 0 11 -6q7 -67 90 -67q48 0 97.5 22t69.5 53q28 42 30 80v72q3 54 -43 91q-40 31 -86 31q-2 0 -11 -1h-11q-2 0 -14 -2.5t-15 -2.5q-4 5 -4 8q0 8 26 18
q41 16 62 56q15 31 15 65q0 44 -29.5 75.5t-77.5 35.5q-29 3 -65 -16q-41 -21 -41 -53q0 -4 5.5 -15t10.5 -14q0 -8 -3 -15l-2.5 -1t-5.5 -1q-13 0 -23 16q-7 13 -7 22q0 55 51 90q47 31 107 31t101.5 -35.5t41.5 -95.5q0 -77 -69 -131q33 -11 65 -21q42 -17 66 -45
q36 -56 36 -119z" />
    <glyph glyph-name="four" unicode="4" horiz-adv-x="509" 
d="M498 211q-9 -21 -47 -35q-33 -11 -59 -11q0 -16 -2.5 -25t-2.5 -23q0 -47 14 -67q10 -15 34 -18t46 -6l1 -18q-8 -8 -17 -8q-19 0 -50 5q-38 7 -50 8l-97 -9q-2 0 -12.5 -2t-12.5 -2q-15 0 -27 12q0 2 1.5 8t1.5 9q6 3 12 1q8 -3 9 -3q56 9 72 48q8 21 8 79q0 7 -5 14
q-87 30 -180 30q-58 0 -111 -26q-11 4 -11 15q0 1 57 80q64 87 85 122q32 43 88 129q40 70 97 142q4 5 15 5q5 0 39 -2q20 -2 41 2q16 0 47 -10q0 -11 -10 -23q-34 10 -35 10q-14 0 -27 -25q-19 -37 -21 -200v-211q-1 -10 14 -10q17 0 47 8.5t39 16.5q1 -1 7 -4q3 -3 2 -6z
M348 543q0 2 1 13t1 16q-1 8 -6 11q-141 -195 -245 -370q31 8 74 11q38 3 48 1l104 -22h18q0 57 2.5 170t2.5 170z" />
    <glyph glyph-name="five" unicode="5" horiz-adv-x="461" 
d="M444 263q-10 -152 -99 -214q-72 -49 -217 -49q-21 0 -55 16q-38 19 -38 39q0 10 8.5 23.5t15.5 17.5q8 -1 11 -14q4 -17 6 -20q34 -40 88 -40q21 0 67 9q73 12 109 95q28 62 28 140q0 42 -16 80q-17 43 -48 61.5t-73 18.5q-39 0 -73 -16q-11 -7 -32 -19q-8 3 -8 11
q-12 135 2 221q18 16 45 20q22 2 43 3q47 2 95 5q57 5 91 18q19 8 19 36q4 7 9 7q14 0 14 -26q0 -28 -17 -87q-3 -3 -24.5 -10t-27.5 -8q-21 -2 -97 -2q-59 0 -95 -9q-21 -5 -26 -38q-1 -7 -1 -46q0 -1 -2 -10.5t-2 -39.5q5 -3 15 3q14 8 16 8q69 11 68 11q91 0 148.5 -55
t52.5 -140z" />
    <glyph glyph-name="six" unicode="6" horiz-adv-x="477" 
d="M454 222q0 -91 -45 -154q-50 -70 -132 -70q-101 0 -174 93q-68 86 -77 201q-8 105 52 221q71 136 188 160q56 12 55 12q9 0 17 -3l4 4l8 -32q-5 -9 -8 -15q-34 5 -49 5q-28 0 -69 -19q-120 -56 -120 -241q0 -31 4 -105q6 -85 56 -177q21 -41 75 -67q30 -14 78 0
q20 7 32 20.5t22.5 53t10.5 66.5q0 69 -31 116q-38 55 -108 55q-28 0 -38 -17q-6 -10 -9 -41q-2 -15 -7 -20q-11 -1 -18.5 8.5t-7.5 18.5q0 45 36 71t85 25q71 -1 120.5 -50.5t49.5 -118.5z" />
    <glyph glyph-name="seven" unicode="7" horiz-adv-x="461" 
d="M452 659q-43 -103 -100 -263q-91 -254 -91 -327q0 -27 16.5 -38.5t16.5 -22.5q0 -5 -7 -12l-61 6q-2 0 -10.5 -1t-10.5 -1q-12 0 -23 7t-11 17q0 14 24 70l26 58q2 7 86 224q67 171 67 205q0 9 -12 10q-22 0 -80.5 3.5t-87.5 3.5q-42 0 -67 -6q-50 -12 -84 -95
q-6 1 -17 14l25 91l36 76l12 2l16 -16q62 -3 278 -8q2 0 7 2t8 2q28 3 35 3q2 0 5.5 -2z" />
    <glyph glyph-name="eight" unicode="8" horiz-adv-x="477" 
d="M461 203q-21 -215 -250 -203q-72 4 -133 65.5t-61 133.5q0 50 31 98q27 40 65 66q3 2 23 9q15 5 16 12q-86 48 -86 128q0 36 21 72q23 40 58 54q23 11 53 23q37 4 49 4q21 0 82 -24q37 -15 56 -58q16 -39 12 -81q-8 -85 -77 -120q8 -9 33 -18.5t35 -18.5q29 -26 41 -39
q23 -26 27 -49q7 -33 5 -54zM351 529q0 49 -30 78t-80 29q-49 0 -79 -27.5t-30 -74.5q0 -52 48 -87q6 -5 17 -12q49 -26 59 -26h22q19 0 49 31q24 26 24 89zM402 199q0 53 -61 93q-6 4 -105 53q-10 5 -24 5q-9 0 -44 -7q-4 -2 -13 -4q-46 -6 -69 -59q-18 -42 -18 -100
q0 -27 16 -68q12 -30 54 -57.5t76 -27.5h66q4 0 18 5q22 7 51 25q36 23 47 63q6 23 6 79z" />
    <glyph glyph-name="nine" unicode="9" horiz-adv-x="445" 
d="M432 390q0 -65 -37 -156.5t-81 -133.5q-28 -28 -57 -56q-45 -42 -54 -44q-6 -1 -17 5q-1 0 -7 6q7 12 29 30q32 26 35 28q94 92 108 255q2 22 2 43q0 75 -24 138q-18 47 -58 78q-43 33 -91 33q-23 0 -40 -6q-39 -14 -55 -44q-11 -22 -15 -68q-9 -93 78 -146
q43 -26 65 -26q8 0 17 2q23 6 54 38q17 -10 17 -15q0 -21 -29 -44q-22 -18 -46 -27q-8 -2 -39 -2q-77 0 -126 57q-46 53 -46 126q0 86 55.5 140t143.5 54q107 0 168 -90q50 -75 50 -175z" />
    <glyph glyph-name="colon" unicode=":" horiz-adv-x="193" 
d="M142 324q0 -19 -12.5 -34.5t-31.5 -15.5t-31 16t-12 35q0 20 12 36.5t31 16.5t31.5 -16.5t12.5 -37.5zM142 40q0 -19 -12.5 -34t-31.5 -15t-31 15.5t-12 34.5q0 20 11.5 36.5t31.5 16.5q19 0 31.5 -16.5t12.5 -37.5z" />
    <glyph glyph-name="semicolon" unicode=";" horiz-adv-x="193" 
d="M144 324q0 -19 -13 -34t-31 -15q-19 0 -31 15.5t-12 34.5q0 20 11.5 36.5t31.5 16.5q19 0 31.5 -17t12.5 -37zM149 20q0 -82 -94 -154l-5 8q55 63 55 94q0 15 -25 33.5t-25 48.5q0 19 11.5 35t30.5 16q27 0 41 -28q11 -22 11 -53z" />
    <glyph glyph-name="less" unicode="&#x3c;" 
d="M413 38l-393 182v39l393 182v-37l-358 -164l358 -164v-38z" />
    <glyph glyph-name="equal" unicode="=" horiz-adv-x="343" 
d="M321 289l-295 -32v44l295 32v-44zM321 161l-295 -32v43l295 32v-43z" />
    <glyph glyph-name="greater" unicode="&#x3e;" 
d="M413 220l-393 -182v38l357 164l-357 164v37l393 -182v-39z" />
    <glyph glyph-name="question" unicode="?" horiz-adv-x="331" 
d="M326 490q0 -81 -56 -125q-43 -35 -133 -54l66 -176h-83v17q2 128 -51 186v6l8 17q16 -14 38 -14q57 0 97 56q37 50 37 108q0 52 -21 88q-24 44 -72 44q-61 0 -95 -77q-16 -12 -29 -14q-28 10 -28 32q0 45 55 66q39 14 92 14q33 0 81.5 -23t67.5 -49q26 -34 26 -102z
M200 42q0 -20 -13 -36t-33 -16q-19 0 -31.5 16.5t-12.5 36.5t12 37t32 17t33 -17t13 -38z" />
    <glyph glyph-name="A" unicode="A" horiz-adv-x="693" 
d="M684 19q0 -3 -7.5 -12t-10.5 -9t-12.5 3t-12.5 3l-81 10l-96 -14q-4 -1 -29 10q0 7 4.5 14t9.5 7q2 0 8.5 -2t9.5 -2q51 0 44 49q-8 52 -20 69q-8 10 -25 11l-167 2q-82 1 -122 -17q-7 -3 -19.5 -41t-12.5 -48q0 -25 23 -25q2 0 10.5 2t11.5 2q11 0 19 -12v-12
q-10 -7 -42 -7q-43 0 -46 8l-53 -4q-22 -8 -39 -8q-11 0 -20 18q3 15 21 16q26 0 35 6q27 16 56 74q5 10 40 89q39 87 98 231q112 315 132 314q10 0 25 -51l18 -72q43 -137 115 -413q16 -54 32 -107q26 -74 67 -71l19 -2q10 -2 17 -9zM473 211q0 4 -49 175q-28 95 -56 191
q-3 10 -12 9l-160 -385q28 -10 39 -10h208q9 0 19.5 5.5t10.5 14.5z" />
    <glyph glyph-name="B" unicode="B" horiz-adv-x="640" 
d="M634 203q0 -111 -101 -166q-76 -41 -181 -41q-3 0 -30.5 1.5t-30.5 1.5l-108 12l-125 -12q-11 0 -33 4q0 1 -2 3.5t-2 5.5q0 18 21 18q2 0 9 -1.5t10 -1.5q62 0 62 77q0 70 -1 220q-1 137 -1 213.5t-4 92.5q-12 46 -60 46q-2 0 -10 -1t-12 -1q-5 0 -16 12q-6 21 52 21
l141 -15q79 13 85.5 13.5t59.5 0.5q25 0 59 -15q17 -10 35 -19q41 -18 66 -58q21 -35 21 -69q0 -44 -27.5 -87.5t-67.5 -66.5q74 -12 132.5 -67t58.5 -121zM454 527q0 48 -3 57q-15 47 -56 72q-35 22 -79 22l-15.5 -0.5t-21.5 0.5q-31 1 -54.5 -24t-23.5 -55v-184
q0 -10 34 -16q25 -5 42 -5h71q44 0 77 46q29 41 29 87zM545 210q2 52 -38 98.5t-99 49.5q-128 9 -169 7q-43 -2 -43 -39v-235q0 -22 22.5 -41t40.5 -20q57 -4 86 -4q92 0 137 33q58 43 63 151z" />
    <glyph glyph-name="C" unicode="C" horiz-adv-x="672" 
d="M663 571l-41 -107q-2 -5 -14 -17.5t-17 -12.5q-9 0 -17 12q0 1 14 24q11 19 11 33q0 144 -186 182h-55q-148 0 -216 -192q-27 -78 -27 -160q0 -211 161 -287q21 -10 62.5 -20t67.5 -10q33 0 48 8q54 7 103.5 55.5t52.5 102.5l4 17q19 4 33 -32q12 -28 12 -46
q0 -11 -51 -48q-112 -83 -222 -83q-61 0 -127 25q-114 43 -180 149q-58 93 -58 198q0 114 87 221q90 113 201 119q29 9 54 9q2 0 89 -10q44 0 127.5 -48t83.5 -82z" />
    <glyph glyph-name="D" unicode="D" horiz-adv-x="731" 
d="M720 402q3 -107 -34 -195q-43 -101 -130.5 -156.5t-199.5 -60.5q-22 -1 -100 9q-67 8 -90 13t-54 4q-7 0 -44 -6q-59 -9 -58 -9q-9 0 -19 9q2 18 22 20h32q39 14 50 47q5 15 5 68q1 22 4 35q-3 67 0 175q3 141 3 175q0 -2 -2.5 21t-2.5 49q0 22 -8 36.5t-20 21.5
q-23 12 -48 12q-2 0 -9 -2.5t-11 -2.5q-19 0 -19 18q0 15 26 18h28l82 -16q19 0 28 -2q79 21 157 21q177 0 310 -102q34 -27 67.5 -93t34.5 -107zM642 360q5 83 -34 164q-18 38 -60 78q-45 42 -82 51q-31 8 -62 17q-36 8 -64 8q-92 0 -120 -28.5t-31 -123.5l-13 -364
q-2 -73 27 -110q27 -32 64 -33q19 -1 59 -4q32 -2 47 -2q66 0 133 43q125 77 136 304z" />
    <glyph glyph-name="E" unicode="E" horiz-adv-x="655" 
d="M1651 -183q5 -149 -98 -220q-86 -60 -237 -60q-153 0 -298 54q-131 47 -242 117q-153 95 -289 163q-58 30 -313 147l-102 -18q-51 0 -51 20q0 7 12 12q9 4 13 4q2 0 21 -3.5t22 -3.5q16 0 32 33q14 27 14 37q0 503 -6 524q-11 47 -45 58q-10 4 -25 3q-28 -2 -26 -2
q-10 0 -20 7q-2 1 -5 5q0 -2 3 10q3 4 6 6q9 5 24 5l165 -16l373 16q-2 0 15 -3q6 -4 13 -17q-1 -14 -1 -41q2 -13 6 -43q5 -26 5 -29q0 -16 -7 -31q-11 -1 -19 10q4 45 -41 69q-40 14 -79 29q-44 10 -164 23q-29 -5 -57 -10q-41 -11 -41 -34v-175q0 -40 6.5 -47t51.5 -7h82
q13 0 22.5 3t19.5 18q0 4 2 10q1 5 0 9q-1 5 -7 11q-1 6 10 19q23 2 29 -31q2 -26 4 -53q25 -77 25 -86q0 -6 -4 -16q-1 0 -4 -1t-6 -1t-8.5 2.5t-6.5 2.5q-4 2 -5 25q-1 15 -8 26q-21 32 -70 33l-90 2q-46 1 -46 -21q-4 -278 2 -293q8 -11 106 -46q128 -47 198 -80
q54 -26 141 -84q91 -62 136 -85q277 -204 523 -204q41 0 82 5q80 4 141 47.5t80 110.5q11 36 11 70q0 159 -204 160q-61 0 -111 -35q-55 -40 -55 -104q0 -55 30 -92q35 -41 97 -38q37 2 41 24q-23 13 -23 33q0 10 11.5 24.5t22.5 14.5q17 0 34 -13t17 -33q0 -9 -3 -18
q-23 -57 -103 -57q-64 0 -108 41q-50 47 -43 126q7 86 75 126q54 32 138 33q81 0 138 -40q68 -48 71 -137z" />
    <glyph glyph-name="F" unicode="F" horiz-adv-x="617" 
d="M608 602q0 -38 -8 -46q-4 0 -19 -3q-10 11 -5 21q-12 50 -47 69q-38 11 -75 23l-96 18q-39 -2 -77 -5q-61 -10 -61 -53v-183q0 -31 0 -27q2 -16 20 -16h120q12 0 25 14t13 20q0 3 -4.5 16.5t-4.5 16.5q0 13 15 13q2 0 5 -1q14 -9 17 -22q0 -21 6 -62q4 -18 22 -54
q15 -34 15 -36q0 -6 -6.5 -13.5t-12.5 -7.5q-7 0 -18 12q-1 15 -6 33q-22 34 -43 37q-53 7 -120 7q-32 0 -38 -15l-2 -32q-4 -40 -5 -78q0 -48 -7 -143q-1 -21 4 -43q9 -35 34 -35q3 0 10.5 3t10.5 3q19 0 19 -20q0 -6 -7 -13h-45q-9 3 -29 10q-14 3 -30 8q-10 -5 -41 -13
q-20 -5 -62 -5q-4 0 -20 8q-2 3 -6 16q8 7 14 7q2 0 9 -2t10 -2q21 0 30 11q30 39 30 104l1 401q0 19 -6 61q-7 51 -15 54q-13 10 -38 22l-52 6q-16 -2 -20.5 4.5t-1.5 13.5t18 8l70 2q38 -10 58 -10q4 0 44 -1h45q41 0 122 3q87 3 106 3q28 2 85 5l26 1q24 -105 24 -113z
" />
    <glyph glyph-name="G" unicode="G" horiz-adv-x="697" 
d="M700 346q0 -1 -1.5 -5.5t-1.5 -6.5q-6 -2 -19 0l-16 2q-21 0 -33 -18q-5 -7 -6 -45q-1 -27 0 -72q1 -54 1 -49q0 -75 -82 -123q-68 -39 -136 -39q-21 0 -70 7q-54 8 -71 16q-53 23 -60 27q-38 19 -53 35q-64 45 -105 129q-38 79 -38 154q0 70 18 130q34 111 156 176
q109 58 229 54q26 -1 81.5 -14.5t52.5 -13.5q118 -70 118 -95q0 -8 -23 -70q-29 -78 -30 -80q-9 -5 -15 -5q-16 0 -16 12q0 3 5.5 12t7.5 13q5 16 5 43q0 113 -119 147q-8 2 -34 12q-21 8 -24 8q-27 0 -38.5 2t-16.5 2q-76 0 -144 -45q-36 -24 -61 -64l-38 -64
q-13 -46 -25 -91.5t-10 -100.5q4 -117 71 -200q59 -74 138 -91q26 -7 53 -14q23 -5 56 -5q86 0 119 60q22 40 22 118q0 70 -5 89q-14 57 -69 57q-2 0 -18.5 -2t-18.5 -2q-4 0 -16 9q3 15 18 19q24 6 25 7l116 -18l63 14q15 -3 29 -5q19 -4 29 -16z" />
    <glyph glyph-name="H" unicode="H" horiz-adv-x="697" 
d="M689 22q0 -2 -1 -5.5t-1 -4.5q-28 -10 -26 -10q-49 0 -82 11l-71 -13h-41q-8 0 -18 14q-1 6 5.5 10.5t10.5 4.5q3 0 14 -1t14 -1q41 0 41 110l-1 199q0 33 -14.5 43t-47.5 10l-206 -2q-38 0 -46 -3q-24 -9 -24 -46v-264q0 -47 40 -47q2 0 11 3t12 3q10 0 17 -7
q0 -7 -1 -12l-1 -5q-24 -9 -37 -9l-123 7q-3 0 -15.5 -3.5t-15.5 -3.5t-11.5 1t-11.5 1t-16.5 5t-14.5 7v12q6 7 20 7q4 0 10.5 -1t8.5 -1q24 0 29.5 6.5t18.5 41.5q2 175 2 524q0 7 -9 41t-10.5 35t-14.5 2t-16 1t-10 -3.5t-10 -3.5q-26 8 -23 24q13 14 31 14q3 0 29 -3.5
t29 -3.5l126 4q13 0 36 -9l1.5 -5t1.5 -12q-8 -7 -17 -7q-3 0 -12 1.5t-11 1.5q-20 0 -30 -26q0 -1 -11 -44q0 -100 3 -162q5 -8 12 -22q142 -2 287 -2q14 0 24 10.5t10 23.5q0 105 -2 140q-4 49 -14 62q-15 19 -63 20q-6 1 -15 10q5 23 17 23l27 1l100 -10q51 -5 59 9
q13 -1 26 -3q20 -4 20 -18t-21 -14q-3 0 -12.5 2t-11.5 2q-15 0 -26 -26q-8 -20 -8 -33l1 -487q0 -46 2 -59q7 -44 35 -44q2 0 9 2.5t10 2.5q8 0 23 -16z" />
    <glyph glyph-name="I" unicode="I" horiz-adv-x="310" 
d="M280 690q1 -4 -5 -12.5t-12 -8.5q-3 0 -14.5 2t-14.5 2q-23 0 -25 -23q-7 -92 -7 -113v-381l3 -6q-1 -9 -1 -25q0 -96 40 -96q2 0 8 1t8 1q19 0 19 -10v-16l-22 -6l-92 10q-7 1 -33 -2t-38 -3q-3 0 -9 -2t-9 -2q-10 0 -24 6l-1 14q9 9 21 9q2 0 5.5 -1t6.5 -1q32 0 42 54
l4 62q1 101 1 202q0 118 -7 209q-1 33 -2 65q-7 52 -38 52q-3 0 -10.5 -1t-9.5 -1q-16 0 -18 12q-1 5 5.5 12t13.5 7l114 -11q3 0 23.5 5.5t23.5 5.5q40 0 54 -10z" />
    <glyph glyph-name="J" unicode="J" horiz-adv-x="297" 
d="M866 -301q0 -90 -74 -134q-58 -34 -145 -34q-120 0 -263 81q-95 55 -226 165q-6 -4 -15 -12q-16 -98 -74 -188q-71 -108 -170 -145q-58 -21 -123 -30q-21 -3 -69 -3q-141 0 -242 74q-120 87 -120 242q0 137 133 212q104 59 231 59q65 0 144 -15q65 -13 119 -37
q18 -8 74 -42q50 -31 55 -31q0 196 6 372q9 253 9 346q0 82 -15 89q-10 5 -42 5q7 0 -22 -4q-8 7 -8 15q0 19 25 18l97 -3q13 0 36 -2q20 -2 36 -2q2 0 15 2.5t16 2.5q4 0 17 -13q8 -12 8 -14v0q-2 0 -4 3q-10 -12 -19 -12q-32 3 -36 3q-19 -2 -26 -20q-1 -12 -5 -37v-161
q-2 -155 -9 -217q-1 -9 -1 -52q1 -33 -6 -50l-4 -201q0 -30 -3 -116q110 -86 168 -126q104 -70 170 -91q106 -33 164 -33q61 0 110 35q56 40 56 104q0 55 -31 91q-35 42 -97 38q-36 -1 -41 -24q23 -12 23 -32q0 -10 -11.5 -24.5t-22.5 -14.5q-17 0 -34 13t-17 33q0 9 4 17
q24 60 105 60q60 0 104 -39q50 -44 50 -121zM83 -179q-43 37 -94 65q-122 65 -268 71q-131 6 -231 -54q-113 -68 -113 -188q0 -135 106 -215q92 -69 215 -69q153 0 252 89q113 102 133 301z" />
    <glyph glyph-name="K" unicode="K" horiz-adv-x="644" 
d="M1624 -167q2 -14 2 -27q0 -77 -63 -148q-57 -64 -153 -110q-7 -3 -29 -31q-26 -31 -34 -39q-73 -62 -182 -78q-33 -4 -66 -4q-185 0 -351 150q-131 119 -256 341q-66 116 -179 365q-16 35 -60 111q-8 10 -21 10q-2 0 -7.5 -2t-9.5 -3q-24 -27 -29.5 -46t-5.5 -239
q0 -59 26 -59q2 0 10 2.5t11 2.5t6 -1q8 -6 11 -23q-12 -7 -28 -7q-26 4 -85 11q-40 2 -46 1q-9 -4 -28 -10q-23 -4 -28 0q-3 2 -8 10l-3 14q7 7 16 7q2 0 6 -1t7 -1q16 0 40 9q11 13 12 23q14 87 16 523q0 41 -6 58q-4 11 -18 32q-5 4 -34 10q-3 0 -16 -1q-9 -1 -10 5
q-2 6 3.5 14t14.5 10q5 1 12 -2t10 -4q13 -1 44 -4l44 -7q6 2 42 2q8 0 25 3.5t19 3.5q7 0 17 -9v-15q-1 0 -7 -4.5t-9 -4.5t-8.5 1t-8.5 1q-5 0 -16 -3q-16 -4 -24 -34v-236q15 -10 14 -11q67 69 134 137q121 126 121 138q0 18 -22 18q-10 0 -15 -2q-7 7 -12 17q5 4 5 9
q24 9 36 -1q9 -1 29 -4t22 -3t14.5 2.5t18.5 2.5q15 1 69 1q8 0 24 -11v-13q-10 -10 -16 -9l-43 9q-41 -4 -61 -16q-12 -7 -45 -40q-42 -42 -84 -83q-70 -75 -71 -101q-1 -11 20 -53q18 -35 35 -70l12 -30q80 -155 227 -432q227 -428 502 -428q26 0 53 4q66 9 124 35
q73 32 86 72q-66 -1 -85 -1q-102 5 -179 78t-77 174q0 69 43 117t113 57q14 2 28 2q89 0 156 -74q58 -63 68 -140q3 -20 3 -44q0 -32 -5 -71q-4 -35 -4 -33q0 -7 9 -13q76 27 124 95q46 65 46 136q0 13 -2 25q-3 20 -23 17q-3 -2 -18 -7q-8 -1 -24.5 8t-18.5 21q-4 29 32 34
q59 8 72 -86zM1411 -253q-11 78 -66 132q-58 58 -138 58q-15 0 -29 -2q-63 -8 -98 -54q-31 -41 -31 -97q0 -99 81 -163q75 -61 175 -61q50 0 80 15q30 38 30 117q0 28 -4 55z" />
    <glyph glyph-name="L" unicode="L" horiz-adv-x="593" 
d="M1656 -171q5 -149 -98 -221q-86 -59 -236 -59q-154 0 -299 53q-130 48 -242 118q-31 19 -195 135q-103 73 -180 103q-104 41 -236 43l-81 1l-39 -3q-5 0 -9 2t-8.5 6t-5.5 18q7 7 13 7q3 0 17 -3.5t17 -3.5q7 0 26 20q9 9 11.5 26t4.5 33l2 465q-2 25 -4 51q-3 30 -20 47
q-29 10 -53 8q-9 0 -13 10q-3 9 8 18q5 4 13 4q20 -2 15 -2q12 0 32 -4.5t21 -4.5l115 9q22 0 34 -5q4 -2 14 -13q0 -2 -1 -6q-5 -9 -14 -9q-3 0 -8 2t-8 2q-33 0 -48 -17q-7 -47 -7 -138l-2 -227q-1 -140 2 -225q3 -8 7 -24q6 -9 112 -30q126 -25 204 -61q32 -16 63 -31
q27 -13 56 -35q60 -43 77 -55q45 -30 81 -48q277 -205 524 -205q41 0 81 6q80 4 141.5 47.5t79.5 109.5q11 37 11 70q0 160 -204 161q-61 0 -110 -36q-56 -40 -56 -103q0 -56 31 -92q35 -41 96 -38q37 2 42 24q-23 12 -23 33q0 10 11 24.5t23 14.5q16 0 33.5 -13.5
t17.5 -33.5q0 -8 -4 -17q-23 -57 -103 -57q-64 0 -108 41q-50 47 -43 126q7 85 76 126q54 32 138 32q81 1 138 -39q67 -48 70 -137z" />
    <glyph glyph-name="M" unicode="M" horiz-adv-x="852" 
d="M824 12q-15 -12 -27 -12q7 0 -10 2.5t-46 6.5q-4 1 -40 7l-82 -12q-4 3 -21 7q-9 2 -9 12q0 6 5.5 11.5t7.5 5.5q3 0 11 -1t11 -1h17q13 4 17.5 20.5t8.5 33.5l-1 502q-11 18 -14 18q-4 0 -7 -7q-36 -89 -211 -478q-3 -6 -3 -25q-1 -8 -5 -13q-8 0 -12 5q-30 82 -119 268
q-93 196 -127 245q-3 -4 -3 -8l-11 -411q-3 -115 13 -137q8 -11 18 -14q7 -2 20 -1q20 2 23 2l13 -7q1 -1 6 -12q-7 -15 -16 -15l-107 3q-3 0 -32.5 -3.5t-32.5 -3.5q-32 0 -32 21q0 12 18 15q12 1 25 2q45 10 49 32q9 41 9 96l8 262q1 108 -4 168l2 38q0 20 -10 32
q-5 7 -20 16q-6 3 -16 0t-15 -2q-6 0 -36 12l-1 14q12 9 25 9q6 0 20 -3.5t23 -2.5q10 0 35 5.5t35 5.5q13 0 19 -6q18 -18 168 -339q21 -49 72 -155h12q28 44 54 105l46 112q66 158 116 271q3 7 14 7l86 -9q3 0 16.5 2.5t15.5 2.5q11 0 19 -12q1 -1 4 -5q-3 -6 -12 -19
q-5 1 -17.5 5t-15.5 4q-9 0 -20 -10.5t-11 -18.5q0 -401 5 -578q4 -20 10 -30t21 -12q-6 1 25 1q-3 0 14 -4q2 -1 9 -8v-12z" />
    <glyph glyph-name="N" unicode="N" horiz-adv-x="600" 
d="M597 702q-1 -3 -7 -6h-43q-12 0 -21 -21q-7 -16 -7 -23l3 -484q-2 2 5 -111q1 -7 4.5 -17.5t3.5 -12.5l7 -25q-11 -7 -18 -7q-11 0 -46 55q-28 45 -39 69q-46 72 -121 219q-101 199 -126 244q-9 17 -25 15q-2 -52 -6 -200l-7 -313q0 -14 6 -31q8 -21 19 -21t28.5 -4.5
t21.5 -9.5q1 -18 -21 -19l-67 5l-82 -1q-13 0 -24 9q0 4 1 8l1 4q32 4 53 10q24 21 29 60l2 58q8 139 20 420q1 56 -4 71q-8 26 -48 44q-13 0 -44 5q-1 3 -5 14q9 9 24 12l77 -10h53q33 -44 65 -103q28 -55 57 -109q47 -90 95 -181q58 -109 80 -129q5 2 5.5 11t1.5 17
l-4 357q-2 30 -8 91q-4 25 -33 32q-22 3 -45 6q0 6 0.5 11t7.5 7q13 4 52 4q2 0 18 -3t19 -3q6 0 20 3t20 3q49 1 52 -20z" />
    <glyph glyph-name="O" unicode="O" horiz-adv-x="757" 
d="M749 335q-7 -101 -71 -193t-147 -117q-17 -7 -35 -14q-31 -12 -43 -12l-66 -7q-115 0 -209 63q-100 65 -131 173q-24 81 -24 115q0 119 59 214q70 112 204 149q59 16 61 16q6 1 76 1q81 0 188 -79q75 -54 113 -156q31 -82 25 -153zM665 349q0 126 -40 211
q-55 114 -176 130q-36 5 -67 5q-82 0 -141 -33q-140 -79 -140 -358q13 -212 149 -260q81 -29 137 -26q139 7 205 79q73 80 73 252z" />
    <glyph glyph-name="P" unicode="P" horiz-adv-x="517" 
d="M520 524q0 -56 -34 -99q-30 -36 -86 -56q-41 -13 -107 -13q-94 1 -109 0q-1 -99 -4 -215q3 -30 7 -60q10 -50 46 -50q2 0 11 1t12 1q2 0 16 -11q4 -16 -14 -22l-103 18l-96 -9q-2 0 -11 -4.5t-12 -4.5q-7 0 -13.5 7.5t-6.5 13.5q0 15 13 15q3 0 7 -1.5t7 -1.5q37 0 51 16
t20 65l-5 389v117q-6 80 -61 80q-2 0 -16.5 -3.5t-16.5 -3.5q-19 0 -19 15q0 6 9.5 12t16.5 6q2 0 18.5 -3t18.5 -3l99 -6l137 6q225 0 225 -196zM449 530q0 88 -62 132q-53 38 -136 35q-57 -3 -61 -18q0 -9 -3.5 -32t-3.5 -24v-225q4 -4 4 -9l69 -9q193 4 193 150z" />
    <glyph glyph-name="Q" unicode="Q" horiz-adv-x="760" 
d="M1683 -88q6 -24 6 -48q0 -142 -185 -261q-6 -4 -25 -34q-21 -34 -29 -43q-95 -104 -232 -104q-169 0 -355 151q-133 107 -263 280l-104 152q-6 1 -47 -6q-45 -7 -70 -7q-17 0 -51.5 7t-48.5 14q-112 51 -179 125q-84 90 -84 199q0 272 210 358q76 32 128 32q27 0 74 -5
q104 -17 211 -100q37 -32 70 -103q36 -74 36 -126q0 -136 -57 -224q-50 -80 -169 -152q8 -12 72 -86q107 -139 209 -239q245 -240 422 -240q23 0 45 5q60 11 119 47q68 42 76 85q-32 -5 -84 -12q-101 -8 -181 51q-75 54 -98 139q-7 27 -7 53q0 60 36.5 105.5t97.5 62.5
q26 7 52 7q81 0 148 -63q59 -55 77 -125q11 -39 12 -96v-51q1 -7 10 -12q66 33 105 98q37 61 37 127q0 26 -6 50q-5 19 -25 14q-6 -1 -8.5 -4.5t-8.5 -4.5q-8 -2 -24 4q-19 7 -22 19q-1 4 -1 8q0 22 29 30q7 2 14 2q46 0 68 -79zM1279 -33q-26 0 -52 -7q-55 -15 -84 -57
q-27 -38 -27 -88q0 -23 6 -46q23 -83 96 -128q65 -40 147 -40q36 0 69 9q24 6 42 18q18 29 18 79q0 102 -54 177q-61 83 -161 83zM660 329q0 102 -24 183q-32 106 -101 146q-75 43 -160 43q-56 0 -109 -19q-78 -30 -118 -120q-12 -25 -48 -155q0 -88 6 -124q7 -47 35 -115
q8 -19 37 -52q35 -38 59 -44l82 24q44 3 84 -13q35 -15 69 -30q2 -1 16.5 -9t15.5 -8q22 8 52 32.5t41 44.5q24 42 43.5 106.5t19.5 109.5zM460 29q-17 11 -51 31q-15 7 -45 11q-31 4 -47 0q-43 -11 -41 -27q64 -25 65 -26q8 -2 52 -2q55 0 67 13z" />
    <glyph glyph-name="R" unicode="R" horiz-adv-x="656" 
d="M1758 -184q2 -14 2 -27q0 -77 -63 -148q-57 -64 -153 -110q-15 -7 -42 -43q-30 -39 -63 -59q-53 -34 -140 -46q-38 -5 -74 -5q-208 0 -380 172q-116 117 -235 341q-139 261 -245 420q-17 25 -33 40q-30 5 -46 4q-65 -3 -86 -3q0 -17 -5 -118q-3 -72 -2 -119q2 -86 46 -85
q2 0 11.5 3.5t13.5 3.5q6 0 17 -11q46 -3 93 -6q27 -2 11 -4q-12 -1 -101 -4q-10 -12 -28 -13q-2 2 -11 2l-93 9l-102 -10q-1 0 -16 3q-4 5 -12 13q2 6 5.5 12.5t10.5 7.5l27 -4q43 8 53 53q2 8 3 74l5 318l-8 141q-1 24 -11 53q-7 14 -25 13h-42q-2 -2 -9 -4q-7 0 -13 8.5
t-6 11.5q0 6 6 12t13 6l139 -8l202 10q11 0 27 -4q66 -17 104 -72q31 -46 32 -98q0 -36 -14 -74q-17 -45 -49 -70q0 -1 -21 -14q-12 -8 -16 -17l26 -66q6 -13 37 -62q36 -59 77 -137q35 -67 70 -135l73 -137q225 -424 518 -424q27 0 54 4q66 9 124 35q73 32 86 72
q-66 -1 -85 -1q-102 5 -179 78t-77 174q0 69 43 117t113 57q14 2 28 2q89 0 156 -74q58 -63 68 -140q3 -20 3 -44q0 -32 -5 -71q-4 -35 -4 -33q0 -7 9 -13q76 27 124 95q46 65 46 136q0 13 -2 25q-3 20 -23 17q-3 -2 -18 -7q-8 -1 -24.5 8t-18.5 21q-4 29 32 34q59 8 72 -86
zM1545 -270q-11 78 -66 132q-58 58 -138 58q-15 0 -29 -2q-63 -8 -98 -54q-31 -41 -31 -97q0 -99 81 -163q75 -61 175 -61q50 0 80 15q30 38 30 117q0 28 -4 55zM466 541q-2 81 -69 123q-54 32 -129 31q-12 -1 -35 -4q-19 -17 -29 -22l-5 -251q0 -22 11 -32.5t33 -10.5
q30 -1 90 -1q21 0 35 6q38 14 59 43q15 21 27 56.5t12 61.5z" />
    <glyph glyph-name="S" unicode="S" horiz-adv-x="521" 
d="M493 146q-23 -36 -47 -72q-27 -39 -64 -57q-69 -34 -159 -34q-78 0 -129 28q-58 33 -64 96q0 84 47 134t133 50q51 0 88 -28.5t37 -71.5q0 -50 -41 -50q-17 0 -31.5 11.5t-14.5 27.5q0 5 28 46q-16 33 -78 33q-55 0 -93 -39t-39 -95q-1 -64 84 -91q59 -19 140 -18
q44 0 93.5 58t47.5 102q-3 83 -58 132q-32 27 -124.5 69t-135.5 81q-13 12 -25 39t-13 46q-1 83 60 139q59 53 138 49q36 -1 114 -33q97 -40 98 -79q0 -14 -34 -74.5t-45 -70.5q-4 -2 -13 -3q-1 0 -16 7q3 14 11 25q12 15 12 17q12 23 11 50q0 61 -42.5 97t-101.5 36
q-29 0 -56 -9q-30 -11 -48.5 -46.5t-18.5 -69.5q1 -61 100 -116q65 -34 131 -69q62 -35 89 -72q33 -46 33 -119q0 -26 -4 -56z" />
    <glyph glyph-name="T" unicode="T" horiz-adv-x="684" 
d="M1100 1051q36 -45 36 -95q0 -91 -104 -172q-50 -39 -160 -56q-86 -10 -174 -19.5t-176 -18.5q-117 -13 -118 -24q-8 -110 -7 -281q3 -247 2 -281q-1 -74 47 -75q3 0 8.5 2t8.5 2q7 0 21 -14v-14q-15 -5 -28 -5l-96 16q-6 -3 -22 -3l-81 -9q-19 0 -24 8q0 12 2 19h25
q37 0 48 40q2 9 5 59q5 108 6 263v262q0 21 -17 26q-5 2 -26 2q-67 -1 -101 -14q-46 -18 -89 -73q-20 -25 -21 -53q-3 -4 -16 -7q-10 6 -10 21q0 13 19 74q24 80 50 87q2 1 9 -2t10 -3q76 -6 155 -6q174 0 570 52q116 15 177 63q71 55 71 136q0 42 -26 75q-43 56 -102 56
q-42 0 -78 -32q-21 -17 -21 -34q0 -6 3 -10q26 5 38 -12q6 -8 6 -25q0 -19 -9 -26q-13 -11 -33 -11q-34 0 -43 32q-3 11 -3 22q0 48 44 85.5t102 37.5q72 0 122 -65z" />
    <glyph glyph-name="U" unicode="U" horiz-adv-x="722" 
d="M723 77q-9 -33 -87 -53q-11 -7 -21 -14q-19 -12 -26 -12q-27 0 -33 40l-4 52v87q-1 44 -8 79q-9 -27 -38 -82q-63 -89 -91 -116q-60 -58 -131 -58q-136 0 -136 210q0 21 2 61v312q0 97 -74 97q-3 0 -14.5 -3t-13.5 -3q-18 0 -18 14q0 5 9 19l29 2q14 0 39 -5.5t52 -5.5
q45 0 61 5q14 -8 14 -19q-4 -69 -4 -441q0 -35 -1 -79q0 -26 0.5 -35.5t5.5 -28.5q5 -24 24 -45t38 -21q3 0 13 -2.5t12 -2.5q22 0 57 25q31 22 46 42q129 170 129 461q0 93 -26 120q-11 6 -30 6q-3 0 -11 -2.5t-10 -2.5q-20 0 -20 18q0 8 16 18l88 -14q20 2 54 8q31 6 34 6
q32 0 32 -20q0 -6 -6.5 -11t-9.5 -5q-2 0 -13.5 2.5t-13.5 2.5q-14 0 -31 -6q-10 -4 -16 -39q-4 -29 -4 -54v-405q0 -32 7 -61q14 -52 48 -53q14 4 38 7q7 6 16 15q5 5 9 5t18 -15z" />
    <glyph glyph-name="V" unicode="V" horiz-adv-x="665" 
d="M640 679q0 -5 -9 -12t-12 -7t-10 2.5t-10 2.5q-40 0 -64 -46q-8 -15 -31 -89q-7 -23 -65 -242q-24 -74 -67 -244q-7 -36 -15 -43q-14 1 -25 29q-7 22 -15 45q-39 98 -134 379q-23 73 -46 145q-30 78 -65 79q-3 0 -11.5 -1t-11.5 -1q-13 0 -24 7v19q4 7 23 7q3 0 20.5 -3
t18.5 -2t56 -8l86 7q26 0 34 -26q-6 -8 -15 -8q-3 0 -13.5 3.5t-12.5 3.5q-19 0 -19 -20q39 -124 73 -228q76 -233 93 -263q7 -1 11 10q37 139 114 417q-3 3 0 40q-3 13 -15 19q-19 11 -20 12q-11 -8 -21 -5q-23 8 -17 33q5 1 17.5 5t15.5 4q2 0 11 -3.5t12 -4.5
q17 -1 48 -7l73 11l22 -2q20 -4 20 -15z" />
    <glyph glyph-name="W" unicode="W" horiz-adv-x="895" 
d="M893 681q-6 -7 -16 -7q-3 0 -7 1t-7 1q-10 0 -22 -3q-39 -10 -67 -79q-18 -42 -36 -114q-28 -115 -29 -117q-36 -121 -108 -366q-5 -1 -12 3.5t-9 9.5q-37 171 -114 513q-4 14 -13 13l-116 -542l-8 3t-11 3q-5 11 -19 61q-21 84 -67 251q-23 91 -46 183q-35 130 -57 156
q-12 14 -40 14l-15 -2q-12 -2 -18 0q-1 3 -2.5 10.5t-2.5 10.5q5 12 14 12l104 -5q2 0 11 -2t13 -2l88 13q9 -1 19 -2q13 -4 15 -21q-7 -8 -16 -8q-3 0 -11 2.5t-10 2.5q-40 0 -40 -31q0 -34 48 -222q45 -178 62 -223q3 0 4 2q39 183 117 551q4 19 18 37q8 6 16 6
q11 0 14 -10v-12q-16 0 -17 -23q-1 -21 48 -245q50 -227 74 -306q8 0 10 4q22 69 60 206q52 189 52 221q0 14 -7 29q-9 20 -22 20q-2 0 -18.5 -3.5t-18.5 -3.5q-8 0 -14 6t-6 11q0 15 20 15l116 -12q3 0 10 1.5t10 1.5q7 7 13 8q25 3 43 3q1 0 9 -3q9 -6 14 -21z" />
    <glyph glyph-name="X" unicode="X" horiz-adv-x="717" 
d="M681 18q-1 -17 -31 -17l-57 7q-3 0 -21.5 -1t-22.5 -1t-71 -12q-12 0 -30 6q-4 3 -8 7t-3 13q8 8 15 8q3 0 17.5 -2.5t17.5 -2.5q26 0 26 18q0 4 -3 8q-79 125 -82 129q-61 94 -90 125q-42 -63 -83 -127q-55 -85 -57 -113q-1 -11 12 -21t19 -10q3 0 12 1t11 1q7 0 14 -5
t6 -11q-1 -19 -24 -19l-120 9l-70 -12l-12 6q-10 5 -9 13q0 5 6 15q1 0 41 -1q25 0 39 6q18 8 98 135q90 146 98 155q-56 95 -113 190q-92 150 -111 163q-4 3 -19 3q-3 0 -12.5 -2.5t-12.5 -2.5q-16 0 -15 17t31 17l57 -7q3 0 21.5 1t22.5 1t71 11q12 0 30 -5l8 -8t3 -13
q-8 -7 -15 -7q-3 0 -17.5 2.5t-17.5 2.5q-24 0 -24 -19q0 -42 158 -279h10q43 68 86 135q57 94 59 123q1 11 -12 21t-19 10q-3 0 -12 -1.5t-11 -1.5q-7 0 -14 5.5t-6 11.5q1 19 24 19l120 -9l70 11q6 -3 13 -5q9 -5 8 -14q0 -4 -5 -14h-42q-25 1 -39 -5q-21 -9 -107 -146
q-77 -124 -95 -163q43 -70 117 -180q93 -141 113 -154q4 -3 19 -3q3 0 12.5 2t12.5 2q16 0 15 -16z" />
    <glyph glyph-name="Y" unicode="Y" horiz-adv-x="662" 
d="M677 700q0 -4 -5 -14h-41q-25 1 -39 -5q-23 -10 -41 -43q-6 -13 -24 -58q-22 -58 -66 -173q-27 -67 -55 -134q-18 -50 -18 -112v-90q0 -36 45 -36q2 0 10 1t11 1q19 0 17 -15q-1 -4 -14 -12q-16 -10 -36 -10q-10 4 -34 10h-34h-26q-15 -4 -48 -10q-7 -1 -22 -1
q-24 0 -24 17q0 8 8.5 13.5t15.5 5.5q3 0 7.5 -2.5t6.5 -2.5q20 0 33 18q11 15 11 31l-7 133q0 7 -2 15q-56 123 -158 362q-4 6 -23 54q-11 26 -32 40q-4 3 -19 3q-3 0 -12.5 -2.5t-11.5 -2.5q-17 0 -17 17t30 17l58 -7q3 0 21 1t22 1t70 11q12 0 31 -5q4 -4 8.5 -8t3.5 -13
q-7 -7 -14 -7q-3 0 -18 2.5t-18 2.5q-20 0 -21 -26q-1 -44 73 -205q65 -143 87 -172h10q22 49 65 140q7 14 41 106q38 103 38 117q0 11 -16 22q-12 9 -18 9q-3 0 -11.5 -1.5t-11.5 -1.5q-7 0 -14 5.5t-7 11.5q0 19 23 19l120 -9l69 11q7 -3 14 -5q9 -5 9 -14z" />
    <glyph glyph-name="Z" unicode="Z" horiz-adv-x="618" 
d="M1628 -161q5 -150 -98 -221q-86 -59 -236 -59q-154 0 -299 53q-130 47 -242 117q-134 84 -293 149q-274 113 -318 133q-3 0 -45.5 -6.5t-45 -6.5t-13.5 -2.5t-14 -2.5q-6 0 -12.5 9t-6.5 11q0 10 14 15l20 6q40 21 142 185q31 51 132 225q36 50 73 101q50 71 57 113
q-13 10 -42 16l-159 6q-16 0 -67 -10q-23 -17 -51 -47q-32 -34 -37 -52q-5 -21 -11 -35q-22 3 -22 28q0 23 41 131q9 23 28 23l405 -10l58 3q3 0 9.5 -1.5t7.5 -1.5q8 -4 10 -18q-18 -8 -41 -20q-38 -33 -60 -71q-44 -74 -111 -170q-30 -42 -76 -118q-48 -81 -74 -119
q-84 -123 -84 -127q0 -7 6 -11q6 -8 112 -29q125 -25 204 -62q32 -15 63 -30q27 -14 56 -35q60 -43 77 -55q45 -30 81 -49q277 -204 524 -204q41 0 81 6q80 3 141 46.5t80 110.5q11 36 11 70q0 159 -204 160q-61 0 -110 -35q-56 -40 -56 -104q0 -55 31 -91q35 -42 96 -38
q37 1 41 24q-23 12 -23 32q0 10 11.5 24.5t23.5 14.5q16 0 33 -13t17 -33q0 -9 -3 -17q-23 -58 -103 -58q-64 0 -108 41q-50 47 -43 127q7 85 76 125q54 33 137 33q81 0 138 -40q68 -47 71 -136z" />
    <glyph glyph-name="backslash" unicode="\" horiz-adv-x="1000" 
d="M5190 654q0 59 -35 113.5t-92 78.5q-113 47 -217 47q-206 0 -229 -189q0 -42 53 -87q48 -42 99 -55q26 -9 57 -9q71 0 135.5 38.5t64.5 85.5q0 50 -83 85q-19 9 -56 9q-92 0 -109 -37q27 -41 27 -46q0 -16 -14.5 -27.5t-31.5 -11.5q-43 0 -41 50q3 51 75 85q40 20 90 20
q65 0 111 -31q50 -33 50 -87q0 -14 -4 -29q-14 -62 -78 -98q-59 -33 -137 -33q-86 0 -149 40q-70 46 -81 126q-3 16 -3 32q0 99 90 153q77 47 194 47q126 0 204 -50q69 -43 107 -104.5t38 -125.5q0 -100 -89 -165q-149 -109 -335 -109q-283 0 -602 234q-142 -30 -249 -30
q-177 0 -286 79q-33 42 -33 79q0 55 63 90q58 33 131 33q66 0 101 -29q89 -32 126 -63q19 -3 81 -44.5t91 -70.5q105 56 169 142t64 177q0 97 -75 175q6 2 13 2q35 0 71 -68q24 -45 24 -102q0 -97 -63 -191q-65 -98 -167 -145q-9 -4 -7 -9q335 -223 594 -223q54 0 106 9
q84 16 157 84q80 74 80 155zM5526 -398q0 -155 -120 -243q-101 -73 -242 -73q-48 0 -69 2q-66 9 -123 31q-100 36 -170 145q-59 90 -75 187q-5 4 -14 12q-131 -109 -227 -164q-142 -81 -262 -81q-87 0 -145 34q-74 44 -74 134q0 76 50 121q43 39 104 39q81 0 105 -60
q4 -9 4 -17q0 -20 -17.5 -33.5t-33.5 -13.5q-12 0 -24 16q-10 13 -10 23q0 21 23 33q-2 6 -6 11q-11 12 -36 13q-61 3 -96 -38q-31 -36 -31 -92q0 -63 56 -103q49 -36 110 -36q58 0 163 33q101 32 339 217l-3 117l-5 219q9 11 39 11q34 0 36 -2l-2 -296q5 0 54 30
q56 35 75 43q53 24 119 36q78 16 143 16q127 0 232 -59q133 -75 133 -212zM3568 -144q0 -127 -89 -283q-102 -177 -249 -241q-239 -104 -493 -101q-125 1 -210 47q-111 60 -111 178q0 84 47.5 134.5t132.5 50.5q51 0 88 -29t37 -71q0 -51 -41 -51q-16 0 -30.5 12t-14.5 27
q0 5 27 46q-16 34 -77 34q-56 0 -94 -39.5t-38 -94.5q0 -125 113 -174q79 -35 196 -29q230 11 398 83q253 108 311 334q22 89 22 199q0 54 -6 138q11 15 42 15q23 0 39 -10v-175zM2856 534q3 -172 -126 -257q-108 -71 -282 -71q-137 0 -251 41q-126 45 -242 117
q-112 77 -225 153q-137 91 -236 128q-40 15 -78 15q-107 0 -162 -101q-4 -2 -7 0q-2 2 -9 2q62 127 196 127q61 0 131 -26q46 -17 66 -26q37 -18 60 -38q35 -4 119 -65q60 -43 77 -55q45 -30 81 -48q126 -93 212 -133q129 -59 268 -59q69 0 144 14q87 4 164 85.5t77 170.5
q0 58 -39 101q-49 55 -105 81q-38 18 -109 32q-34 7 -73 7q-100 0 -167 -40q-84 -50 -84 -149q0 -42 53 -87q48 -42 99 -55q26 -9 57 -9q71 0 135.5 39t64.5 85q0 51 -83 86q-19 8 -56 8q-92 0 -109 -37q27 -41 27 -46q0 -15 -14.5 -26.5t-31.5 -11.5q-43 0 -41 50
q3 50 75 84q40 20 90 20q65 0 111 -30q50 -34 50 -88q0 -14 -4 -29q-14 -62 -78 -98q-59 -33 -137 -33q-86 0 -149 40q-70 46 -81 126q-3 17 -3 32q0 99 89 152q77 45 193 45q125 0 206 -47q58 -34 97 -83.5t40 -92.5zM724 2061q4 -171 -126 -257q-107 -70 -281 -70
q-138 0 -252 41q-125 44 -239.5 118.5t-226.5 150.5q-137 91 -237 128q-40 15 -78 15q-107 0 -161 -100q-4 -3 -7 -1q-2 2 -9 2q61 127 196 127q60 0 130 -26q46 -17 66 -26q37 -17 61 -37q34 -4 119 -65q60 -43 77 -55q44 -30 81 -49q125 -93 212 -132q129 -60 267 -60
q70 0 145 14q87 5 163.5 86t76.5 170q0 59 -38 102q-109 120 -284 120q-61 0 -110 -35q-56 -40 -56 -104q0 -55 31 -91q35 -42 97 -38q36 1 41 24q-23 12 -23 32q0 10 11.5 24.5t22.5 14.5q17 0 34 -13t17 -33q0 -9 -4 -17q-24 -60 -105 -60q-60 0 -104 39q-50 44 -50 121
q0 90 74 134q58 34 145 34q100 0 205 -63q118 -71 119 -165zM1961 -387q0 -86 -75 -155q-66 -61 -177 -97q-7 -2 -33 -26q-30 -28 -39 -34q-81 -52 -191 -52q-251 0 -404 206q-133 179 -133 412v164q14 15 30 15q24 0 32 -13t8 -42q0 -8 -1 -31.5t-1 -38.5v-156
q0 -191 132 -335q137 -149 333 -149q66 0 127 17q76 21 95 60q-32 4 -84 11q-100 18 -162 96q-58 72 -58 160q0 79 51 129.5t129 50.5q100 0 165 -87q55 -74 55 -159q0 -41 -13.5 -96.5t-13.5 -49.5q0 -6 8 -14q86 18 145 88q57 67 57 142q0 21 -21 21q-6 0 -9 -2.5t-9 -2.5
q-9 0 -24 11t-15 23q0 30 37 30q59 0 59 -96zM481 -350q0 -43 -36 -82q-38 -43 -83 -37q-26 4 -44.5 22t-18.5 42q0 43 43 46q33 1 33 -28q0 -21 -15 -51q10 -2 20 -2q38 0 58 31q16 25 16 57q0 80 -86 124q-62 33 -128 33h-31q-24 -3 -27 -17q-2 -77 -4 -155
q-8 -158 -46 -252q-55 -132 -170 -132q-60 0 -84 79q-13 43 -13 98q0 221 241 385q-3 50 -3 60v136q0 29 1 29q64 0 74 -6l4 -196q98 6 166 -18q53 -18 93 -68t40 -98zM-1481 -547q18 32 18 90q0 67 -23 133q-23 71 -61 102q-103 85 -218 85q-94 0 -161.5 -52.5
t-67.5 -117.5q0 -96 144 -138q24 -6 51 -6q74 0 140 38t66 85q0 49 -83 84q-19 9 -56 9q-92 0 -109 -37q27 -41 27 -46q0 -16 -14.5 -27.5t-30.5 -11.5q-44 0 -41 50q2 50 74 85q40 20 90 20q65 0 111 -31q50 -33 50 -87q0 -15 -3 -29q-15 -62 -79 -98q-59 -34 -137 -34
q-86 0 -149 41q-70 45 -81 126q10 104 89 159q69 49 171 49q73 0 139 -25.5t103 -68.5q85 -100 85 -240q0 -81 -33 -141q-36 -65 -102 -88q-92 -32 -185 -32q-190 0 -380 132q-156 109 -294 293q-369 33 -497 203q-14 36 -14 65q0 92 121 92q112 0 195 -68q59 -44 128 -119
q74 -80 104 -138q15 3 112 6q76 2 103 17q32 17 131 109q93 88 285 115q4 -28 -26 -29q-118 -6 -207 -85l-88 -82q-55 -47 -101 -62q-71 -23 -183 -18h-2q306 -373 605 -406q11 -1 24 -1q73 0 147 34q82 37 113 96zM5494 -398q0 120 -114 188q-99 60 -230 54
q-217 -9 -362 -136q20 -199 132 -301q100 -90 253 -90q123 0 215 70q106 80 106 215zM4169 638q-94 60 -187 120q-125 71 -203 64q-47 -4 -66 -9q-45 -30 -45 -68q0 -51 70 -96q63 -40 117 -42t96 -2q194 0 218 33zM1738 -441q0 85 -55 149q-59 69 -150 69q-71 0 -113 -49
q-37 -45 -37 -108q0 -105 87 -174q77 -60 172 -60q26 0 46 6q50 47 50 167zM103 -230q-114 -66 -169 -167q-45 -83 -45 -176q0 -43 15 -82q23 -59 72 -59q75 0 108 126q25 92 25 235q0 92 -6 123zM-2454 -236q-72 84 -143 169q-99 105 -175 121q-24 5 -46 5q-88 0 -88 -62
q0 -24 16 -56q19 -37 55.5 -70t71.5 -45q203 -69 276 -69q23 0 33 7z" />
    <glyph glyph-name="a" unicode="a" horiz-adv-x="465" 
d="M464 94q3 -20 -24.5 -57t-52.5 -37h-18q-42 0 -62 63q-9 41 -18 81q-72 -143 -164 -143q-62 0 -97 58q-28 47 -28 110q0 76 41 145q44 75 125 117q33 17 96 17q28 0 47 -11.5t36 -22.5q10 26 20.5 35.5t34.5 9.5q16 0 21 -10q-21 -20 -33 -37q-20 -27 -25 -118v-106
q0 -24 12 -65q17 -55 41 -55q14 0 25.5 13.5t22.5 12.5zM326 375q0 50 -70 50q-84 0 -132 -81q-38 -64 -38 -138q0 -43 12 -83q19 -65 63 -65q63 0 112 105q14 28 33.5 104.5t19.5 107.5z" />
    <glyph glyph-name="b" unicode="b" horiz-adv-x="474" 
d="M466 221q0 -62 -42 -135q-49 -87 -119 -87q-68 0 -130 73q-16 -77 -92 -77q-17 0 -50 9v13q60 13 63 83q7 142 0 390q-4 160 -4 411q0 192 -132 335q-137 150 -333 150q-66 0 -127 -17q-76 -22 -95 -60q32 -4 84 -11q100 -19 162 -96q58 -72 58 -160q0 -79 -51 -129.5
t-128 -50.5q-101 0 -166 87q-55 74 -55 159q0 41 13.5 96t13.5 50q0 6 -7 13q-87 -18 -144.5 -86t-57.5 -144q0 -20 20 -20q6 0 9.5 2t8.5 2q9 0 24 -11t15 -23q0 -29 -36 -29q-60 0 -60 95q0 86 75 155q66 62 177 97q8 3 34 27q29 28 39 34q80 51 190 51q251 0 404 -205
q133 -180 133 -412q0 -71 6 -199q6 -139 7 -199q52 42 74 50q18 7 64 7q38 0 76 -35q79 -71 79 -203zM-313 1046q0 106 -88 174q-77 61 -172 61q-25 0 -46 -6q-50 -48 -50 -167q0 -86 55 -150q59 -69 150 -69q71 0 113 50q38 45 38 107zM402 281q0 55 -23 98q-29 55 -83 55
q-60 0 -96 -51q-31 -44 -29 -98l2 -65q6 -41 11 -83q13 -53 62 -68q4 0 13 -1t11 -1q66 0 104 87q28 65 28 127z" />
    <glyph glyph-name="c" unicode="c" horiz-adv-x="427" 
d="M409 341q0 -23 -19 -48q-21 -29 -48 -29q-22 0 -33 12q7 12 15 23q13 21 13 43q0 90 -108 90q-64 0 -102 -57q-33 -49 -33 -113q0 -22 5 -39q8 -50 39 -95q33 -50 73 -61q35 -10 59 -10q57 0 90 56h12q7 -6 5 -12q-33 -90 -128 -101q-12 -1 -24 -1q-88 0 -150 68
q-57 62 -57 138q0 110 60 180q64 74 175 74q48 0 97 -29q59 -35 59 -89z" />
    <glyph glyph-name="d" unicode="d" horiz-adv-x="474" 
d="M1115 1094q0 -77 -50 -121q-44 -39 -104 -39q-81 0 -105 60q-4 9 -4 17q0 20 17 33t34 13q11 0 22.5 -14.5t11.5 -23.5q0 -21 -23 -33q1 -7 6 -11q11 -12 35 -13q62 -3 97 38q31 36 31 92q0 63 -56 103q-49 35 -110 35q-58 0 -164 -32q-100 -32 -338 -217l3 -117
q0 -96 2 -286q-1 -181 1 -491q2 -57 31 -57q-4 0 17 5q7 -5 7 -10q0 -14 -31 -23q-25 -7 -43 -7q-27 0 -44 28q-15 24 -15 48q0 36 1 47l-2 6q-70 -88 -88 -102q-32 -27 -86 -25q-74 2 -116 59q-38 52 -38 128q0 95 64 176q70 88 168 86q25 -1 54.5 -16t43.5 -35l1 156
q-1 50 3 123q0 109 1 163q1 45 1 95q-5 0 -55 -31q-56 -34 -74 -42q-54 -24 -119 -37q-79 -15 -144 -15q-127 0 -231 59q-133 75 -133 212q0 155 120 242q101 74 242 74q102 0 192 -33q95 -35 156 -117q41 -55 70 -141q28 -81 33 -87q131 110 226 165q143 81 263 81
q87 0 145 -34q74 -44 74 -134zM332 972q-20 199 -133 301q-99 89 -252 89q-123 0 -215 -69q-106 -80 -106 -215q0 -120 113 -188q100 -60 231 -54q217 9 362 136zM345 244q5 59 -12 106q-27 71 -97 71q-75 0 -113 -81q-29 -59 -29 -130q0 -60 25 -104q31 -54 92 -54
q51 0 91 61q37 57 43 131z" />
    <glyph glyph-name="e" unicode="e" horiz-adv-x="405" 
d="M397 320q0 -36 -28 -80q-31 -48 -69 -59q-54 -14 -81 -14q-23 0 -50 7q-7 1 -15 11q0 5 10 15q30 -9 55 -9q45 0 71.5 29t26.5 85q0 54 -25 88q-29 39 -86 39q-23 0 -53.5 -24t-36.5 -46q-16 -63 -16 -76q0 -6 6 -74q0 -35 24 -77.5t54 -61.5q74 -35 105 -35q36 0 67 32
l18 -4q5 -14 -37 -48q-41 -22 -85 -22q-32 0 -95 17q-62 31 -102 91q-38 57 -38 113q0 96 63 168q67 76 169 76q63 0 105.5 -40t42.5 -101z" />
    <glyph glyph-name="f" unicode="f" horiz-adv-x="291" 
d="M1003 985q0 -84 -47.5 -134.5t-132.5 -50.5q-51 0 -88 29t-37 71q0 50 41 50q17 0 31 -11.5t14 -26.5q0 -5 -27 -46q16 -34 78 -34q55 0 93.5 39.5t38.5 94.5q0 110 -88 164q-69 42 -170 42q-27 0 -52 -3q-140 -20 -221 -65q-173 -94 -228 -315q-21 -82 -21 -215
q0 -59 4 -119q2 -2 9 -5q3 -1 17.5 1t21.5 2q24 0 24 -17v-15q-11 -4 -13 -4q-3 0 -14.5 2t-14.5 2q-18 0 -33 -8q-14 -208 -6 -579q98 6 166 -18q53 -18 93 -68t40 -98q0 -43 -36 -82q-38 -43 -83 -37q-26 4 -44.5 22t-18.5 42q0 43 43 46q33 1 33 -28q0 -21 -15 -51
q10 -2 20 -2q38 0 58 31q16 25 16 57q0 80 -86 124q-62 33 -128 33h-31q-24 -3 -27 -17q-2 -77 -4 -155q-8 -158 -46 -252q-55 -132 -170 -132q-60 0 -84 79q-13 43 -13 98q0 221 241 385q-3 50 -3 60v531q0 13 -11.5 20.5t-21.5 7.5q-2 0 -12.5 -2.5t-13.5 -2.5
q-14 0 -14 13q0 7 12 18q20 0 59 2q9 32 6.5 79.5t2.5 69.5q0 153 99 314q102 165 239 225q101 44 134 53q22 5 100 11q118 8 210 -43q111 -62 111 -182zM103 -230q-114 -66 -169 -167q-45 -83 -45 -176q0 -43 15 -82q23 -59 72 -59q75 0 108 126q25 92 25 235q0 92 -6 123z
" />
    <glyph glyph-name="g" unicode="g" horiz-adv-x="524" 
d="M539 408l-20 -1q-16 17 -24 12q-5 -3 -18 -5q-8 -1 -17 -13q-10 -36 -10 -85q1 -33 1 -67q-1 -206 -1 -370q0 -232 -134 -412q-153 -206 -404 -206q-110 0 -190 52q-29 28 -72 60q-111 36 -178 98q-74 68 -74 154q0 96 59 96q37 0 37 -29q0 -13 -15 -24t-24 -11
q-6 0 -9.5 2.5t-8.5 2.5q-21 0 -21 -21q0 -75 57 -142q59 -70 145 -88q8 8 8 14q0 -6 -14 49.5t-14 96.5q0 85 56 159q65 87 165 87q78 0 129 -50.5t51 -129.5q0 -88 -58 -160q-62 -77 -163 -96q-17 -4 -83 -11q18 -38 95 -60q61 -17 127 -17q196 0 332 149q132 144 132 335
q0 151 -5 362q-2 2 -5 1l-42 -68q-20 -27 -63 -52q-38 -20 -90 -20q-74 0 -111 47q-32 40 -32 109q0 113 72 202q77 97 190 93q23 -1 40.5 -10t34.5 -19q8 14 20 21q5 1 19 1q-1 0 45 -6l44 6q12 -3 23 -6q18 -6 18 -19v-11zM374 300q0 127 -102 127q-56 0 -106 -67
q-26 -35 -43 -96q-15 -53 -15 -91q0 -46 18 -80q25 -47 75 -47h15q81 0 126 102q32 75 32 152zM-24 -368q0 63 -37 108q-42 49 -113 49q-91 0 -150 -69q-55 -64 -55 -149q0 -120 50 -167q20 -6 46 -6q94 0 172 60q87 69 87 174z" />
    <glyph glyph-name="h" unicode="h" horiz-adv-x="569" 
d="M565 72q-11 -25 -65 -52q-50 -25 -69 -22q-22 2 -32 7q-17 19 -17 55q1 61 1 59l2 133q-6 35 -13 70q-9 42 -35 68q-10 10 -36 10q-24 0 -61 -60q-33 -52 -43 -88q-14 -50 -20 -85q-11 -65 -11 -68q-2 -26 0 -48q2 -26 2 -24q0 -12 -12 -27h-57q-9 0 -29.5 -4.5
t-30.5 -4.5q-5 5 -5 11q0 8 26.5 18t26.5 25q0 32 -2 315q-1 197 1 327l-3 136q-98 -7 -165 17q-54 19 -94 69t-40 98q0 42 37.5 83.5t81.5 35.5q27 -4 45 -22t18 -43q0 -43 -43 -45q-32 -2 -32 28q0 21 14 51q-10 2 -19 2q-38 0 -59 -32q-16 -24 -16 -56q0 -81 86 -125
q62 -32 128 -32q32 0 31 0q24 3 28 16q1 78 3 155q8 159 47 252q55 132 169 132q60 0 84 -78q13 -44 13 -99q0 -220 -240 -384q2 -50 2 -61q0 -29 2 -76.5t2 -74.5q0 -321 4 -380q15 38 30 77q23 51 51 78q39 35 97 35q78 0 102 -102q11 -43 11 -132q0 -98 -1 -90
q4 -73 24 -73q11 0 17 2q17 12 54 38q14 -5 10 -15zM376 1230q0 43 -15 82q-23 59 -72 59q-75 0 -108 -127q-24 -91 -24 -234q0 -93 5 -123q114 66 169 167q45 83 45 176z" />
    <glyph glyph-name="i" unicode="i" horiz-adv-x="244" 
d="M166 648q0 -51 -52 -51q-21 0 -33.5 15t-12.5 33q0 19 14 35.5t34 16.5q17 0 33.5 -16t16.5 -33zM253 97q0 -7 -20 -32.5t-24 -28.5q-18 -16 -25 -21q-15 -11 -30 -15q-23 -6 -44 -6q-43 0 -41 28q4 76 6 252q2 154 -36 154q6 0 -28 -9q-5 6 -5 10q0 13 18 19q12 4 20 2
l63 -8q18 4 28 4q30 0 29 -57q-4 -67 -7 -134q-7 -129 -7 -178q0 -6 8.5 -15t14.5 -9q8 0 24 4q7 5 36 53q20 -12 20 -13z" />
    <glyph glyph-name="j" unicode="j" horiz-adv-x="210" 
d="M179 660q0 -19 -16 -36t-37 -17q-17 0 -34 12.5t-17 32.5q0 18 11 35q15 20 38 20q20 0 37.5 -14.5t17.5 -32.5zM184 439l-7 -413q-1 -92 -1 -169q0 -127 -90 -283q-102 -178 -248 -241q-239 -104 -493 -101q-125 1 -211 47q-110 59 -110 178q0 84 47.5 134t132.5 50
q51 0 88 -28.5t37 -71.5q0 -50 -41 -50q-17 0 -31.5 11.5t-14.5 27.5q0 5 28 46q-16 33 -78 33q-55 0 -93.5 -39t-38.5 -95q0 -124 114 -174q79 -34 196 -28q230 11 398 83q253 107 310 334q11 43 20 205q9 158 9 304q0 171 -13 208q-4 10 -16 17.5t-17 7.5q-2 0 -13 -5.5
t-22 -4.5l-2 17q23 17 39 17q2 0 11.5 -3.5t12.5 -3.5q10 0 36 4.5t29 4.5q9 0 32 -19z" />
    <glyph glyph-name="k" unicode="k" horiz-adv-x="549" 
d="M937 1047q0 -137 -133 -212q-104 -59 -231 -59q-65 0 -144 15q-65 13 -119 37q-18 8 -74 42q-50 31 -55 31q0 -55 1 -91q1 -47 1 -131q2 -259 6 -423q2 -3 13 -3l167 166q-1 5 -5 11t-4 9q0 19 29 19q2 0 12.5 -2.5t13.5 -2.5t19.5 2.5t19.5 2.5q5 0 21 -10.5t18 -14.5
q0 -8 -6 -14l-35 10l-9.5 -4t-29 -9t-64.5 -53t-45 -66q16 -20 29 -41q32 -51 46 -100q17 -35 39 -81q4 -8 25 -21.5t29 -13.5q30 0 49 35q9 18 19 36q3 1 6.5 -0.5l3.5 -1.5q0 -46 -31.5 -77.5t-77.5 -33.5q-60 -2 -98 46q-24 30 -54 106q-19 48 -23 55q-10 18 -30 28
q-41 -13 -49 -54q1 -57 1 -169q-11 -12 -22 -12q-2 0 -15.5 4.5t-16.5 4.5t-30 -4.5t-30 -4.5q-2 0 -13 2.5t-16 2.5q-6 5 -14 16q-1 8 10 15q26 -7 27 -7q19 0 38 28q0 15 4 51q3 33 3 51q-5 416 0 676q0 30 3 117q-110 85 -168 125q-104 71 -170 92q-106 32 -164 32
q-61 0 -110 -35q-56 -40 -56 -103q0 -56 31 -92q35 -41 97 -38q36 2 41 24q-23 12 -23 33q0 9 11.5 23.5t22.5 14.5q17 0 34 -13t17 -33q0 -8 -4 -17q-24 -60 -105 -60q-60 0 -104 39q-50 45 -50 121q0 90 74 134q58 34 145 34q120 0 263 -81q95 -55 226 -165q6 4 15 13
q16 97 74 187q71 109 170 145q58 22 123 30q21 3 69 3q141 0 242 -74q120 -87 120 -242zM905 1047q0 135 -106 215q-92 69 -215 69q-153 0 -252 -89q-113 -102 -133 -301q43 -37 94 -64q122 -66 268 -72q131 -6 231 54q113 68 113 188z" />
    <glyph glyph-name="l" unicode="l" horiz-adv-x="233" 
d="M383 1265q0 -220 -240 -384q2 -50 2 -61q0 -23 3 -88q2 -56 1 -89q-4 -130 0 -513q9 -66 10 -67q11 -38 45 -38q-3 0 23 9q7 -3 13 -15q-3 -6 -23 -14.5t-35 -8.5q-1 0 -29 6.5t-46 7.5q-3 0 -12.5 -5t-11.5 -5q-5 0 -14 10q1 10 2 49q5 336 -5 799q-98 -7 -165 17
q-54 19 -94 69t-40 98q0 42 37.5 83.5t81.5 35.5q26 -4 44.5 -22t18.5 -43q0 -43 -43 -45q-33 -2 -33 28q0 21 15 51q-10 2 -20 2q-37 0 -58 -32q-16 -24 -16 -56q0 -81 86 -125q62 -32 128 -32h31q24 3 27 16q2 78 4 155q8 159 47 252q55 132 169 132q60 0 84 -78
q13 -44 13 -99zM359 1265q0 43 -15 82q-23 59 -72 59q-75 0 -108 -127q-25 -91 -25 -234q0 -93 6 -123q114 66 169 167q45 83 45 176z" />
    <glyph glyph-name="m" unicode="m" horiz-adv-x="844" 
d="M851 79q-17 -24 -56 -50q-45 -30 -78 -30q-64 0 -64 113q0 12 1 30q1 16 0 19q-5 131 -5 208q0 44 -47 44q-55 1 -99 -121q-40 -109 -40 -208q0 -20 11 -37q13 -20 33 -20q6 0 25 -1l3 -14q-1 0 -8.5 -5t-10.5 -5q-21 0 -43.5 4.5l-22.5 4.5q-33 0 -46 -9q-21 9 -21 22
q0 3 1 6.5t1 4.5v54q0 19 1.5 77t1.5 91q0 156 -36 156q-38 0 -87 -113q-46 -104 -46 -159v-66q0 -52 31 -52q3 0 5 1t5 1q9 0 17 -8q-2 -15 -13 -17t-21 -4q-30 15 -58 15q-17 0 -76 -13q-22 -5 -33 13q1 6 6 16q26 -4 24 -4q26 0 31 31q2 20 3 40l-2 203q-3 33 -7 66
q-4 40 -33 55q-15 9 -16 9q-36 0 -58 -36q-11 -16 -20 -41q-15 4 -12 18q8 44 43 69q30 22 70 22q21 0 39 -6q53 -19 68 -75q6 -53 13 -106q8 2 25 51q18 58 43 86q39 45 105 44q37 0 60 -62q17 -49 16 -95q4 1 13 15q18 56 59 97t89 45q102 11 102 -200q0 -17 -1 -43
q1 -46 1 -92q7 -67 41 -65q21 1 49 40q5 0 15.5 -5.5t8.5 -8.5z" />
    <glyph glyph-name="n" unicode="n" horiz-adv-x="564" 
d="M560 84q0 -17 -35 -46q-29 -25 -40 -28q-31 -10 -48 -10q-64 0 -64 116v51q0 -4 2 46t3 88q0 54 -2 79q-3 31 -29 31q-51 0 -99 -124q-41 -107 -40 -167q1 3 2 -49q1 -13 8 -27q10 -17 27 -19q8 4 14 4q9 0 16 -7q-1 -16 -41 -22l-45 9q-35 0 -51 -3q-5 -1 -20.5 -3.5
t-18.5 -2.5q-2 0 -10.5 2.5t-11.5 2.5q-6 5 -6 10t8 12q5 0 8.5 -1t6.5 -1q28 0 35 70q1 11 1 79v105q0 69 -4 92q-10 73 -50 73q-34 0 -54 -32q-13 -27 -26 -53q-12 5 -12 16q0 6 9 24.5t10 21.5q7 26 41 42q29 13 55 13q58 0 85 -43q22 -34 22 -86l8 -76q16 51 47 104
q38 63 74 80q24 11 44 11q60 0 75 -115q4 -31 5 -168q0 -57 5 -79q1 -10 3 -21q3 -14 11 -17q28 -6 37 2q5 4 32 31q13 -6 13 -15z" />
    <glyph glyph-name="o" unicode="o" horiz-adv-x="486" 
d="M476 248q0 -92 -64.5 -171.5t-143.5 -79.5q-106 0 -178.5 69t-71.5 171q1 95 63 163t155 72q96 5 168 -62t72 -162zM388 280q-16 89 -37 119q-34 48 -117 46q-70 -1 -102 -84q-23 -59 -23 -144q0 -200 159 -200q76 0 105 102q19 66 15 161z" />
    <glyph glyph-name="p" unicode="p" horiz-adv-x="478" 
d="M467 240q1 -89 -57.5 -165t-135.5 -79q-28 -1 -63 11l-59 22v-157q0 -76 1 -141q98 6 166 -18q53 -19 93 -68.5t40 -97.5q0 -43 -36 -83q-38 -43 -83 -36q-26 4 -44.5 22t-18.5 42q0 43 43 46q33 1 33 -28q0 -21 -15 -51q10 -2 20 -2q38 0 58 31q16 25 16 56
q0 81 -86 125q-62 33 -128 33h-31q-24 -3 -27 -17q-2 -77 -4 -155q-8 -158 -46 -252q-55 -132 -170 -132q-60 0 -84 79q-13 43 -13 98q0 221 241 385q4 81 4 92q-7 477 -6 572q-3 5 -7 5q-10 0 -26 -15.5t-25 -34.5q-2 -1 -8 -2.5t-8 -2.5q-10 10 -10 14q0 18 39 47
q21 15 42 29q1 23 6 74l72 4l2 -52l78 4q84 4 156 -49q80 -59 81 -153zM387 237q0 27 -6 51q-6 19 -11 38q-22 70 -122 86q-44 7 -54 7q-25 0 -43 -11l-1 -266q-1 -53 14 -77q20 -34 76 -34q18 0 35 11t33 21q79 79 79 174zM74 -333q-114 -66 -169 -167q-45 -83 -45 -176
q0 -43 15 -82q23 -60 72 -60q75 0 108 127q25 92 25 235q0 92 -6 123z" />
    <glyph glyph-name="q" unicode="q" horiz-adv-x="479" 
d="M1383 -483q0 -86 -74 -154q-67 -62 -178 -98q-7 -2 -33 -26q-29 -28 -39 -34q-80 -52 -190 -52q-318 0 -446 246q-94 183 -94 542q0 42 1 90l-2 -1q-79 -35 -123 -34q-76 4 -135 80t-58 165q1 94 79 153q71 53 155 49q21 -1 64 -2q2 0 20 -4q2 22 5 49l72 4l1 -80
q76 -50 76 -73q0 -5 -9 -14q-3 1 -9 2t-8 3q-20 46 -51 50l-7 -236q-4 -94 -2 -236q2 -231 2 -237q0 -191 132 -335q136 -149 332 -149q66 0 127 17q77 22 95 60q-32 4 -83 11q-101 19 -163 96q-58 72 -58 160q0 79 51 129.5t129 50.5q100 0 165 -87q56 -74 56 -159
q0 -41 -14 -96.5t-14 -49.5q0 -6 8 -14q86 18 145 88q57 67 57 142q0 21 -21 21q-5 0 -8.5 -2.5t-9.5 -2.5q-9 0 -24 11t-15 24q0 29 37 29q59 0 59 -96zM1160 -537q0 85 -55 149q-59 69 -150 69q-71 0 -113 -49q-37 -45 -37 -108q0 -105 87 -174q78 -60 172 -60q26 0 46 6
q50 47 50 167zM330 143q0 113 -6 266q-18 11 -42 11q-11 0 -54 -7q-64 -11 -101 -63q-35 -48 -35 -113q0 -59 43 -128q48 -77 105 -77q44 0 90 111z" />
    <glyph glyph-name="r" unicode="r" horiz-adv-x="471" 
d="M475 441q0 -34 -38 -73q-12 -12 -38 -13q33 2 -41 2l-23.5 9.5t-38.5 8.5q-14 0 -29 -2t-22 -18.5t-13 -31.5q-7 -22 -7.5 -48t-3.5 -97q-4 -66 -4 -99q0 -56 34 -56q11 0 17 4q13 -5 13 -11q0 -14 -31 -23l-51 12l-50 -7q-16 9 -18 16q0 -2 0 9l14 250q0 166 -58 158
q-43 -7 -63 -52q-3 0 -19 -5q-3 3 -3 11q0 15 17 35l25 25q32 21 69 21q27 0 47 -12q49 -27 57 -82q14 8 25 26.5t21 26.5q18 13 58 19l91 -27q17 -1 33 15q10 12 20 23q10 -7 10 -14z" />
    <glyph glyph-name="s" unicode="s" horiz-adv-x="413" 
d="M406 162q0 -54 -40 -103q-45 -55 -109 -61q-29 -3 -47 -3q-26 0 -50 7q-29 10 -59 20q-36 12 -66 44t-30 59q0 22 22 42.5t42 20.5q3 0 14 -6q-6 -12 -14 -49q-4 -52 47 -84q45 -28 104 -28q26 0 46 6q81 25 81 111q0 53 -74 85q-70 24 -139 49q-75 30 -75 78
q0 46 32 76.5t85 39.5q9 1 24 1q56 0 103 -15q64 -21 76 -64q2 -9 -17 -34q-2 -16 -5 -31q-5 -21 -21 -21q-1 0 -18 8q12 22 12 44q0 39 -42 66q-38 23 -79 23q-29 0 -51 -14q-26 -16 -26 -45q-1 -36 70 -59q115 -37 132 -46q72 -39 72 -117z" />
    <glyph glyph-name="t" unicode="t" horiz-adv-x="408" 
d="M939 1161q34 -42 34 -79q0 -55 -64 -90q-57 -33 -131 -33q-66 0 -101 29q-89 32 -126 63q-18 3 -80 44.5t-91 70.5q-103 -54 -146 -144q-47 -96 -47 -274q0 -37 2 -80l-4 -178l132 65q22 -10 16 -17q-7 -9 -71 -37.5t-77 -50.5q-1 -45 -2 -106v-120q0 -44 -1 -78
q-1 -29 12 -61q18 -44 51 -44q32 -1 77.5 54.5t47.5 90.5q5 1 11 6q17 -10 14 -20q-25 -77 -80.5 -124.5t-117.5 -47.5q-45 0 -74 35q-26 30 -26 66q0 10 3 18q-1 60 6 279q-1 7 -9 21l-82 -39q-6 11 -6 14q0 14 44 38l52 26q0 -3 0 210q-2 27 -2 54q0 215 122 360
q55 65 119 94q9 4 7 9q-335 223 -594 223q-54 0 -106 -9q-84 -16 -157 -84q-81 -74 -81 -155q0 -59 35 -112q36 -56 93 -80q113 -47 217 -47q206 0 228 189q0 42 -52 87q-48 42 -100 55q-25 9 -56 9q-71 0 -135.5 -38.5t-64.5 -85.5q0 -50 83 -85q19 -9 56 -9q92 0 109 37
q-27 41 -27 46q0 16 14.5 27.5t30.5 11.5q44 0 41 -50q-3 -51 -74 -85q-40 -20 -91 -20q-64 0 -110 31q-50 33 -50 87q0 14 3 29q15 62 79 98q59 34 137 34q86 0 149 -41q70 -46 81 -126q2 -16 2 -32q0 -99 -89 -153q-78 -47 -195 -47q-125 0 -204 50q-68 43 -106 104.5
t-38 125.5q0 100 89 165q148 109 335 109q283 0 602 -234q142 30 249 30q177 0 285 -79zM652 1209q-193 0 -217 -33l186 -120q126 -71 203 -64q47 4 67 9q44 30 44 68q0 51 -70 96q-62 41 -116 42.5t-97 1.5z" />
    <glyph glyph-name="u" unicode="u" horiz-adv-x="639" 
d="M634 114q-10 -28 -59 -73t-78 -46q-67 -1 -67 94q0 13 2 47l-11 13q-24 -39 -49 -77q-55 -72 -121 -72q-64 0 -91 49q-20 38 -20 114q0 26 3 76t3 72q0 112 -63 112q-18 0 -39 -27q-12 -20 -25 -40q-14 -1 -14 11q0 22 26.5 51.5t56.5 34.5q14 3 27 3q40 0 76 -26
q40 -46 40 -110q0 -12 -1.5 -37.5t-1.5 -37t-1.5 -38.5t-1.5 -42q0 -60 20 -86q15 -19 46 -19q44 0 91 85q38 69 39 92q6 13 18 69q13 61 13 94v51q4 10 15 10q7 0 66 -8q4 -4 4 -52l-16 -292q0 -20 4 -26q5 -11 24 -11q34 0 67 55q11 -5 18 -13z" />
    <glyph glyph-name="v" unicode="v" horiz-adv-x="483" 
d="M475 276q0 -62 -52 -178q-74 -97 -147 -97h-25q-41 0 -92 27q-59 31 -73 77q-25 52 -25 108q0 48 21 112.5t21 77.5q0 30 -31 30q-13 0 -21 -9q-10 -12 -27 -15q-3 5 -3 11q0 17 24 30q20 11 37 9l58 -11l84 8q7 -3 11 -6q11 -9 12 -19q-37 -22 -57 -62l-32 -70
q-11 -43 -11 -89q0 -73 29 -118q34 -55 107 -55q77 0 123 98q36 75 36 147q0 44 -17 81q-21 48 -60 48q-19 0 -33 -19t-19 -19q-7 0 -18 10q1 32 20.5 53t52.5 21t63.5 -31t34.5 -66q2 -17 7 -29q2 -6 2 -55z" />
    <glyph glyph-name="w" unicode="w" horiz-adv-x="757" 
d="M748 273q-6 -105 -49 -180q-52 -91 -140 -94q-48 -2 -80 15q-13 7 -62 47q-4 -2 -15 -10q-19 -15 -37 -30q-27 -19 -38 -20q-128 -9 -190 67q-50 63 -50 172q0 41 13 102q9 44 9 57q-1 25 -24 25q-13 0 -24 -9.5t-12 -22.5q-1 0 -4 -1q-13 -5 -21 5q-2 10 1 20
q13 33 51 35l107 -8q25 15 51 15q9 1 21 -12q0 -1 3 -5q1 -8 -5 -12q-51 -30 -69 -96q-12 -44 -11 -120q1 -61 30 -116q37 -71 99 -69q78 19 116 112q28 69 25 145q-1 32 -18 73q-23 58 -59 57q-12 -1 -32 -12.5t-29 -14.5q-14 12 -10 23q21 46 62 46q20 0 44 -11
q74 -53 74 -175q0 -25 -10 -127q8 -47 39 -78q33 -34 77 -33q62 3 101 93q32 73 30 133q-2 59 -23 103q-29 61 -84 59q-18 -1 -32 -12q-8 -7 -29 -19q-12 8 -12 15q-1 29 31 45q23 11 45 12q18 1 30.5 -6.5t25.5 -15.5q44 -20 68 -80q18 -47 16 -87z" />
    <glyph glyph-name="x" unicode="x" horiz-adv-x="547" 
d="M1727 -195q13 -36 13 -71q0 -86 -80 -158q-62 -57 -158 -93q-154 -58 -266 -58q-35 0 -140 6q-214 13 -442 210q-201 173 -301 378q-35 70 -86 177q-96 -131 -95 -152q0 -23 40 -24q5 -10 3 -16q-3 -6 -14 -6l-49 2l-48 -2q-25 -7 -70 -18q-7 7 -7 15q0 9 24 15q7 2 9 4
q54 49 183 221q-37 82 -65 132q-31 55 -56 55q-14 0 -27 -17q-5 -6 -5 -20v-18q-3 -3 -14 -7q-12 7 -13 22q0 34 37 58q33 20 68 20q35 1 58 -26q34 -39 74 -122q65 90 66 98q0 11 -8 16l-3 2q-4 2 -6 4l-24 -1q-14 10 -14 17t19 8q32 1 76 -2q15 -1 65 7q7 1 15.5 -5
t8.5 -10q0 -2 -2 -2q-34 -12 -80 -63q-29 -31 -98 -122q51 -102 103 -217q284 -578 751 -578q138 0 295 49q92 29 152 75q84 64 84 150q0 34 -14 71q-15 41 -49.5 65t-75.5 24q-23 0 -45 -8q-58 -21 -61 -58q19 -12 41 -34q2 -5 2 -10q0 -18 -15 -31.5t-33 -13.5
q-26 0 -39 36q-5 14 -5 29q0 34 24.5 64t63 44t73.5 14q114 0 160 -125z" />
    <glyph glyph-name="y" unicode="y" horiz-adv-x="575" 
d="M1182 -414q0 -90 -74 -134q-58 -35 -144 -35q-121 0 -263 82q-96 54 -227 164q-6 -4 -14 -12q-16 -97 -75 -188q-70 -108 -170 -145q-89 -33 -192 -33q-141 0 -242 74q-119 87 -119 243q0 136 133 212q104 59 231 59q145 0 262 -52q56 -25 129 -73q62 315 57 364
q-16 -25 -52 -71q-36 -40 -71 -40q-33 0 -67 61q-21 36 -56 118q-40 96 -67 149q-12 26 -42 73q-16 19 -31 19q-14 0 -27 -17q-3 -3 -6 -38q-3 -3 -14 -7q-12 8 -12 22q0 34 38 57q32 20 67 20q34 0 57 -27q40 -46 84 -146q34 -80 68 -159q10 -23 35 -38q5 -3 14 -3q3 0 7 3
l1 1l1 1q48 36 63 84q9 28 13 108q2 21 2 39q0 -9 -8 95q-9 14 -19 14q-3 0 -26 -14q-5 4 -5 8q0 14 20 23q4 1 33 9l46 -7q15 5 22 5q7 -1 17 -12q0 -92 -16 -360q-26 -206 -67 -377q116 -90 171 -128q107 -74 174 -95q105 -33 163 -33q61 0 111 35q55 41 55 104
q0 55 -31 92q-35 41 -96 38q-37 -2 -41 -24q23 -12 23 -33q0 -10 -11.5 -24.5t-23.5 -14.5q-16 0 -33 13t-17 33q0 9 3 18q24 59 105 59q61 0 104 -38q50 -45 50 -121zM399 -292q-42 37 -93 64q-123 66 -269 72q-131 5 -230 -54q-114 -69 -114 -188q0 -136 106 -216
q92 -69 215 -69q153 0 253 90q112 101 132 301z" />
    <glyph glyph-name="z" unicode="z" horiz-adv-x="563" 
d="M1180 -495q0 59 -35 113.5t-92 78.5q-113 47 -217 47q-206 0 -229 -189q0 -42 53 -87q48 -42 99 -55q26 -9 57 -9q71 0 135.5 38.5t64.5 85.5q0 50 -83 85q-19 9 -56 9q-93 0 -109 -37q27 -41 27 -46q0 -16 -14.5 -27.5t-31.5 -11.5q-43 0 -41 50q3 51 75 85q40 20 90 20
q65 0 111 -31q50 -33 50 -87q0 -14 -4 -29q-15 -62 -78 -98q-59 -33 -137 -33q-86 0 -149 40q-70 46 -81 126q-3 16 -3 32q0 99 90 153q77 47 194 47q126 0 204 -50q69 -43 107 -104.5t38 -125.5q0 -100 -89 -165q-149 -109 -335 -109q-283 0 -602 234q-142 -30 -249 -30
q-177 0 -286 79q-33 42 -33 79q0 55 63 90q58 33 131 33q66 0 101 -29q89 -32 126 -63q19 -3 81 -44.5t91 -70.5q105 55 165 143q58 84 58 175q0 64 -31 120q-115 72 -301 67q-25 -7 -68 -18q-8 8 -8 17t14 13q18 5 19 6q45 40 96 104q44 57 87 114q116 151 117 163
q1 9 -4.5 13t-10.5 7q-45 9 -83 9q-21 0 -36 -3q-74 -15 -82 -19q-40 -16 -49 -59q-3 -13 -1 -29l2 -23q-1 0 -6.5 -1.5t-9.5 -1.5q-20 0 -20 39l4 23.5t4 34.5q0 4 -2 14.5t-2 13.5q0 20 20 30q136 -1 170 0q32 1 77 -2q51 -2 68 -2q37 0 72 5q5 1 11 -3.5t6 -9.5
q0 -2 -2 -4q-24 -22 -150 -185q-137 -176 -137 -200q0 -10 67 -21q79 -13 112 -34q21 -13 41 -26t35 -42q24 -45 24 -102q0 -97 -63 -191q-65 -98 -167 -145q-9 -4 -7 -9q335 -223 594 -223q54 0 106 9q84 16 157 84q80 74 80 155zM159 -511q-94 60 -187 120
q-125 71 -203 64q-47 -4 -66 -9q-45 -30 -45 -68q0 -51 70 -96q63 -41 117 -42.5t96 -1.5q194 0 218 33z" />
    <glyph glyph-name="minus" unicode="&#xad;" horiz-adv-x="311" 
d="M293 151l-32 17l-248 -17v65l32 -11l248 11v-65z" />
    <glyph glyph-name="minus" unicode="&#x2212;" horiz-adv-x="311" 
d="M293 151l-32 17l-248 -17v65l32 -11l248 11v-65z" />
    <glyph glyph-name="paragraph" unicode="&#xb6;" horiz-adv-x="556" 
d="M516 338q-32 -132 -221 -132q-102 0 -199 35q4 -14 36 -88q2 -5 2 -10q0 -22 -24 -22q-14 0 -20 14l-32 72q-24 56 -29 82q-30 27 43 53q64 24 122 24q22 0 22 -24q0 -16 -17 -21q-31 -9 -90 -37q95 -35 189 -35q138 0 173 89q6 16 6 34q0 47 -36.5 88.5t-77.5 41.5
q-28 0 -67 -8q-27 -5 -27 22q0 19 18 22q44 9 76 9q65 0 111.5 -50t46.5 -118q0 -20 -5 -41z" />
    <glyph glyph-name="endash" unicode="&#x2013;" horiz-adv-x="311" 
d="M293 151l-32 17l-248 -17v65l32 -11l248 11v-65z" />
    <glyph glyph-name="emdash" unicode="&#x2014;" horiz-adv-x="382" 
d="M371 154l-32 17l-326 -20v65l32 -11l326 14v-65z" />
    <glyph glyph-name="quoteleft" unicode="&#x2018;" horiz-adv-x="133" 
d="M124 556q0 -83 -94 -155l-5 8q55 64 55 95q0 14 -25 33t-25 48q0 20 11.5 35.5t30.5 15.5q28 0 41 -28q11 -22 11 -52z" />
    <glyph glyph-name="quoteright" unicode="&#x2019;" horiz-adv-x="133" 
d="M124 556q0 -83 -94 -155l-5 8q55 64 55 95q0 14 -25 33t-25 48q0 20 11.5 35.5t30.5 15.5q28 0 41 -28q11 -22 11 -52z" />
    <glyph glyph-name="quotedblleft" unicode="&#x201c;" horiz-adv-x="258" 
d="M245 556q0 -83 -94 -155l-5 8q54 64 54 95q0 14 -24.5 33t-24.5 48q0 20 11.5 35.5t30.5 15.5q27 0 41 -28q11 -22 11 -52zM138 556q0 -83 -95 -155l-4 8q54 64 54 95q0 14 -25 33t-25 48q0 20 12 35.5t31 15.5q27 0 41 -28q11 -22 11 -52z" />
    <glyph glyph-name="quotedblright" unicode="&#x201d;" horiz-adv-x="258" 
d="M245 556q0 -83 -94 -155l-5 8q54 64 54 95q0 14 -24.5 33t-24.5 48q0 20 11.5 35.5t30.5 15.5q27 0 41 -28q11 -22 11 -52zM138 556q0 -83 -95 -155l-4 8q54 64 54 95q0 14 -25 33t-25 48q0 20 12 35.5t31 15.5q27 0 41 -28q11 -22 11 -52z" />
    </font>
</defs>
</svg>
